<svg width="400" height="391" viewBox="0 0 400 391" fill="none" xmlns="http://www.w3.org/2000/svg">
<g clip-path="url(#clip0)">
<path d="M253.936 87.811H146.154C143.698 87.814 141.343 88.791 139.606 90.5278C137.869 92.2646 136.892 94.6193 136.889 97.0754V336.623L135.654 337L109.213 345.097C107.96 345.48 106.607 345.349 105.45 344.734C104.293 344.119 103.428 343.07 103.043 341.818L24.3941 84.9143C24.0113 83.6612 24.1418 82.3074 24.7568 81.1504C25.3717 79.9934 26.4209 79.1279 27.6737 78.7442L68.419 66.268L186.541 30.1119L227.286 17.6358C227.906 17.4449 228.557 17.3783 229.203 17.4395C229.849 17.5008 230.477 17.6889 231.05 17.9929C231.623 18.297 232.13 18.711 232.543 19.2115C232.956 19.7119 233.266 20.2888 233.456 20.9092L253.56 86.5757L253.936 87.811Z" fill="#F2F2F2"/>
<path d="M277.455 86.5738L253.225 7.43061C252.822 6.11194 252.163 4.88562 251.285 3.82173C250.408 2.75785 249.33 1.87725 248.112 1.23026C246.895 0.583266 245.561 0.18255 244.189 0.0510267C242.816 -0.080497 241.431 0.0597487 240.113 0.463735L182.827 17.9983L64.7118 54.1606L7.42651 71.7013C4.76534 72.5184 2.53711 74.3581 1.2309 76.8164C-0.0753009 79.2747 -0.352757 82.1509 0.459448 84.8136L83.2714 355.293C83.9312 357.442 85.2625 359.323 87.07 360.661C88.8775 361.998 91.0659 362.72 93.3143 362.723C94.3549 362.723 95.3896 362.567 96.3837 362.259L135.653 350.24L136.888 349.857V348.567L135.653 348.943L96.0194 361.08C93.6705 361.796 91.1334 361.551 88.9647 360.399C86.796 359.247 85.1729 357.282 84.4512 354.934L1.64555 84.4492C1.288 83.2861 1.16338 82.064 1.27883 80.8527C1.39428 79.6414 1.74753 78.4648 2.31835 77.3902C2.88918 76.3157 3.66638 75.3643 4.60542 74.5905C5.54447 73.8167 6.62692 73.2358 7.7908 72.8809L65.0761 55.3402L183.192 19.1841L240.477 1.64342C241.36 1.37401 242.278 1.23664 243.201 1.23578C245.182 1.24023 247.109 1.87883 248.701 3.05806C250.292 4.23728 251.464 5.89515 252.045 7.78885L276.164 86.5738L276.547 87.8091H277.831L277.455 86.5738Z" fill="#3F3D56"/>
<path d="M75.7715 78.946C74.5811 78.9451 73.4223 78.5628 72.4651 77.8551C71.5079 77.1474 70.8027 76.1516 70.4529 75.0137L62.4976 49.0289C62.2838 48.3309 62.2096 47.5976 62.2793 46.871C62.3489 46.1443 62.561 45.4385 62.9035 44.7938C63.246 44.1491 63.7121 43.5782 64.2753 43.1137C64.8384 42.6492 65.4875 42.3002 66.1856 42.0866L174.851 8.81868C176.261 8.38852 177.783 8.53523 179.085 9.22661C180.387 9.91798 181.361 11.0975 181.794 12.5064L189.749 38.4915C190.179 39.9012 190.032 41.4238 189.341 42.7253C188.649 44.0269 187.47 45.001 186.061 45.4341L77.3955 78.702C76.8693 78.8635 76.3219 78.9457 75.7715 78.946V78.946Z" fill="#359D46"/>
<path d="M117.445 27.7654C124.267 27.7654 129.797 22.235 129.797 15.4128C129.797 8.59063 124.267 3.06018 117.445 3.06018C110.622 3.06018 105.092 8.59063 105.092 15.4128C105.092 22.235 110.622 27.7654 117.445 27.7654Z" fill="#359D46"/>
<path d="M117.445 23.2348C121.765 23.2348 125.267 19.7328 125.267 15.4128C125.267 11.0928 121.765 7.5907 117.445 7.5907C113.125 7.5907 109.623 11.0928 109.623 15.4128C109.623 19.7328 113.125 23.2348 117.445 23.2348Z" fill="white"/>
<path d="M372.207 359.568H163.448C162.056 359.567 160.721 359.013 159.737 358.029C158.753 357.045 158.199 355.71 158.198 354.319V104.178C158.199 102.786 158.753 101.452 159.737 100.468C160.721 99.4834 162.056 98.9298 163.448 98.9282H372.207C373.599 98.9298 374.933 99.4835 375.917 100.468C376.901 101.452 377.455 102.786 377.457 104.178V354.319C377.455 355.71 376.901 357.045 375.917 358.029C374.933 359.013 373.599 359.567 372.207 359.568V359.568Z" fill="#E6E6E6"/>
<path d="M276.165 86.5757H146.154C143.37 86.5796 140.702 87.6871 138.734 89.6553C136.765 91.6236 135.658 94.2919 135.654 97.0754V348.945L136.889 348.568V97.0754C136.892 94.6192 137.869 92.2645 139.606 90.5277C141.343 88.791 143.698 87.8139 146.154 87.8109H276.548L276.165 86.5757ZM389.5 86.5757H146.154C143.37 86.5796 140.702 87.6871 138.734 89.6553C136.765 91.6236 135.658 94.2919 135.654 97.0754V379.95C135.658 382.734 136.765 385.402 138.734 387.37C140.702 389.339 143.37 390.446 146.154 390.45H389.5C392.284 390.446 394.952 389.339 396.92 387.37C398.889 385.402 399.996 382.734 400 379.95V97.0754C399.996 94.2919 398.889 91.6236 396.92 89.6553C394.952 87.6871 392.284 86.5796 389.5 86.5757V86.5757ZM398.765 379.95C398.762 382.406 397.785 384.761 396.048 386.498C394.311 388.235 391.956 389.212 389.5 389.215H146.154C143.698 389.212 141.343 388.235 139.606 386.498C137.869 384.761 136.892 382.406 136.889 379.95V97.0754C136.892 94.6192 137.869 92.2645 139.606 90.5277C141.343 88.791 143.698 87.8139 146.154 87.8109H389.5C391.956 87.8139 394.311 88.791 396.048 90.5277C397.785 92.2645 398.762 94.6192 398.765 97.0754V379.95Z" fill="#3F3D56"/>
<path d="M324.649 113.751H211.005C209.531 113.75 208.119 113.164 207.076 112.121C206.034 111.079 205.448 109.666 205.447 108.193V81.0169C205.448 79.5432 206.034 78.1303 207.076 77.0882C208.119 76.0461 209.531 75.4599 211.005 75.4583H324.649C326.123 75.4599 327.536 76.0461 328.578 77.0882C329.62 78.1303 330.206 79.5432 330.208 81.0169V108.193C330.206 109.666 329.62 111.079 328.578 112.121C327.536 113.164 326.123 113.75 324.649 113.751V113.751Z" fill="#359D46"/>
<path d="M267.827 77.3112C274.649 77.3112 280.18 71.7807 280.18 64.9586C280.18 58.1364 274.649 52.606 267.827 52.606C261.005 52.606 255.474 58.1364 255.474 64.9586C255.474 71.7807 261.005 77.3112 267.827 77.3112Z" fill="#359D46"/>
<path d="M267.827 72.4825C271.982 72.4825 275.351 69.1139 275.351 64.9586C275.351 60.8033 271.982 57.4347 267.827 57.4347C263.672 57.4347 260.303 60.8033 260.303 64.9586C260.303 69.1139 263.672 72.4825 267.827 72.4825Z" fill="white"/>
</g>
<defs>
<clipPath id="clip0">
<rect width="400" height="390.45" fill="white"/>
</clipPath>
</defs>
</svg>
