<svg width="400" height="250" viewBox="0 0 400 250" fill="none" xmlns="http://www.w3.org/2000/svg">
<g clip-path="url(#clip0)">
<path d="M27.7588 231.586C29.5829 232.233 31.5415 232.396 33.4457 232.057C35.35 231.718 37.1357 230.891 38.631 229.653C42.439 226.427 43.6344 221.112 44.6043 216.191L47.4776 201.634L41.4621 205.815C37.1359 208.822 32.7126 211.925 29.717 216.28C26.7214 220.635 25.4141 226.581 27.8207 231.293" fill="#E6E6E6"/>
<path d="M28.273 249.21C27.6641 244.733 27.038 240.199 27.465 235.675C27.8445 231.657 29.0586 227.732 31.5316 224.514C32.8441 222.809 34.4413 221.348 36.2511 220.197C36.7232 219.897 37.1572 220.652 36.6876 220.951C33.5561 222.948 31.134 225.898 29.7705 229.374C28.2645 233.241 28.0228 237.455 28.2844 241.562C28.4414 244.045 28.7738 246.512 29.1092 248.977C29.1362 249.089 29.1199 249.206 29.0638 249.306C29.0076 249.406 28.9157 249.48 28.807 249.514C28.6964 249.544 28.5785 249.529 28.4788 249.472C28.3792 249.415 28.306 249.32 28.2749 249.209L28.273 249.21Z" fill="#F2F2F2"/>
<path d="M148.913 152.764C148.471 152.976 147.99 153.09 147.501 153.099L102.12 154.356C100.231 154.398 98.4035 153.68 97.0389 152.361C95.6743 151.043 94.8845 149.231 94.8435 147.324C94.8024 145.418 95.5134 143.573 96.8199 142.196C98.1265 140.818 99.9216 140.021 101.81 139.98L147.191 138.723C148.11 138.703 149 139.053 149.664 139.695C150.328 140.336 150.713 141.218 150.734 142.146L150.892 149.524C150.906 150.199 150.727 150.864 150.376 151.438C150.025 152.013 149.517 152.473 148.913 152.764V152.764Z" fill="#EB4537"/>
<path d="M90.6844 249.303H83.3727C82.4534 249.302 81.5719 248.933 80.9218 248.277C80.2717 247.62 79.9061 246.731 79.905 245.803V184.294C79.9061 183.366 80.2717 182.476 80.9218 181.82C81.5719 181.164 82.4534 180.795 83.3727 180.794H90.6844C91.6038 180.795 92.4852 181.164 93.1353 181.82C93.7854 182.476 94.1511 183.366 94.1521 184.294V245.803C94.1511 246.731 93.7854 247.62 93.1353 248.277C92.4852 248.933 91.6038 249.302 90.6844 249.303V249.303Z" fill="#EB4537"/>
<path d="M110.1 249.303H102.788C101.869 249.302 100.987 248.933 100.337 248.277C99.687 247.62 99.3213 246.731 99.3203 245.803V184.294C99.3213 183.366 99.687 182.476 100.337 181.82C100.987 181.164 101.869 180.795 102.788 180.794H110.1C111.019 180.795 111.901 181.164 112.551 181.82C113.201 182.476 113.566 183.366 113.567 184.294V245.803C113.566 246.731 113.201 247.62 112.551 248.277C111.901 248.933 111.019 249.302 110.1 249.303V249.303Z" fill="#EB4537"/>
<path d="M97.4499 116.852C111.403 116.852 122.715 105.435 122.715 91.3514C122.715 77.2677 111.403 65.8506 97.4499 65.8506C83.4967 65.8506 72.1853 77.2677 72.1853 91.3514C72.1853 105.435 83.4967 116.852 97.4499 116.852Z" fill="#EB4537"/>
<path d="M106.026 202.605H87.8503C84.0733 202.619 80.3596 201.626 77.085 199.726C73.8105 197.827 71.0913 195.087 69.2028 191.786C67.3143 188.484 66.3235 184.737 66.3306 180.925C66.3377 177.113 67.3426 173.37 69.2434 170.076L94.6613 125.639C94.9439 125.145 95.3504 124.735 95.8399 124.45C96.3294 124.164 96.8847 124.014 97.4499 124.014C98.0151 124.014 98.5704 124.164 99.0599 124.45C99.5494 124.735 99.9559 125.145 100.238 125.639L125.145 169.181C127.082 172.568 128.102 176.411 128.102 180.322C128.102 184.234 127.082 188.076 125.144 191.464C123.207 194.851 120.42 197.664 117.064 199.62C113.708 201.575 109.901 202.605 106.026 202.605V202.605Z" fill="#2F2E41"/>
<path d="M103.413 102.056C105.051 102.01 107.089 101.953 108.659 100.795C109.127 100.436 109.511 99.9786 109.785 99.454C110.059 98.9295 110.216 98.3509 110.245 97.7587C110.273 97.3379 110.205 96.9161 110.045 96.5263C109.885 96.1366 109.638 95.7895 109.323 95.5121C108.503 94.8126 107.305 94.6485 106.015 95.0313L107.352 85.1682L106.37 85.0325L104.798 96.6278L105.618 96.2482C106.568 95.8082 107.873 95.5843 108.684 96.2757C108.883 96.4565 109.038 96.6812 109.137 96.9323C109.236 97.1834 109.276 97.4542 109.255 97.7235C109.231 98.1643 109.113 98.5946 108.909 98.9853C108.706 99.376 108.421 99.7178 108.075 99.9875C106.853 100.888 105.228 101.005 103.386 101.057L103.413 102.056Z" fill="#2F2E41"/>
<path d="M117.542 86.0188H112.206V87.0188H117.542V86.0188Z" fill="#2F2E41"/>
<path d="M100.699 86.0188H95.3633V87.0188H100.699V86.0188Z" fill="#2F2E41"/>
<path d="M91.5075 196.901C91.2975 196.456 91.1842 195.97 91.1752 195.476L89.9297 149.671C89.8886 147.765 90.5996 145.92 91.9061 144.542C93.2127 143.165 95.0078 142.368 96.8966 142.326C98.7854 142.285 100.613 143.003 101.978 144.321C103.342 145.64 104.132 147.452 104.173 149.358L105.418 195.164C105.438 196.091 105.091 196.989 104.455 197.659C103.82 198.329 102.946 198.718 102.027 198.739L94.7174 198.899C94.0487 198.913 93.39 198.732 92.8207 198.378C92.2513 198.024 91.7953 197.511 91.5075 196.901V196.901Z" fill="#EB4537"/>
<path d="M95.1058 72.5011C98.1754 76.5529 103.048 79.2709 108.199 78.6274C113.103 78.0145 117.149 74.5642 118.164 69.6244C118.607 67.2889 118.488 64.8801 117.816 62.601C117.143 60.3219 115.938 58.2393 114.302 56.5287C110.83 52.8434 105.862 50.861 100.945 50.1812C91.6293 48.8935 82.062 52.2055 75.0187 58.3826C71.4815 61.4536 68.6582 65.2734 66.7494 69.5705C64.9107 73.8359 64.035 78.4607 64.1858 83.1098C64.4565 92.2976 68.4437 101.468 75.3234 107.561C76.1779 108.315 77.0722 109.022 78.0025 109.679C78.7871 110.235 79.5306 108.935 78.7526 108.384C71.7072 103.395 67.2133 95.2778 65.9799 86.7488C65.3339 82.4514 65.622 78.0636 66.8241 73.8898C68.0262 69.7161 70.1136 65.8562 72.9414 62.5782C78.6305 56.049 86.9721 51.8052 95.6116 51.425C104.305 51.0423 115.169 54.9598 116.796 64.7275C117.525 69.1056 115.904 73.7075 111.929 75.8993C107.673 78.246 102.455 77.2802 98.7979 74.2495C97.9024 73.5103 97.0942 72.6696 96.3891 71.744C95.8159 70.9874 94.5245 71.7338 95.1058 72.5011H95.1058Z" fill="#2F2E41"/>
<path d="M350.759 5.91822L136.405 37.1729L151.098 139.839L365.453 108.584L350.759 5.91822Z" fill="#F1F1F1"/>
<path d="M345.89 15.6157L143.794 45.0829L156.054 130.74L358.15 101.273L345.89 15.6157Z" fill="white"/>
<path d="M349.819 1.35871e-05L135.464 31.2546L136.78 40.4462L351.135 9.19157L349.819 1.35871e-05Z" fill="#E5E5E5"/>
<path d="M143.005 37.3941C143.947 37.3941 144.711 36.6235 144.711 35.6728C144.711 34.7222 143.947 33.9515 143.005 33.9515C142.063 33.9515 141.3 34.7222 141.3 35.6728C141.3 36.6235 142.063 37.3941 143.005 37.3941Z" fill="white"/>
<path d="M149.412 36.4599C150.353 36.4599 151.117 35.6893 151.117 34.7386C151.117 33.788 150.353 33.0173 149.412 33.0173C148.47 33.0173 147.706 33.788 147.706 34.7386C147.706 35.6893 148.47 36.4599 149.412 36.4599Z" fill="white"/>
<path d="M155.818 35.5257C156.76 35.5257 157.524 34.7551 157.524 33.8044C157.524 32.8538 156.76 32.0831 155.818 32.0831C154.877 32.0831 154.113 32.8538 154.113 33.8044C154.113 34.7551 154.877 35.5257 155.818 35.5257Z" fill="white"/>
<path d="M400 50.0931H183.42V153.825H400V50.0931Z" fill="#E6E6E6"/>
<path d="M393.807 58.9883H189.613V145.535H393.807V58.9883Z" fill="white"/>
<path d="M399.908 44.1H183.328V53.3869H399.908V44.1Z" fill="#CBCBCB"/>
<path d="M190.165 51.2822C191.107 51.2822 191.871 50.5116 191.871 49.5609C191.871 48.6103 191.107 47.8396 190.165 47.8396C189.223 47.8396 188.46 48.6103 188.46 49.5609C188.46 50.5116 189.223 51.2822 190.165 51.2822Z" fill="white"/>
<path d="M196.638 51.2822C197.58 51.2822 198.344 50.5116 198.344 49.5609C198.344 48.6103 197.58 47.8396 196.638 47.8396C195.696 47.8396 194.933 48.6103 194.933 49.5609C194.933 50.5116 195.696 51.2822 196.638 51.2822Z" fill="white"/>
<path d="M203.112 51.2822C204.053 51.2822 204.817 50.5116 204.817 49.5609C204.817 48.6103 204.053 47.8396 203.112 47.8396C202.17 47.8396 201.406 48.6103 201.406 49.5609C201.406 50.5116 202.17 51.2822 203.112 51.2822Z" fill="white"/>
<path d="M336.034 72.1465H307.276V74.3282H336.034V72.1465Z" fill="#E6E6E6"/>
<path d="M351.685 78.5513H307.276V80.733H351.685V78.5513Z" fill="#E6E6E6"/>
<path d="M343.93 84.6511H307.738V86.8329H343.93V84.6511Z" fill="#E6E6E6"/>
<path d="M328.404 91.344H307.276V93.5257H328.404V91.344Z" fill="#E6E6E6"/>
<path d="M339.164 97.8813H307.276V100.063H339.164V97.8813Z" fill="#E6E6E6"/>
<path d="M297.69 71.4602H294.168V75.0145H297.69V71.4602Z" fill="#E6E6E6"/>
<path d="M297.69 77.865H294.168V81.4193H297.69V77.865Z" fill="#E6E6E6"/>
<path d="M297.69 83.9648H294.168V87.5192H297.69V83.9648Z" fill="#E6E6E6"/>
<path d="M297.69 90.6577H294.168V94.212H297.69V90.6577Z" fill="#E6E6E6"/>
<path d="M297.69 97.1951H294.168V100.749H297.69V97.1951Z" fill="#E6E6E6"/>
<path d="M336.034 104.46H307.276V106.641H336.034V104.46Z" fill="#E6E6E6"/>
<path d="M351.685 110.865H307.276V113.046H351.685V110.865Z" fill="#E6E6E6"/>
<path d="M343.93 116.965H307.738V119.146H343.93V116.965Z" fill="#E6E6E6"/>
<path d="M328.404 123.657H307.276V125.839H328.404V123.657Z" fill="#E6E6E6"/>
<path d="M339.164 130.195H307.276V132.377H339.164V130.195Z" fill="#E6E6E6"/>
<path d="M297.69 103.773H294.168V107.328H297.69V103.773Z" fill="#E6E6E6"/>
<path d="M297.69 110.178H294.168V113.733H297.69V110.178Z" fill="#E6E6E6"/>
<path d="M297.69 116.278H294.168V119.832H297.69V116.278Z" fill="#E6E6E6"/>
<path d="M297.69 122.971H294.168V126.525H297.69V122.971Z" fill="#E6E6E6"/>
<path d="M297.69 129.509H294.168V133.063H297.69V129.509Z" fill="#E6E6E6"/>
<path d="M245.058 121.573H216.3V123.755H245.058V121.573Z" fill="#E6E6E6"/>
<path d="M248.644 127.242H212.452V129.424H248.644V127.242Z" fill="#E6E6E6"/>
<path d="M249.37 94.0518C249.369 97.3309 248.525 100.554 246.922 103.405C245.318 106.257 243.009 108.64 240.22 110.321C237.431 112.003 234.257 112.926 231.01 113C227.762 113.074 224.55 112.296 221.689 110.743L221.685 110.74C218.763 109.15 216.31 106.808 214.576 103.95C212.843 101.092 211.891 97.8218 211.818 94.4719C211.744 91.122 212.552 87.8123 214.159 84.8801C215.765 81.9478 218.113 79.4979 220.964 77.7799C223.814 76.0619 227.064 75.1372 230.384 75.1C233.703 75.0629 236.973 75.9147 239.86 77.5685C242.748 79.2223 245.149 81.6191 246.819 84.5147C248.49 87.4103 249.37 90.7011 249.37 94.0518V94.0518Z" fill="#E6E6E6"/>
<path d="M230.689 93.1319C233.508 93.1319 235.793 90.8252 235.793 87.9797C235.793 85.1341 233.508 82.8274 230.689 82.8274C227.87 82.8274 225.584 85.1341 225.584 87.9797C225.584 90.8252 227.87 93.1319 230.689 93.1319Z" fill="white"/>
<path d="M239.405 103.778C233.698 105.799 227.476 105.775 221.785 103.709L221.781 103.706L225.584 96.1294H235.793L239.405 103.778Z" fill="white"/>
<path d="M174.172 141.097C165.275 141.097 158.037 133.336 158.037 123.796C158.037 114.256 165.275 106.495 174.172 106.495C183.069 106.495 190.308 114.256 190.308 123.796C190.308 133.336 183.069 141.097 174.172 141.097ZM174.172 110.867C167.663 110.867 162.368 116.667 162.368 123.796C162.368 130.925 167.663 136.725 174.172 136.725C180.681 136.725 185.977 130.925 185.977 123.796C185.977 116.667 180.681 110.867 174.172 110.867Z" fill="#EB4537"/>
<path d="M189.452 171.247H158.893C156.198 171.244 153.614 170.163 151.709 168.239C149.803 166.316 148.731 163.708 148.728 160.988V130.732C148.73 128.87 149.464 127.084 150.769 125.768C152.073 124.451 153.842 123.71 155.687 123.708H192.658C194.503 123.71 196.272 124.451 197.576 125.768C198.881 127.084 199.615 128.87 199.617 130.732V160.988C199.614 163.708 198.542 166.316 196.636 168.239C194.731 170.163 192.147 171.244 189.452 171.247V171.247Z" fill="#3F3D56"/>
<path d="M180.127 140.921C180.128 139.852 179.847 138.803 179.312 137.881C178.778 136.958 178.009 136.197 177.086 135.674C176.163 135.151 175.118 134.886 174.06 134.906C173.001 134.927 171.967 135.231 171.064 135.789C170.161 136.346 169.422 137.137 168.922 138.079C168.423 139.021 168.181 140.08 168.222 141.148C168.263 142.216 168.585 143.253 169.155 144.153C169.725 145.054 170.523 145.784 171.465 146.27V155.674H176.879V146.27C177.857 145.767 178.677 145.001 179.25 144.057C179.824 143.113 180.127 142.028 180.127 140.921V140.921Z" fill="white"/>
<path d="M189.237 250H0.495385C0.364001 250 0.237997 249.947 0.145095 249.854C0.0521918 249.76 0 249.633 0 249.5C0 249.367 0.0521918 249.24 0.145095 249.146C0.237997 249.053 0.364001 249 0.495385 249H189.237C189.368 249 189.494 249.053 189.587 249.146C189.68 249.24 189.732 249.367 189.732 249.5C189.732 249.633 189.68 249.76 189.587 249.854C189.494 249.947 189.368 250 189.237 250Z" fill="#3F3D56"/>
</g>
<defs>
<clipPath id="clip0">
<rect width="400" height="250" fill="white"/>
</clipPath>
</defs>
</svg>
