<svg width="260" height="234" viewBox="0 0 260 234" fill="none" xmlns="http://www.w3.org/2000/svg">
<g clip-path="url(#clip0)">
<path d="M132.993 136.211L76.3172 137.207C75.4226 137.225 74.5333 137.066 73.7002 136.74C72.8671 136.413 72.1066 135.926 71.4622 135.305C70.8178 134.684 70.3022 133.942 69.9448 133.122C69.5875 132.302 69.3954 131.419 69.3797 130.524C69.364 129.63 69.5249 128.741 69.8531 127.908C70.1814 127.076 70.6706 126.316 71.2928 125.673C71.915 125.03 72.6579 124.516 73.479 124.161C74.3001 123.805 75.1833 123.615 76.0779 123.601L132.754 122.605C133.599 122.59 134.415 122.911 135.023 123.498C135.631 124.085 135.981 124.89 135.996 125.735L136.123 132.969C136.137 133.777 135.844 134.56 135.302 135.16C134.761 135.76 134.011 136.132 133.206 136.2C133.136 136.206 133.065 136.209 132.993 136.211Z" fill="#D20608"/>
<path d="M122.048 138.06L75.5501 140.182C75.1321 140.201 74.7144 140.138 74.3209 139.996C73.9275 139.853 73.5658 139.635 73.2568 139.353C72.9477 139.071 72.6972 138.731 72.5196 138.352C72.342 137.973 72.2408 137.563 72.2217 137.145L71.7296 126.365C71.6911 125.521 71.9895 124.696 72.5592 124.071C73.1289 123.447 73.9232 123.075 74.7674 123.036L121.265 120.914C121.683 120.895 122.101 120.958 122.495 121.1C122.888 121.243 123.25 121.461 123.559 121.743C123.868 122.025 124.118 122.365 124.296 122.744C124.473 123.123 124.575 123.533 124.594 123.951L125.086 134.731C125.122 135.554 124.839 136.36 124.295 136.979C123.752 137.598 122.989 137.982 122.168 138.052C122.129 138.055 122.088 138.058 122.048 138.06Z" fill="#2F2E41"/>
<path d="M43.4163 230.544V170.242C43.4172 169.397 43.7532 168.587 44.3506 167.99C44.9479 167.392 45.7578 167.056 46.6026 167.055H53.838C54.6827 167.056 55.4926 167.392 56.09 167.99C56.6873 168.587 57.0234 169.397 57.0243 170.242V230.544C57.0233 231.389 56.6873 232.199 56.09 232.796C55.4926 233.394 54.6827 233.73 53.838 233.731H46.6026C45.7578 233.73 44.9479 233.394 44.3506 232.796C43.7532 232.199 43.4172 231.389 43.4163 230.544Z" fill="#D20608"/>
<path d="M62.4033 230.544V170.242C62.4043 169.397 62.7403 168.587 63.3376 167.99C63.935 167.392 64.7449 167.056 65.5897 167.055H72.825C73.6698 167.056 74.4797 167.392 75.077 167.99C75.6744 168.587 76.0104 169.397 76.0114 170.242V230.544C76.0104 231.389 75.6744 232.199 75.077 232.796C74.4797 233.394 73.6698 233.73 72.825 233.731H65.5897C64.7449 233.73 63.935 233.394 63.3376 232.796C62.7403 232.199 62.4043 231.389 62.4033 230.544V230.544Z" fill="#D20608"/>
<path d="M64.2928 104.123C78.1003 104.123 89.2934 92.9301 89.2934 79.1226C89.2934 65.3152 78.1003 54.1221 64.2928 54.1221C50.4854 54.1221 39.2922 65.3152 39.2922 79.1226C39.2922 92.9301 50.4854 104.123 64.2928 104.123Z" fill="#D20608"/>
<path d="M77.8255 87.6588C78.6297 87.3946 79.3679 86.9612 79.9907 86.3878C80.4033 85.9785 80.7214 85.4838 80.9227 84.9386C81.124 84.3933 81.2037 83.8107 81.1561 83.2314C81.13 82.8187 81.0087 82.4176 80.8019 82.0595C80.595 81.7014 80.3081 81.3959 79.9637 81.1671C79.0696 80.5936 77.8739 80.5919 76.6564 81.1284L76.7025 71.3686L75.7222 71.3639L75.6679 82.8377L76.4233 82.3625C77.2993 81.8124 78.5503 81.4252 79.4342 81.9924C79.6527 82.1422 79.8336 82.3404 79.963 82.5716C80.0923 82.8027 80.1667 83.0606 80.1801 83.3252C80.2132 83.7567 80.1529 84.1902 80.0033 84.5964C79.8538 85.0025 79.6185 85.3716 79.3135 85.6786C78.2309 86.7127 76.6515 87.0361 74.8503 87.3251L75.0057 88.2931C75.9627 88.1663 76.9064 87.954 77.8255 87.6588V87.6588Z" fill="#2F2E41"/>
<path d="M86.8091 70.8753L81.5742 71.5667L81.7026 72.5385L86.9375 71.8472L86.8091 70.8753Z" fill="#2F2E41"/>
<path d="M70.2854 73.057L65.0505 73.7483L65.1789 74.7201L70.4138 74.0288L70.2854 73.057Z" fill="#2F2E41"/>
<path d="M11.2525 77.1486L47.1475 121.02C47.7137 121.712 48.1382 122.508 48.3966 123.364C48.6551 124.219 48.7424 125.117 48.6537 126.007C48.565 126.896 48.3019 127.759 47.8795 128.547C47.4571 129.334 46.8837 130.031 46.192 130.597C45.5002 131.163 44.7038 131.587 43.8481 131.845C42.9925 132.103 42.0943 132.19 41.2051 132.101C40.3158 132.012 39.4528 131.748 38.6653 131.326C37.8779 130.903 37.1814 130.329 36.6158 129.637L0.720636 85.7657C0.455635 85.4418 0.25701 85.069 0.136117 84.6684C0.0152246 84.2678 -0.0255775 83.8473 0.0160467 83.4309C0.0576709 83.0146 0.180899 82.6105 0.378702 82.2418C0.576505 81.873 0.845005 81.5469 1.16887 81.2819L6.7686 76.7002C7.42269 76.1651 8.26255 75.9117 9.10343 75.9958C9.94431 76.0799 10.7173 76.4946 11.2525 77.1486H11.2525Z" fill="#D20608"/>
<path d="M23.2239 86.9402L52.6989 122.965C52.9639 123.289 53.1625 123.662 53.2834 124.062C53.4043 124.463 53.4451 124.883 53.4035 125.3C53.3619 125.716 53.2386 126.12 53.0408 126.489C52.843 126.858 52.5745 127.184 52.2507 127.449L42.686 135.274C42.3622 135.539 41.9893 135.738 41.5887 135.859C41.1881 135.98 40.7676 136.021 40.3513 135.979C39.9349 135.937 39.5308 135.814 39.1621 135.616C38.7933 135.418 38.4672 135.15 38.2022 134.826L8.72711 98.8014C8.19292 98.147 7.9401 97.3074 8.02413 96.4668C8.10817 95.6263 8.52218 94.8533 9.17535 94.3176L18.7401 86.4918C19.3942 85.9567 20.234 85.7033 21.0749 85.7874C21.9157 85.8715 22.6887 86.2862 23.2239 86.9402L23.2239 86.9402Z" fill="#2F2E41"/>
<path d="M227.577 43.1449C227.216 42.2891 226.613 41.5577 225.841 41.0414C225.069 40.525 224.163 40.2462 223.234 40.2396H136.56C135.314 40.2403 134.119 40.7355 133.238 41.6165C132.357 42.4975 131.862 43.6922 131.861 44.9381V154.589C131.862 155.835 132.357 157.03 133.238 157.911C134.119 158.792 135.314 159.287 136.56 159.288H223.237C224.483 159.286 225.677 158.791 226.558 157.91C227.439 157.029 227.934 155.835 227.936 154.589V44.9381C227.938 44.3226 227.817 43.7129 227.58 43.1449H227.577ZM226.889 154.589C226.888 155.558 226.503 156.487 225.817 157.173C225.132 157.858 224.203 158.243 223.234 158.244H136.56C135.591 158.244 134.661 157.859 133.976 157.174C133.29 156.489 132.905 155.559 132.905 154.59V44.9387C132.906 43.9697 133.292 43.0408 133.977 42.3557C134.662 41.6705 135.591 41.285 136.56 41.2836H223.237C223.967 41.2864 224.68 41.5066 225.284 41.9161C225.888 42.3256 226.357 42.9059 226.63 43.5829C226.683 43.7178 226.729 43.8554 226.767 43.9952C226.85 44.3029 226.892 44.6201 226.892 44.9387L226.889 154.589Z" fill="#3F3D56"/>
<path d="M209.489 66.1279H183.381C183.107 66.1284 182.835 66.0746 182.581 65.9699C182.327 65.8651 182.097 65.7113 181.902 65.5173C181.708 65.3233 181.554 65.0929 181.449 64.8393C181.343 64.5857 181.289 64.3138 181.289 64.0392C181.289 63.7647 181.343 63.4928 181.449 63.2392C181.554 62.9856 181.708 62.7552 181.902 62.5612C182.097 62.3672 182.327 62.2134 182.581 62.1086C182.835 62.0038 183.107 61.9501 183.381 61.9506H209.489C209.763 61.9501 210.035 62.0038 210.289 62.1086C210.543 62.2134 210.774 62.3672 210.968 62.5612C211.162 62.7552 211.316 62.9856 211.421 63.2392C211.527 63.4928 211.581 63.7647 211.581 64.0392C211.581 64.3138 211.527 64.5857 211.421 64.8393C211.316 65.0929 211.162 65.3233 210.968 65.5173C210.774 65.7113 210.543 65.8651 210.289 65.9699C210.035 66.0746 209.763 66.1284 209.489 66.1279Z" fill="#3F3D56"/>
<path d="M209.489 77.093H183.381C183.107 77.0935 182.835 77.0397 182.581 76.935C182.327 76.8302 182.097 76.6764 181.902 76.4824C181.708 76.2884 181.554 76.058 181.449 75.8044C181.343 75.5508 181.289 75.2789 181.289 75.0043C181.289 74.7298 181.343 74.4579 181.449 74.2043C181.554 73.9507 181.708 73.7203 181.902 73.5263C182.097 73.3323 182.327 73.1785 182.581 73.0737C182.835 72.9689 183.107 72.9152 183.381 72.9157H209.489C209.763 72.9152 210.035 72.9689 210.289 73.0737C210.543 73.1785 210.774 73.3323 210.968 73.5263C211.162 73.7203 211.316 73.9507 211.421 74.2043C211.527 74.4579 211.581 74.7298 211.581 75.0043C211.581 75.2789 211.527 75.5508 211.421 75.8044C211.316 76.058 211.162 76.2884 210.968 76.4824C210.774 76.6764 210.543 76.8302 210.289 76.935C210.035 77.0397 209.763 77.0935 209.489 77.093Z" fill="#3F3D56"/>
<path d="M169.986 83.3366H150.906C150.283 83.3359 149.686 83.0881 149.245 82.6476C148.805 82.2071 148.557 81.6098 148.556 80.9867V58.4717C148.557 57.8487 148.805 57.2514 149.245 56.8108C149.686 56.3703 150.283 56.1225 150.906 56.1218H169.986C170.609 56.1225 171.206 56.3703 171.646 56.8108C172.087 57.2514 172.335 57.8487 172.335 58.4717V80.9867C172.335 81.6098 172.087 82.2071 171.646 82.6476C171.206 83.0881 170.609 83.3359 169.986 83.3366V83.3366Z" fill="#D20608"/>
<path d="M209.308 99.5457H150.305C149.751 99.5457 149.219 99.3256 148.828 98.9339C148.436 98.5422 148.216 98.0109 148.216 97.457C148.216 96.903 148.436 96.3717 148.828 95.98C149.219 95.5883 149.751 95.3683 150.305 95.3683H209.308C209.861 95.3683 210.393 95.5883 210.784 95.98C211.176 96.3717 211.396 96.903 211.396 97.457C211.396 98.0109 211.176 98.5422 210.784 98.9339C210.393 99.3256 209.861 99.5457 209.308 99.5457V99.5457Z" fill="#CCCCCC"/>
<path d="M209.308 110.511H150.305C149.751 110.51 149.221 110.289 148.83 109.898C148.439 109.506 148.219 108.975 148.219 108.422C148.219 107.869 148.439 107.338 148.83 106.946C149.221 106.555 149.751 106.334 150.305 106.333H209.308C209.582 106.333 209.854 106.387 210.108 106.491C210.362 106.596 210.592 106.75 210.787 106.944C210.981 107.138 211.135 107.368 211.24 107.622C211.345 107.876 211.4 108.147 211.4 108.422C211.4 108.697 211.345 108.968 211.24 109.222C211.135 109.476 210.981 109.706 210.787 109.9C210.592 110.094 210.362 110.248 210.108 110.353C209.854 110.457 209.582 110.511 209.308 110.511Z" fill="#CCCCCC"/>
<path d="M209.308 121.476H150.305C149.751 121.475 149.221 121.255 148.83 120.863C148.439 120.471 148.219 119.941 148.219 119.387C148.219 118.834 148.439 118.303 148.83 117.911C149.221 117.52 149.751 117.299 150.305 117.298H209.308C209.582 117.298 209.854 117.352 210.108 117.457C210.362 117.561 210.592 117.715 210.787 117.909C210.981 118.103 211.135 118.333 211.24 118.587C211.345 118.841 211.4 119.113 211.4 119.387C211.4 119.662 211.345 119.934 211.24 120.187C211.135 120.441 210.981 120.671 210.787 120.865C210.592 121.059 210.362 121.213 210.108 121.318C209.854 121.423 209.582 121.476 209.308 121.476Z" fill="#CCCCCC"/>
<path d="M209.308 132.441H150.305C149.751 132.44 149.221 132.22 148.83 131.828C148.439 131.437 148.219 130.906 148.219 130.352C148.219 129.799 148.439 129.268 148.83 128.877C149.221 128.485 149.751 128.265 150.305 128.264H209.308C209.582 128.263 209.854 128.317 210.108 128.422C210.362 128.527 210.592 128.68 210.787 128.874C210.981 129.068 211.135 129.299 211.24 129.552C211.345 129.806 211.4 130.078 211.4 130.352C211.4 130.627 211.345 130.899 211.24 131.152C211.135 131.406 210.981 131.636 210.787 131.83C210.592 132.024 210.362 132.178 210.108 132.283C209.854 132.388 209.582 132.442 209.308 132.441V132.441Z" fill="#CCCCCC"/>
<path d="M209.308 143.406H150.305C149.751 143.405 149.221 143.185 148.83 142.793C148.439 142.402 148.219 141.871 148.219 141.317C148.219 140.764 148.439 140.233 148.83 139.842C149.221 139.45 149.751 139.23 150.305 139.229H209.308C209.582 139.228 209.854 139.282 210.108 139.387C210.362 139.492 210.592 139.645 210.787 139.839C210.981 140.033 211.135 140.264 211.24 140.517C211.345 140.771 211.4 141.043 211.4 141.317C211.4 141.592 211.345 141.864 211.24 142.117C211.135 142.371 210.981 142.602 210.787 142.796C210.592 142.99 210.362 143.143 210.108 143.248C209.854 143.353 209.582 143.407 209.308 143.406Z" fill="#CCCCCC"/>
<path d="M230.099 59.8023C246.613 59.8023 260 46.4151 260 29.9011C260 13.3872 246.613 0 230.099 0C213.585 0 200.198 13.3872 200.198 29.9011C200.198 46.4151 213.585 59.8023 230.099 59.8023Z" fill="#D20608"/>
<path d="M229.52 50.4827C231.463 50.4827 233.038 48.9075 233.038 46.9644C233.038 45.0213 231.463 43.446 229.52 43.446C227.577 43.446 226.001 45.0213 226.001 46.9644C226.001 48.9075 227.577 50.4827 229.52 50.4827Z" fill="white"/>
<path d="M229.143 10.2516C226.491 10.2779 223.953 11.3382 222.071 13.2069C220.189 15.0756 219.11 17.6051 219.064 20.2572C219.063 20.3079 219.063 20.6649 219.063 21.1317C219.063 21.8162 219.335 22.4727 219.819 22.9567C220.303 23.4407 220.959 23.7127 221.644 23.7128V23.7128C222.329 23.7126 222.986 23.4404 223.47 22.9559C223.954 22.4714 224.226 21.8144 224.226 21.1294V21.1278C224.226 20.8102 224.226 20.5904 224.226 20.5769C224.226 19.7271 224.447 18.892 224.867 18.1536C225.288 17.4151 225.893 16.7989 226.624 16.3655C227.355 15.932 228.186 15.6963 229.036 15.6815C229.885 15.6667 230.724 15.8733 231.47 16.2811C232.215 16.6888 232.842 17.2836 233.288 18.0069C233.734 18.7302 233.984 19.5572 234.013 20.4064C234.042 21.2557 233.85 22.098 233.455 22.8504C233.061 23.6028 232.477 24.2396 231.761 24.6979L231.762 24.699C231.762 24.699 228.089 27.0639 226.969 30.3081L226.97 30.3083C226.773 30.9729 226.673 31.6625 226.673 32.3557C226.673 32.6406 226.69 35.1337 226.722 37.1572C226.734 37.8554 227.019 38.5212 227.517 39.0109C228.015 39.5006 228.685 39.7749 229.383 39.7748V39.7748C229.733 39.7747 230.079 39.7059 230.402 39.5721C230.725 39.4384 231.018 39.2423 231.265 38.9952C231.512 38.748 231.708 38.4546 231.842 38.1317C231.976 37.8088 232.045 37.4628 232.045 37.1133L232.045 37.0969C232.033 35.2438 232.027 33.0859 232.027 32.9293C232.027 30.9373 233.949 28.9525 235.527 27.6581C237.355 26.1783 238.639 24.1338 239.179 21.8453C239.295 21.3736 239.359 20.8905 239.37 20.4048C239.37 19.0714 239.107 17.7511 238.597 16.5192C238.087 15.2874 237.339 14.1681 236.396 13.2252C235.453 12.2824 234.334 11.5345 233.102 11.0242C231.87 10.514 230.55 10.2513 229.216 10.2513C229.192 10.2513 229.167 10.2514 229.143 10.2516Z" fill="white"/>
<path d="M58.0253 68.0612C62.5015 65.1186 68.1271 66.4424 73.1021 66.8268C77.5974 67.1742 82.9255 66.8319 86.0873 63.1592C89.3766 59.3382 89.1017 53.6651 86.3784 49.6236C83.6979 45.6455 79.2482 43.1337 74.5409 42.4714C71.9327 42.0893 69.2736 42.2543 66.7326 42.956C64.1917 43.6577 61.8247 44.8806 59.7823 46.547L61.3822 47.2097C60.4498 38.2966 53.8965 30.2391 45.104 28.0535C36.2079 25.8421 26.2592 29.6162 21.513 37.5483C16.834 45.368 17.3883 56.2796 24.1232 62.778C27.3576 65.8987 31.7573 67.4886 36.2223 66.6403C40.3402 65.8578 43.999 62.8559 44.7697 58.6168C45.484 54.6871 43.9235 50.2236 40.1011 48.5074C39.0552 48.0196 37.9121 47.7758 36.7582 47.7942C35.6043 47.8126 34.4696 48.0929 33.4398 48.6138C32.5071 49.1386 31.719 49.8864 31.1461 50.7902C30.5731 51.6941 30.2331 52.7259 30.1564 53.7933C30.0852 54.8267 30.2957 55.8601 30.7655 56.7833C31.2962 57.8664 32.9132 56.9175 32.384 55.8373C32.0422 55.043 31.945 54.1648 32.105 53.3151C32.2649 52.4653 32.6747 51.6826 33.2819 51.0669C34.6714 49.6155 36.8647 49.3744 38.711 49.9678C42.0893 51.0537 43.5809 54.9293 42.9443 58.217C42.2312 61.8996 39.0874 64.2659 35.5077 64.8718C31.6149 65.5307 27.8186 63.887 25.1163 61.1223C19.457 55.3325 18.9673 46.0072 22.7849 39.097C26.6577 32.0868 34.9189 28.3226 42.7879 29.4984C50.569 30.6612 56.9772 36.7814 58.9739 44.3278C59.2259 45.2733 59.4044 46.2368 59.5078 47.2097C59.5142 47.3922 59.5729 47.5689 59.6769 47.7189C59.781 47.8688 59.926 47.9857 60.0946 48.0556C60.2633 48.1254 60.4484 48.1453 60.628 48.1128C60.8077 48.0804 60.9742 47.9969 61.1077 47.8724C67.7566 42.3504 78.8154 42.9427 84.2672 49.8895C86.9409 53.2963 87.7288 58.5867 84.6066 62.0089C81.6337 65.2675 76.6967 65.2708 72.6363 64.9139C67.4421 64.4574 61.732 63.384 57.0793 66.4428C56.0755 67.1027 57.0134 68.7264 58.0253 68.0612V68.0612Z" fill="#2F2E41"/>
<path d="M78.1852 191.271H40.6976C39.9521 191.27 39.2375 190.973 38.7104 190.446C38.1833 189.919 37.8868 189.204 37.886 188.459V175.963C37.8868 175.218 38.1833 174.503 38.7104 173.976C39.2375 173.449 39.9521 173.152 40.6976 173.151H78.1852C78.9306 173.152 79.6453 173.449 80.1723 173.976C80.6994 174.503 80.9959 175.218 80.9967 175.963V188.459C80.9959 189.204 80.6994 189.919 80.1723 190.446C79.6453 190.973 78.9306 191.27 78.1852 191.271Z" fill="#2F2E41"/>
<path d="M79.466 129.663C78.2922 123.66 73.7338 118.907 67.8173 116.953C69.9539 116.265 71.3123 115.247 71.3123 114.109C71.3123 112.038 66.8366 110.36 61.3156 110.36C55.7946 110.36 51.3189 112.038 51.3189 114.109C51.3189 115.264 52.7142 116.296 54.905 116.984C45.8343 119.688 39.2505 127.582 39.2505 136.878C39.2505 136.878 36.4584 154.777 34.2661 169.085C32.8636 178.239 40.5269 186.421 50.5002 186.421H85.5752C87.8727 186.421 89.7419 184.688 89.7419 182.558C89.7419 182.558 83.2787 149.161 79.466 129.663Z" fill="#2F2E41"/>
</g>
<defs>
<clipPath id="clip0">
<rect width="260" height="233.731" fill="white"/>
</clipPath>
</defs>
</svg>
