<svg width="450" height="277" viewBox="0 0 450 277" fill="none" xmlns="http://www.w3.org/2000/svg">
<g clip-path="url(#clip0)">
<path opacity="0.1" d="M450 177.777C450.007 185.276 449.1 192.749 447.298 200.028C446.692 202.481 445.988 204.883 445.186 207.234C444.204 210.136 443.066 212.982 441.778 215.761C441.128 217.167 440.442 218.545 439.718 219.895C439.73 227.586 438.147 235.195 435.069 242.242C429.504 254.886 419.582 265.11 407.109 271.05C399.311 274.77 390.789 276.727 382.149 276.78H85.4248C72.2229 276.809 59.2491 273.34 47.8223 266.728L47.6465 266.629C46.0189 265.676 44.4321 264.668 42.886 263.603C39.4074 261.2 36.1392 258.506 33.1167 255.549C29.0257 251.552 25.4209 247.085 22.3769 242.242C15.2278 230.89 11.4405 217.746 11.4538 204.33C4.21373 191.627 -0.00805664 176.409 -0.00805664 160.057C-0.00805664 139.426 6.70095 120.605 17.7234 106.358C20.0214 103.382 22.5386 100.581 25.2539 97.9796C27.933 95.4053 30.8127 93.0482 33.8655 90.9306C36.3081 89.2345 38.8608 87.7028 41.5068 86.3458C42.6109 85.7842 43.7189 85.2531 44.846 84.7603C45.8355 84.3209 46.8365 83.9121 47.849 83.5262C49.064 83.0652 50.2942 82.6411 51.5397 82.254C52.7852 81.8668 54.0142 81.528 55.2266 81.2377C57.0096 80.8021 58.8231 80.4481 60.6672 80.1755C62.1954 79.9501 63.7237 79.7935 65.2519 79.675C66.4669 79.5833 67.6933 79.5337 68.9273 79.5184H69.596C70.9561 79.5184 72.3086 79.5719 73.6496 79.6636C73.791 79.3809 73.9438 79.0943 74.0852 78.8154C74.6201 77.7953 75.1741 76.779 75.7319 75.7857C75.7306 75.7768 75.7306 75.7678 75.7319 75.7589C75.8274 75.5832 75.9229 75.4112 76.0222 75.2431C76.4731 74.4293 76.943 73.6232 77.4244 72.8247C77.646 72.4426 77.8638 72.0835 78.0892 71.7243C78.1369 71.6351 78.1892 71.5484 78.2458 71.4645C78.4751 71.0825 78.7081 70.7004 78.945 70.3184C80.1243 68.4335 81.3507 66.5818 82.6243 64.7632L82.949 64.2971C83.1477 64.0143 83.3311 63.7393 83.5527 63.4565C84.0799 62.7192 84.6224 61.978 85.1688 61.252C85.5509 60.7324 85.9329 60.2167 86.3455 59.7238C87.3389 58.4503 88.3577 57.1767 89.402 55.9032C90.4463 54.6297 91.5314 53.3727 92.6572 52.1322C92.81 51.9603 92.9629 51.7922 93.1233 51.6241L94.7547 49.8437C94.835 49.7596 94.9037 49.6832 94.9801 49.6068C95.175 49.3967 95.3622 49.1866 95.5723 48.9841C96.4473 48.0557 97.3451 47.1463 98.2468 46.2409C102.836 41.6704 107.724 37.4112 112.88 33.4915C113.082 33.331 113.289 33.1782 113.491 33.0254C114.461 32.2956 115.447 31.5735 116.433 30.8629C121.855 26.9733 127.522 23.4382 133.4 20.2798C133.805 20.0467 134.218 19.829 134.634 19.615C139.904 16.8272 145.323 14.3323 150.868 12.1419C153.89 10.946 156.981 9.82278 160.091 8.79504C162.162 8.11497 164.24 7.46929 166.345 6.86181C169.636 5.9143 172.95 5.06485 176.287 4.31346C186.117 2.10776 196.117 0.745224 206.179 0.240685C209.236 0.0853138 212.327 0.005082 215.452 -1.21552e-05C230.532 -0.0199764 245.553 1.88014 260.153 5.65449C260.304 5.88262 260.511 6.06859 260.753 6.19491C260.996 6.32124 261.267 6.38376 261.54 6.37659H262.824C263.382 6.52941 263.935 6.68224 264.493 6.8427C267.608 7.73927 270.679 8.71863 273.705 9.78076L274.469 10.0558C281.937 12.7115 289.204 15.9037 296.212 19.6074C302.529 22.938 308.612 26.696 314.417 30.8553C315.311 31.4971 316.193 32.1441 317.061 32.7961C318.116 32.1212 319.188 31.4742 320.278 30.8553C324.488 28.4576 328.96 26.5513 333.604 25.174C343.316 22.3002 353.591 21.8983 363.497 24.0049C376.201 26.6984 387.701 33.3845 396.989 42.894C400.77 46.7849 404.137 51.059 407.033 55.6472C407.243 55.9758 407.453 56.3082 407.656 56.6444C410.145 60.7053 412.285 64.9704 414.051 69.3938C414.116 69.5581 414.181 69.7109 414.239 69.8714C415.87 74.0133 417.185 78.2727 418.174 82.6131C418.22 82.8347 418.273 83.0525 418.319 83.2741C419.244 87.4745 419.872 91.7348 420.199 96.0234C420.199 96.1763 420.199 96.3329 420.229 96.4934C420.39 98.7119 420.471 100.953 420.474 103.218C420.474 105.243 420.405 107.252 420.279 109.247C420.279 109.464 420.248 109.69 420.229 109.915C420.195 110.492 420.145 111.061 420.096 111.642C423.014 113.996 425.745 116.572 428.264 119.348C429.377 120.563 430.455 121.824 431.496 123.131C434.669 127.108 437.458 131.377 439.825 135.88C446.286 148.075 450 162.422 450 177.777Z" fill="#D20608"/>
<path opacity="0.1" d="M406.828 269.636C406.828 272.246 397.839 274.691 382.151 276.792H85.426C72.2242 276.821 59.2503 273.352 47.8235 266.74L47.6477 266.641C52.156 264.998 60.294 263.466 71.37 262.083L71.8666 262.022C76.8335 261.414 82.3848 260.837 88.452 260.291C88.6048 260.291 88.7614 260.268 88.9143 260.249C93.7283 259.821 98.8492 259.42 104.277 259.046C104.449 259.046 104.617 259.015 104.789 259.007C106.883 258.857 109.02 258.714 111.2 258.579L112.041 258.526C127.915 257.54 145.96 256.753 165.529 256.234H165.552C168.293 256.157 171.063 256.09 173.862 256.031C176.975 255.957 180.125 255.892 183.314 255.836C185.748 255.783 188.212 255.745 190.684 255.706H190.742C201.894 255.538 213.417 255.454 225.2 255.454C254.336 255.454 281.875 255.985 306.277 256.94H306.346C310.098 257.086 313.781 257.246 317.372 257.41L320.429 257.556C324.481 257.749 328.429 257.957 332.273 258.178C377.471 260.75 406.828 264.926 406.828 269.636Z" fill="#D20608"/>
<g opacity="0.2">
<path opacity="0.2" d="M259.911 253.701C259.899 254.113 259.851 254.523 259.769 254.927C257.11 254.504 254.436 254.122 251.746 253.781C251.746 253.674 251.746 253.563 251.746 253.452C251.771 252.307 252.101 251.188 252.701 250.212C253.488 248.967 254.684 248.187 256.002 248.229C257.32 248.271 258.463 249.123 259.17 250.411C259.704 251.422 259.96 252.558 259.911 253.701V253.701Z" fill="#3F3D56"/>
<path opacity="0.2" d="M260.131 247.172C260.224 244.217 258.47 241.764 256.214 241.693C253.957 241.621 252.052 243.959 251.959 246.914C251.866 249.868 253.619 252.322 255.876 252.393C258.132 252.464 260.037 250.127 260.131 247.172Z" fill="#3F3D56"/>
<path opacity="0.2" d="M260.339 240.63C260.433 237.676 258.679 235.223 256.423 235.152C254.166 235.08 252.261 237.418 252.168 240.372C252.074 243.327 253.828 245.78 256.085 245.851C258.341 245.922 260.246 243.585 260.339 240.63Z" fill="#3F3D56"/>
<path opacity="0.2" d="M260.543 234.09C260.637 231.135 258.883 228.682 256.626 228.611C254.37 228.539 252.465 230.877 252.371 233.831C252.278 236.786 254.032 239.239 256.288 239.311C258.545 239.382 260.45 237.045 260.543 234.09Z" fill="#3F3D56"/>
<path opacity="0.2" d="M260.746 227.549C260.84 224.594 259.086 222.141 256.829 222.069C254.573 221.998 252.668 224.336 252.574 227.29C252.481 230.245 254.235 232.698 256.491 232.77C258.748 232.841 260.653 230.503 260.746 227.549Z" fill="#3F3D56"/>
<path opacity="0.2" d="M242.755 182.163C242.217 181.434 241.732 180.668 241.303 179.871L252.101 178.445L240.478 178.167C239.441 175.706 238.917 173.061 238.937 170.391C238.957 167.721 239.522 165.084 240.597 162.64L255.925 171.217L241.884 160.198C243.301 157.907 245.174 155.933 247.388 154.399C249.602 152.864 252.108 151.803 254.75 151.281C257.393 150.759 260.114 150.787 262.745 151.364C265.376 151.941 267.86 153.054 270.041 154.634C272.222 156.214 274.054 158.227 275.423 160.546C276.792 162.866 277.667 165.443 277.995 168.117C278.323 170.79 278.096 173.502 277.328 176.084C276.561 178.666 275.269 181.062 273.534 183.122C274.371 184.255 275.082 185.476 275.655 186.763L261.484 193.564L276.51 189.044C277.457 192.166 277.609 195.475 276.954 198.672C276.299 201.868 274.857 204.85 272.759 207.348C274.94 210.308 276.245 213.823 276.523 217.489C276.802 221.156 276.043 224.826 274.333 228.082C272.623 231.337 270.032 234.046 266.855 235.898C263.679 237.75 260.045 238.671 256.37 238.555C252.695 238.439 249.126 237.291 246.073 235.243C243.019 233.194 240.604 230.328 239.102 226.971C237.601 223.614 237.075 219.903 237.584 216.261C238.093 212.62 239.616 209.195 241.98 206.378C239.373 202.841 238.032 198.53 238.17 194.138C238.309 189.747 239.92 185.529 242.744 182.163H242.755Z" fill="#D20608"/>
<path opacity="0.1" d="M277.343 195.375C277.209 199.769 275.594 203.989 272.758 207.349C274.94 210.309 276.245 213.823 276.523 217.489C276.802 221.156 276.042 224.827 274.333 228.082C272.623 231.338 270.032 234.046 266.855 235.898C263.679 237.75 260.045 238.671 256.37 238.555C252.695 238.439 249.126 237.292 246.073 235.243C243.019 233.195 240.604 230.328 239.102 226.971C237.601 223.615 237.075 219.903 237.584 216.262C238.093 212.62 239.616 209.195 241.98 206.378C239.47 202.967 277.412 193.178 277.343 195.375Z" fill="black"/>
</g>
<g opacity="0.2">
<path opacity="0.2" d="M201.837 253.701C201.825 254.113 201.778 254.523 201.696 254.927C199.037 254.504 196.362 254.122 193.672 253.781C193.672 253.674 193.672 253.563 193.672 253.452C193.697 252.307 194.027 251.188 194.628 250.212C195.415 248.967 196.61 248.187 197.929 248.229C199.247 248.271 200.389 249.123 201.096 250.411C201.63 251.422 201.886 252.558 201.837 253.701V253.701Z" fill="#3F3D56"/>
<path opacity="0.2" d="M202.052 247.173C202.146 244.219 200.392 241.766 198.135 241.694C195.878 241.623 193.973 243.96 193.88 246.915C193.787 249.87 195.54 252.323 197.797 252.394C200.054 252.466 201.959 250.128 202.052 247.173Z" fill="#3F3D56"/>
<path opacity="0.2" d="M202.261 240.632C202.354 237.677 200.601 235.224 198.344 235.153C196.087 235.082 194.182 237.419 194.089 240.374C193.995 243.328 195.749 245.781 198.006 245.853C200.262 245.924 202.168 243.587 202.261 240.632Z" fill="#3F3D56"/>
<path opacity="0.2" d="M202.464 234.091C202.558 231.137 200.804 228.683 198.547 228.612C196.291 228.541 194.385 230.878 194.292 233.833C194.199 236.788 195.952 239.241 198.209 239.312C200.466 239.384 202.371 237.046 202.464 234.091Z" fill="#3F3D56"/>
<path opacity="0.2" d="M202.668 227.55C202.761 224.595 201.007 222.142 198.751 222.071C196.494 222 194.589 224.337 194.495 227.292C194.402 230.247 196.156 232.7 198.412 232.771C200.669 232.843 202.574 230.505 202.668 227.55Z" fill="#3F3D56"/>
<path opacity="0.2" d="M184.682 182.163C184.144 181.434 183.658 180.668 183.23 179.871L194.027 178.445L182.405 178.167C181.367 175.706 180.843 173.061 180.863 170.391C180.884 167.721 181.448 165.084 182.523 162.64L197.851 171.217L183.811 160.198C185.227 157.907 187.101 155.933 189.314 154.399C191.528 152.864 194.034 151.803 196.677 151.281C199.319 150.759 202.041 150.787 204.672 151.364C207.302 151.941 209.786 153.054 211.968 154.634C214.149 156.214 215.981 158.227 217.35 160.546C218.718 162.866 219.594 165.443 219.922 168.117C220.249 170.79 220.022 173.502 219.255 176.084C218.487 178.666 217.196 181.062 215.461 183.122C216.298 184.255 217.009 185.476 217.581 186.763L203.41 193.564L218.437 189.044C219.383 192.166 219.536 195.475 218.881 198.672C218.226 201.868 216.784 204.85 214.685 207.348C216.867 210.308 218.172 213.823 218.45 217.489C218.728 221.156 217.969 224.826 216.26 228.082C214.55 231.337 211.959 234.046 208.782 235.898C205.605 237.75 201.972 238.671 198.296 238.555C194.621 238.439 191.053 237.291 187.999 235.243C184.945 233.194 182.53 230.328 181.029 226.971C179.527 223.614 179.001 219.903 179.51 216.261C180.019 212.62 181.542 209.195 183.906 206.378C181.3 202.841 179.958 198.53 180.097 194.138C180.235 189.747 181.846 185.529 184.67 182.163H184.682Z" fill="#D20608"/>
<path opacity="0.1" d="M219.27 195.375C219.136 199.769 217.52 203.989 214.685 207.349C216.867 210.309 218.171 213.823 218.45 217.489C218.728 221.156 217.969 224.827 216.259 228.082C214.55 231.338 211.959 234.046 208.782 235.898C205.605 237.75 201.972 238.671 198.296 238.555C194.621 238.439 191.053 237.292 187.999 235.243C184.945 233.195 182.53 230.328 181.029 226.971C179.527 223.615 179.001 219.903 179.51 216.262C180.019 212.62 181.542 209.195 183.906 206.378C181.396 202.967 219.339 193.178 219.27 195.375Z" fill="black"/>
</g>
<g opacity="0.2">
<path opacity="0.2" d="M360.47 257.88C360.44 258.661 360.347 259.438 360.191 260.203C355.071 259.386 349.914 258.655 344.721 258.01C344.721 257.804 344.721 257.594 344.721 257.38C344.769 255.173 345.405 253.02 346.562 251.141C348.091 248.745 350.383 247.243 352.916 247.32C355.449 247.396 357.654 249.043 359.029 251.523C360.066 253.476 360.564 255.671 360.47 257.88V257.88Z" fill="#3F3D56"/>
<path opacity="0.2" d="M360.883 245.301C361.063 239.611 357.685 234.887 353.339 234.75C348.992 234.612 345.323 239.114 345.143 244.804C344.963 250.494 348.341 255.218 352.687 255.355C357.034 255.493 360.704 250.991 360.883 245.301Z" fill="#3F3D56"/>
<path opacity="0.2" d="M361.282 232.708C361.461 227.018 358.084 222.294 353.737 222.157C349.39 222.019 345.721 226.521 345.541 232.211C345.361 237.901 348.739 242.625 353.086 242.763C357.432 242.9 361.102 238.398 361.282 232.708Z" fill="#3F3D56"/>
<path opacity="0.2" d="M361.683 220.116C361.862 214.425 358.484 209.701 354.138 209.564C349.791 209.427 346.122 213.928 345.942 219.618C345.762 225.308 349.14 230.032 353.487 230.17C357.833 230.307 361.503 225.806 361.683 220.116Z" fill="#3F3D56"/>
<path opacity="0.2" d="M361.63 206.95C361.801 201.257 358.414 196.536 354.065 196.405C349.716 196.275 346.052 200.784 345.882 206.477C345.711 212.17 349.098 216.891 353.447 217.022C357.796 217.152 361.46 212.643 361.63 206.95Z" fill="#3F3D56"/>
<path opacity="0.2" d="M327.438 120.162C326.407 118.76 325.474 117.288 324.645 115.757L345.429 113.014L323.06 112.475C321.062 107.739 320.051 102.646 320.089 97.506C320.127 92.3662 321.213 87.2882 323.281 82.5826L352.796 99.0915L325.769 77.8795C328.501 73.4796 332.111 69.6898 336.373 66.7462C340.634 63.8025 345.456 61.7681 350.539 60.7698C355.621 59.7715 360.854 59.8306 365.913 60.9435C370.971 62.0564 375.746 64.1992 379.94 67.2384C384.134 70.2776 387.657 74.148 390.29 78.6085C392.923 83.0689 394.608 88.0238 395.242 93.1643C395.876 98.3048 395.444 103.521 393.974 108.487C392.503 113.453 390.026 118.064 386.696 122.03C388.305 124.214 389.675 126.564 390.78 129.041L363.497 142.142L392.423 133.431C394.246 139.435 394.543 145.799 393.287 151.946C392.03 158.094 389.261 163.831 385.229 168.638C389.428 174.337 391.939 181.102 392.474 188.16C393.009 195.218 391.548 202.284 388.256 208.551C384.965 214.818 379.977 220.032 373.861 223.597C367.746 227.162 360.751 228.934 353.676 228.711C346.602 228.488 339.732 226.279 333.854 222.335C327.975 218.392 323.325 212.874 320.435 206.413C317.545 199.951 316.531 192.807 317.51 185.796C318.489 178.786 321.421 172.192 325.971 166.77C320.956 159.96 318.375 151.663 318.641 143.21C318.907 134.758 322.005 126.639 327.438 120.158V120.162Z" fill="#D20608"/>
<path opacity="0.1" d="M394.031 145.592C393.78 154.047 390.684 162.169 385.244 168.646C389.443 174.344 391.953 181.109 392.489 188.167C393.024 195.226 391.563 202.292 388.271 208.559C384.98 214.825 379.991 220.039 373.876 223.604C367.761 227.169 360.766 228.942 353.691 228.719C346.616 228.496 339.746 226.286 333.868 222.343C327.989 218.4 323.339 212.882 320.449 206.42C317.559 199.959 316.545 192.814 317.524 185.804C318.503 178.794 321.435 172.2 325.985 166.778C321.118 160.202 394.165 141.363 394.031 145.592Z" fill="black"/>
</g>
<path d="M60.2957 258.553L64.3035 258.541H69.9542L77.0987 142.479L147.853 24.4099L144.777 21.1089V12.7494L68.2578 139.743L60.2957 258.553Z" fill="#F1C0C0"/>
<path opacity="0.1" d="M64.7341 258.541H69.9569L77.1015 142.478L147.855 24.4099L144.78 21.1089L71.7985 140.71L64.7341 258.541Z" fill="black"/>
<path d="M48.4883 259.519L231.821 273.549L231.977 273.56L409.403 262.648L409.537 262.641V255.148L214.036 251.561L50.9297 251.404H49.7376L49.6077 252.245L48.4883 259.519Z" fill="#F1C0C0"/>
<path opacity="0.1" d="M48.4883 259.519L231.821 273.549L231.977 273.56L409.403 262.648L409.537 262.503V255.305H409.38L231.821 261.235L50.9297 251.404H50.9029L50.582 251.614L49.6077 252.245L48.4883 259.519Z" fill="black"/>
<path opacity="0.1" d="M48.4883 259.519L231.82 273.549V261.235L50.582 251.614L49.6077 252.245L48.4883 259.519Z" fill="black"/>
<path d="M144.756 20.9523L225.581 107.703L223.082 260.299L229.948 261.128L230.063 261.143H236.928L237.75 114.256L389.096 164.81L391.648 254.824L397.173 255.443L399.045 255.653L394.712 158.567L236.5 103.023L149.749 12.8373H144.756V20.9523Z" fill="#F1C0C0"/>
<path opacity="0.1" d="M237.129 111.447L237.752 114.256L389.098 164.81L391.65 254.824L397.175 255.443L392.842 162.938L237.129 111.447Z" fill="black"/>
<path opacity="0.1" d="M144.756 20.9523L225.582 107.703L223.083 260.299L229.949 261.128L231.821 102.71L144.756 12.8373V20.9523Z" fill="black"/>
<path d="M237.423 172.688L292.932 183.619L292.951 183.623L390.174 202.775L394.625 200.991L394.61 200.678L394.319 194.469L237.48 162.777L237.423 172.688Z" fill="#F1C0C0"/>
<path opacity="0.1" d="M292.95 183.622L390.174 202.775L394.625 200.991L394.609 200.678L292.95 183.622Z" fill="black"/>
<path d="M296.667 133.936L298.168 216.591L298.944 258.996L305.779 258.767L310.081 258.621L308.743 135.131L305.779 134.146L305.129 133.936H296.667Z" fill="#F1C0C0"/>
<path opacity="0.1" d="M296.73 133.916V133.936L298.17 216.591L298.946 258.996L305.78 258.767V133.916H296.73Z" fill="black"/>
<path d="M189.602 155.045C190.003 155.262 190.386 155.512 190.748 155.79C191.176 156.164 191.561 156.586 191.895 157.047C193.534 159.167 195.046 161.631 194.886 164.306C194.889 164.695 194.816 165.081 194.67 165.441C194.524 165.802 194.307 166.13 194.034 166.407C193.358 166.984 192.387 167.011 191.501 167.011C190.538 167.011 189.526 167.011 188.693 166.514C187.86 166.017 187.165 165.051 186.179 165.074C186.04 165.097 185.898 165.097 185.759 165.074C185.419 164.963 185.35 164.516 185.128 164.233C184.746 163.725 183.94 163.851 183.34 164.073C182.74 164.294 182.076 164.627 181.484 164.371C181.14 164.189 180.859 163.908 180.677 163.565C179.26 161.272 178.958 158.517 178.691 155.854C178.526 154.235 177.273 148.71 180.731 149.967C182.259 150.517 183.688 151.617 185.079 152.424L189.602 155.045Z" fill="#3F3D56"/>
<path d="M186.186 155.591C186.494 155.813 186.869 155.925 187.249 155.91C187.629 155.895 187.993 155.753 188.283 155.507C188.852 154.993 189.215 154.289 189.303 153.528C189.685 153.409 189.88 153.91 190.125 154.215C190.553 154.735 191.424 154.727 191.813 155.281C192.085 155.663 192.023 156.194 192.215 156.626C192.463 157.184 193.078 157.474 193.498 157.925C193.895 158.418 194.182 158.99 194.339 159.602L194.965 161.482C195.265 162.264 195.458 163.082 195.538 163.916C195.578 164.332 195.534 164.753 195.409 165.152C195.285 165.552 195.082 165.922 194.813 166.242C193.972 167.148 192.593 167.243 191.374 167.217C190.967 167.225 190.561 167.178 190.167 167.075C189.085 166.739 188.394 165.65 188.107 164.554C187.821 163.457 187.851 162.307 187.683 161.184C187.502 160.081 187.181 159.005 186.728 157.982C186.392 157.188 185.467 156.003 185.483 155.159C185.758 155.159 185.956 155.411 186.186 155.591Z" fill="#3F3D56"/>
<path d="M187.557 151.721C187.379 151.178 187.275 150.614 187.248 150.043C187.248 148.897 187.771 147.82 188.298 146.796L183.932 147.388C183.404 147.461 182.816 147.568 182.518 148.007C182.405 148.225 182.346 148.466 182.346 148.712C182.346 148.957 182.405 149.199 182.518 149.417C182.737 149.853 182.911 150.31 183.038 150.781C183.047 151.193 183.095 151.603 183.179 152.007C183.315 152.304 183.505 152.572 183.741 152.798C184.99 154.181 185.926 155.812 186.858 157.429C186.831 157.383 189.49 155.323 189.383 154.651C189.322 154.269 188.554 153.81 188.31 153.444C187.972 152.911 187.718 152.33 187.557 151.721V151.721Z" fill="#BE6F72"/>
<path d="M224.999 136.793V140.557L160.556 153.127L157.213 155.151H145.679V153.031L208.994 137.733L224.999 136.793Z" fill="#F1C0C0"/>
<path opacity="0.1" d="M224.999 140.557L160.556 153.127L157.213 155.151H145.679L209.464 141.5L224.999 140.557Z" fill="black"/>
<path d="M173.262 243.625C172.544 242.756 171.553 242.155 170.45 241.921C169.347 241.686 168.197 241.832 167.187 242.334C166.971 242.436 166.78 242.585 166.629 242.77C166.247 243.305 166.492 244.042 166.526 244.703C166.614 246.315 165.33 247.626 164.176 248.753C163.557 249.356 162.927 250.002 162.648 250.823C162.369 251.645 162.575 252.688 163.324 253.116C163.651 253.279 164.007 253.378 164.371 253.406C165.592 253.644 166.845 253.679 168.077 253.509C169.296 253.276 170.492 252.585 171.019 251.461C171.121 251.157 171.289 250.879 171.512 250.648C172.184 250.116 173.216 250.739 173.98 250.361C174.611 250.048 174.637 249.555 174.645 248.905C174.668 247.11 174.4 245.077 173.262 243.625Z" fill="#D20608"/>
<path d="M182.432 243.557C182.902 244.795 182.967 246.143 183.028 247.465C183.062 248.229 183.085 249.047 182.673 249.693C182.26 250.338 181.454 250.679 180.682 250.839C179.089 251.168 177.243 250.858 176.216 249.593C175.429 248.627 175.264 247.301 175.41 246.048C175.532 245.02 175.792 243.817 175.054 243.087C174.863 242.892 174.615 242.754 174.439 242.544C174.057 242.078 174.118 241.375 174.324 240.802C174.593 240.254 174.795 239.675 174.924 239.079C174.955 238.796 180.097 239.278 180.571 239.511C181.217 239.828 181.118 240.359 181.312 241.001C181.584 241.895 182.103 242.701 182.432 243.557Z" fill="#D20608"/>
<path d="M183.372 188.67C184.381 189.323 184.77 190.607 184.927 191.799C185.359 195.065 184.602 198.367 184.545 201.664C184.491 206.283 185.829 210.986 184.686 215.46C184.002 218.135 184.583 221.191 183.941 223.892C183.75 224.695 183.399 225.451 183.215 226.253C182.833 227.992 183.234 229.811 183.773 231.511C183.945 231.969 184.054 232.448 184.098 232.936C184.072 233.686 183.882 234.422 183.54 235.091L181.248 240.512C180.992 241.12 179.983 241.219 179.337 241.299C178.122 241.444 176.766 241.548 175.799 240.795C174.833 240.042 174.6 238.781 174.451 237.605C174.165 235.346 174.037 233.069 174.069 230.792C174.111 230.198 174.058 229.601 173.912 229.023C173.702 228.37 173.24 227.805 173.114 227.113C172.953 226.219 173.408 225.34 173.576 224.439C173.691 223.615 173.678 222.779 173.538 221.959C173.389 220.736 173.217 219.514 173.022 218.299C172.747 216.599 173.14 214.921 173.404 213.217C173.652 211.617 173.335 209.985 173.022 208.396C173.049 209.686 172.888 210.973 172.544 212.216C172.342 212.824 172.051 213.405 171.876 214.024C171.092 216.801 172.762 219.716 172.525 222.593C172.414 223.938 171.887 225.268 172.036 226.594C172.139 227.564 172.59 228.454 172.9 229.379C173.209 230.303 173.37 231.362 172.9 232.225C171.658 234.571 172.586 237.761 173.698 240.168C173.924 240.595 174.12 241.037 174.286 241.49C174.615 242.575 174.34 243.741 174.428 244.872C174.108 244.924 173.78 244.903 173.47 244.809C173.159 244.716 172.874 244.553 172.636 244.333C172.468 244.157 172.33 243.951 172.166 243.767C171.707 243.33 171.164 242.991 170.569 242.77C170.22 242.575 169.822 242.483 169.423 242.507C169.003 242.624 168.625 242.858 168.334 243.183C167.956 243.515 167.555 243.82 167.134 244.096C166.955 244.234 166.745 244.327 166.523 244.367C166.411 244.384 166.297 244.366 166.196 244.315C166.095 244.263 166.013 244.181 165.961 244.081C165.937 244.017 165.923 243.95 165.919 243.882C165.777 242.728 165.702 241.567 165.694 240.405C165.694 238.407 163.302 237.032 163 235.056C162.76 233.463 163.207 231.839 163.058 230.235C162.985 229.409 162.756 228.599 162.771 227.774C162.771 227.239 162.893 226.716 162.935 226.185C162.97 225.595 162.961 225.004 162.909 224.416L162.79 222.57C162.676 220.748 162.55 218.887 161.831 217.221C160.979 215.276 160.475 213.197 160.341 211.078C160.265 209.741 160.314 208.403 160.162 207.062C160.024 205.851 159.718 204.648 159.806 203.433C159.879 202.493 160.188 201.584 160.261 200.644C160.41 198.836 159.722 197.079 159.184 195.348C158.645 193.617 158.247 191.699 158.954 190.03C159.055 189.756 159.223 189.511 159.443 189.319C159.714 189.14 160.023 189.025 160.345 188.983C166.9 187.606 173.619 187.178 180.296 187.711C181.385 187.772 182.441 188.102 183.372 188.67Z" fill="#3F3D56"/>
<path d="M161.687 148.091C165.067 148.091 167.808 145.351 167.808 141.97C167.808 138.59 165.067 135.85 161.687 135.85C158.307 135.85 155.566 138.59 155.566 141.97C155.566 145.351 158.307 148.091 161.687 148.091Z" fill="#BE6F72"/>
<path d="M160.501 149.615C160.589 149.965 160.589 150.331 160.501 150.681C160.405 150.926 160.269 151.153 160.1 151.354C159.507 152.118 158.852 152.831 158.14 153.486C158.503 154.296 159.155 154.94 159.97 155.293C160.779 155.637 161.627 155.88 162.495 156.015C162.929 156.129 163.38 156.16 163.825 156.107C164.235 156.004 164.623 155.827 164.971 155.587L168.372 153.551C168.885 153.273 169.36 152.93 169.785 152.53C170.409 151.889 170.762 151.033 170.771 150.139C170.787 149.979 170.743 149.818 170.649 149.688C170.518 149.574 170.355 149.506 170.183 149.493C168.987 149.229 168.043 148.259 167.508 147.159C167.025 146.031 166.712 144.837 166.58 143.617L162.954 145.527C162.415 145.814 161.88 146.1 161.323 146.349C160.967 146.509 160.249 146.643 159.997 146.968C159.515 147.568 160.375 148.893 160.501 149.615Z" fill="#BE6F72"/>
<path d="M158.162 152.374C157.646 152.797 157.243 153.342 156.989 153.959C156.752 154.724 156.989 155.53 157.203 156.286C158.206 159.511 158.972 162.804 159.495 166.14C159.816 168.432 159.935 170.759 160.091 173.078C160.412 177.808 160.878 185.35 161.501 190.049C163.794 190.152 166.029 189.484 168.302 189.239C172.55 188.788 176.925 189.82 181.086 188.857C180.077 184.872 179.068 178.068 178.06 174.087C177.613 172.518 177.304 170.914 177.135 169.292C177.047 168.126 177.101 166.957 177.116 165.784C177.15 163.492 177.024 161.2 176.898 158.907C176.753 156.233 176.608 153.558 175.974 150.941C175.929 150.608 175.773 150.299 175.53 150.066C175.148 149.787 174.652 149.887 174.197 149.948C172.805 150.125 171.396 149.791 170.231 149.008C169.727 148.664 169.051 148.244 168.581 148.626C168.38 148.856 168.248 149.138 168.199 149.44C167.991 149.98 167.67 150.47 167.257 150.877C166.845 151.283 166.35 151.597 165.807 151.797C164.718 152.191 163.578 152.426 162.422 152.492C162.068 152.568 161.699 152.527 161.371 152.374C160.829 152.042 160.791 150.846 160.107 150.765C159.507 150.697 158.567 151.988 158.162 152.374Z" fill="#3F3D56"/>
<path d="M167.201 161.704C165.791 160.355 165.172 158.399 164.144 156.737C163.445 155.619 162.551 154.636 161.504 153.833C160.979 153.486 160.496 153.077 160.068 152.615C159.705 152.168 159.43 151.572 158.88 151.4C158.652 151.35 158.416 151.357 158.192 151.419C157.968 151.48 157.762 151.596 157.592 151.755C157.255 152.076 156.936 152.415 156.637 152.771C155.017 154.448 152.171 154.682 150.887 156.622C150.541 157.034 150.305 157.527 150.203 158.055C149.833 160.88 150.564 163.739 152.243 166.04C152.568 166.574 153.068 166.978 153.657 167.186C153.577 167.899 153.671 168.62 153.932 169.288C154.639 171.706 155.509 174.074 156.534 176.375C156.289 177.275 156.117 178.194 156.022 179.122C155.754 181.456 156.003 183.825 155.751 186.163C155.544 188.074 154.986 189.934 154.967 191.848C154.967 192.154 154.994 192.517 155.258 192.674C155.398 192.746 155.555 192.779 155.712 192.769L160.412 192.911C163.14 192.991 165.894 193.071 168.58 192.567C168.938 192.514 169.285 192.404 169.608 192.242C170.517 191.734 170.819 190.588 170.964 189.568C171.154 188.244 171.229 186.907 171.19 185.571C171.759 187.371 172.435 189.231 174.155 190.011C175.064 190.423 176.103 190.393 177.1 190.366C179.249 190.27 181.391 190.05 183.515 189.705C183.646 189.721 183.779 189.707 183.903 189.662C184.027 189.618 184.139 189.545 184.23 189.45C184.321 189.354 184.389 189.239 184.427 189.113C184.465 188.987 184.474 188.853 184.451 188.723L184.474 186.637C184.52 182.4 183.469 178.35 183.06 174.132C182.93 172.803 182.942 171.458 182.617 170.155C182.483 169.609 182.289 169.074 182.17 168.524C182.068 167.985 182.004 167.44 181.979 166.892L181.681 162.69C181.54 160.745 181.337 158.869 181.188 156.928C181.106 155.038 180.832 153.161 180.371 151.327C180.038 150.181 179.347 148.882 178.151 148.74C177.513 148.668 176.894 148.947 176.286 149.142C174.793 149.612 173.191 149.605 171.702 149.123C171.242 148.941 170.762 148.813 170.273 148.74C170.026 148.707 169.776 148.74 169.546 148.835C169.316 148.93 169.116 149.085 168.966 149.283C168.818 149.581 168.748 149.913 168.764 150.246C168.584 154.063 168.252 157.994 167.201 161.704Z" fill="#D20608"/>
<path d="M161.056 161.818C159.295 159.961 157.488 158.07 155.218 156.89C154.324 156.423 153.308 156.072 152.318 156.248C151.329 156.423 150.408 157.283 150.454 158.288C150.484 158.911 150.863 159.461 150.981 160.072C151.119 160.76 150.92 161.493 151.134 162.158C151.308 162.596 151.568 162.995 151.898 163.331L154.603 166.537C155.749 167.874 156.895 169.23 158.37 170.155C159.845 171.08 161.755 171.511 163.375 170.854C164.528 170.318 165.486 169.439 166.118 168.336C166.791 167.266 167.264 166.097 167.895 164.993C168.876 163.229 170.171 161.658 171.715 160.359C170.921 160.152 169.924 159.862 169.423 159.213C169.281 159.006 169.159 158.786 169.06 158.555L168.441 157.218C168.231 157.207 168.02 157.24 167.823 157.314C167.626 157.388 167.446 157.503 167.295 157.65C167.03 157.957 166.745 158.246 166.443 158.517C165.904 158.922 165.175 159.033 164.686 159.495C164.496 159.694 164.325 159.908 164.174 160.137C163.804 160.623 163.334 161.025 162.797 161.315C162.259 161.605 161.665 161.776 161.056 161.818V161.818Z" fill="#3F3D56"/>
<path d="M171.855 153.83C173.181 151.411 173.12 148.511 173.498 145.78C173.539 145.056 173.793 144.361 174.228 143.781C174.992 142.918 176.341 142.906 177.495 143.017C177.835 143.055 178.259 143.216 178.24 143.556C178.213 143.678 178.153 143.79 178.068 143.881C176.949 145.324 176.292 147.071 176.18 148.893C176.78 149.31 177.709 148.454 178.285 148.893C178.668 149.214 178.492 149.849 178.263 150.307C177.73 151.369 177.181 152.424 176.616 153.47C176.164 154.393 175.576 155.242 174.87 155.988C174.385 156.454 173.815 156.821 173.322 157.28C172.176 158.353 171.485 159.87 170.3 160.917C170.2 161.025 170.065 161.094 169.918 161.112C169.767 161.101 169.625 161.037 169.517 160.932C168.925 160.451 168.434 159.858 168.073 159.186C167.622 158.353 167.691 158.109 168.401 157.52C169.731 156.47 171.026 155.343 171.855 153.83Z" fill="#BE6F72"/>
<path d="M158.839 160.176C159.069 160.317 159.351 160.478 159.604 160.359C159.707 160.297 159.794 160.212 159.86 160.111C160.296 159.528 160.661 158.894 160.945 158.223C160.993 158.129 161.021 158.024 161.025 157.918C161.025 157.673 160.807 157.494 160.605 157.352C159.52 156.661 158.353 156.106 157.132 155.702C156.123 155.32 155.068 154.987 153.999 155.083C153.597 155.11 153.204 155.218 152.845 155.4C152.486 155.583 152.168 155.836 151.909 156.145C151.145 157.127 152.425 157.425 153.227 157.78C155.084 158.625 157.093 159.114 158.839 160.176Z" fill="#D20608"/>
<path opacity="0.1" d="M157.635 166.671C157.622 166.758 157.63 166.847 157.658 166.931C157.686 167.014 157.733 167.09 157.795 167.152C157.906 166.61 157.761 166.036 157.876 165.49C158.044 164.669 158.842 164.05 158.911 163.224C157.448 162.938 157.646 165.784 157.635 166.671Z" fill="black"/>
<path opacity="0.2" d="M225 136.793V140.557L209.466 141.5L208.996 137.733L225 136.793Z" fill="black"/>
<path d="M156.175 142.88C157.146 142.089 156.584 140.431 157.241 139.368C157.624 138.788 158.269 138.482 158.903 138.222C159.669 137.864 160.489 137.637 161.33 137.55C161.751 137.509 162.175 137.564 162.572 137.71C162.969 137.857 163.328 138.09 163.622 138.394C163.87 138.677 164.039 139.021 164.272 139.315C164.56 139.658 164.936 139.917 165.36 140.063C165.784 140.21 166.24 140.239 166.679 140.148C167.187 140.033 167.714 139.647 167.68 139.128C167.622 138.812 167.461 138.524 167.221 138.31L166.128 137.099C164.887 135.724 163.507 134.264 161.685 133.92C160.416 133.68 159.117 134.02 157.895 134.428C157.402 134.593 156.848 134.837 156.71 135.338C156.619 135.682 156.756 136.056 156.676 136.404C156.519 137.095 155.633 137.328 155.22 137.909C154.808 138.49 154.934 139.177 154.815 139.819C154.697 140.461 154.353 141.088 154.311 141.752C154.284 142.154 154.487 142.899 154.938 143.044C155.388 143.189 155.897 142.402 156.175 142.88Z" fill="#3F3D56"/>
<path d="M167.31 138.578C166.988 136.897 166.293 135.309 165.277 133.932C164.374 132.645 163.117 131.647 161.659 131.059C160.93 130.774 160.146 130.658 159.366 130.719C158.586 130.781 157.83 131.018 157.154 131.414C156.152 132.129 155.372 133.113 154.904 134.253C153.914 136.385 153.548 138.99 154.698 141.038C155.156 140.48 155.943 140.732 156.639 140.53C157.51 140.282 158.247 139.701 159.076 139.338C161.579 138.234 164.635 139.128 167.31 138.578Z" fill="#FED253"/>
<path opacity="0.1" d="M155.283 138.459C155.195 137.771 155.138 136.973 155.627 136.484C155.651 136.454 155.682 136.43 155.718 136.414C155.753 136.398 155.791 136.391 155.83 136.392C155.864 136.403 155.895 136.421 155.922 136.445C155.949 136.468 155.971 136.497 155.986 136.53C156.269 136.975 156.509 137.446 156.705 137.936C156.42 137.87 156.122 137.891 155.849 137.997C155.577 138.102 155.342 138.287 155.176 138.528" fill="black"/>
<path opacity="0.1" d="M164.211 136.518L164.073 135.154C164.051 135.042 164.06 134.926 164.1 134.818C164.158 134.728 164.246 134.663 164.349 134.635C164.453 134.606 164.562 134.617 164.658 134.665C164.846 134.769 165.001 134.924 165.105 135.112C165.423 135.601 165.686 136.122 165.892 136.667C165.276 136.549 164.643 136.557 164.031 136.69" fill="black"/>
<path opacity="0.1" d="M167.628 191.875V194.993L164.996 195.169H151.15V191.875H167.628Z" fill="black"/>
<path d="M167.63 191.875V195.169H151.151L107.375 140.331V137.741H116.552L167.63 191.875Z" fill="#F1C0C0"/>
<path opacity="0.1" d="M167.63 191.875V195.169H151.151L107.375 140.331V137.741H116.552L167.63 191.875Z" fill="black"/>
<path opacity="0.1" d="M167.63 191.875V195.169H151.151L107.375 140.331V137.741L151.388 191.875H167.63Z" fill="black"/>
<path d="M113.112 246.839C113.141 246.994 113.137 247.153 113.102 247.307C113.066 247.46 113 247.605 112.906 247.731C112.812 247.858 112.693 247.964 112.556 248.042C112.419 248.121 112.268 248.17 112.111 248.187C111.049 248.547 109.922 248.902 109.169 249.716C108.417 250.53 108.268 252.039 109.169 252.7C109.63 252.978 110.159 253.122 110.697 253.116C112.428 253.235 114.232 253.212 115.802 252.478C116.925 251.959 117.983 251.072 119.217 251.152C119.856 251.191 120.536 251.489 121.105 251.198C121.674 250.908 121.835 250.098 121.838 249.422C121.853 248.01 121.64 246.605 121.208 245.261C121.151 245.077 118.721 244.936 118.43 244.879L115.485 244.497C114.927 244.424 113.723 244.004 113.284 244.47C112.845 244.936 113.112 246.285 113.112 246.839Z" fill="#D20608"/>
<path d="M130.691 237.302C130.816 237.99 131.018 238.662 131.295 239.304C131.703 240.343 132.227 241.447 133.228 241.952C134.137 242.406 135.253 242.242 136.177 241.81C136.563 241.651 136.901 241.394 137.159 241.065C137.457 240.546 137.591 239.947 137.541 239.35C137.541 237.871 137.453 236.343 136.777 235.029C136.196 233.883 135.184 232.897 135.169 231.629L131.688 232.301C131.502 232.319 131.324 232.389 131.176 232.504C131.066 232.62 130.989 232.764 130.955 232.92C130.583 234.35 130.493 235.838 130.691 237.302V237.302Z" fill="#D20608"/>
<path d="M89.126 201.006C88.9808 202.237 89.0419 203.555 89.6838 204.617C90.3257 205.679 91.6782 206.382 92.8473 205.958C92.9072 205.942 92.9634 205.915 93.0126 205.878C93.0618 205.84 93.103 205.793 93.1338 205.74C93.1649 205.611 93.1472 205.475 93.0841 205.358C92.568 203.98 92.6105 202.456 93.2026 201.11C93.279 200.934 93.4433 200.727 93.6229 200.796C93.698 200.834 93.7584 200.896 93.7948 200.972C93.9797 201.292 94.0723 201.657 94.0622 202.026C94.0083 202.361 93.998 202.701 94.0317 203.039C94.1042 203.367 94.4557 203.677 94.7614 203.535C94.8497 203.481 94.9261 203.41 94.9859 203.325C95.0457 203.24 95.0876 203.144 95.1091 203.043C95.9611 200.579 95.5752 197.885 95.1855 195.306C95.1887 195.247 95.1789 195.188 95.1568 195.133C95.1347 195.078 95.1007 195.028 95.0573 194.988C95.014 194.948 94.9623 194.917 94.9058 194.899C94.8494 194.881 94.7897 194.875 94.7308 194.882C92.9275 194.703 91.9418 194.271 90.9102 195.948C90.0238 197.362 89.126 199.306 89.126 201.006Z" fill="#D20608"/>
<path d="M110.208 194.737C109.673 196.961 109.134 199.211 109.1 201.496C109.109 202.919 109.216 204.34 109.421 205.748L109.822 209.057C109.96 210.172 110.093 211.284 110.288 212.388C110.412 212.957 110.48 213.537 110.491 214.119C110.453 214.693 110.362 215.262 110.219 215.819C109.979 216.989 109.845 218.178 109.818 219.372C109.776 221.283 110.013 223.193 110.162 225.103C110.459 228.91 110.415 232.736 110.028 236.535C109.874 237.56 110.097 238.607 110.655 239.48C110.881 239.756 111.068 240.062 111.209 240.39C111.495 241.265 110.827 242.14 110.655 243.037C110.545 243.738 110.717 244.453 111.134 245.026C111.551 245.599 112.178 245.983 112.878 246.094C115.935 246.457 119.076 246.293 121.83 247.691C122.121 246.843 121.486 245.88 121.777 245.017C121.96 244.482 122.464 244.134 122.808 243.683C123.27 242.996 123.501 242.18 123.465 241.353C123.479 240.273 123.287 239.201 122.9 238.193C122.575 237.352 122.109 236.523 122.136 235.622C122.136 235.178 122.293 234.712 122.113 234.303C121.99 234.069 121.822 233.86 121.62 233.688C120.478 232.437 119.777 230.848 119.622 229.161C119.473 227.487 119.527 225.801 119.782 224.141C119.97 222.559 120.222 220.889 121.227 219.655C120.761 215.913 121.035 212.116 122.033 208.48C122.132 208.144 122.289 207.754 122.633 207.674C122.769 207.66 122.907 207.679 123.035 207.729C123.162 207.78 123.276 207.86 123.366 207.964C123.966 208.526 124.253 209.339 124.512 210.119C124.799 210.963 125.089 211.865 124.871 212.728C124.78 213.11 124.596 213.447 124.489 213.813C124.257 214.55 124.298 215.347 124.604 216.056C124.753 216.315 124.847 216.603 124.879 216.9C124.844 217.156 124.766 217.404 124.65 217.634C124.508 218.086 124.463 218.563 124.518 219.034C124.572 219.504 124.725 219.958 124.967 220.366C125.454 221.177 126.055 221.914 126.751 222.555C126.419 224.021 126.505 225.552 127 226.972C127.035 227.036 127.058 227.106 127.067 227.179C127.075 227.252 127.069 227.325 127.049 227.396C126.98 227.541 126.805 227.594 126.667 227.698C126.285 228.011 126.522 228.603 126.778 229.012C127.48 230.134 128.254 231.209 129.097 232.229C129.861 233.142 129.792 234.903 130.931 235.232C131.409 235.335 131.904 235.335 132.383 235.232C133.506 235.06 134.759 234.735 135.309 233.742C135.535 233.333 135.627 232.836 135.978 232.531C136.33 232.225 136.784 232.172 136.979 231.805C137.174 231.438 136.956 230.957 137.021 230.533C137.086 230.108 137.457 229.768 137.575 229.321C137.858 228.29 136.654 227.442 136.49 226.387C136.253 224.859 138.179 223.713 138.099 222.184C137.93 218.864 137.823 215.529 137.652 212.209C137.436 209.235 137.405 206.25 137.56 203.272C137.694 201.419 137.942 199.478 137.262 197.755C136.284 195.325 133.586 193.961 130.977 193.702C128.367 193.442 125.765 194.061 123.179 194.466C118.886 195.127 114.525 195.218 110.208 194.737V194.737Z" fill="#3F3D56"/>
<path d="M117.964 158.219C121.345 158.219 124.085 155.479 124.085 152.099C124.085 148.718 121.345 145.978 117.964 145.978C114.584 145.978 111.844 148.718 111.844 152.099C111.844 155.479 114.584 158.219 117.964 158.219Z" fill="#FBBEBE"/>
<path d="M115.475 159.362C115.267 159.846 114.917 160.256 114.472 160.537C114.026 160.819 113.506 160.959 112.98 160.94C112.758 161.857 113.289 162.781 113.897 163.503C115.158 164.971 116.788 166.076 118.619 166.704C120.45 167.332 122.415 167.46 124.312 167.076C125.05 166.944 125.75 166.651 126.363 166.22C127.19 165.53 127.745 164.568 127.93 163.507C128.106 162.453 128.156 161.383 128.079 160.317C128.1 160.107 128.04 159.896 127.911 159.729C127.758 159.61 127.569 159.548 127.376 159.553C126.085 159.438 124.736 159.389 123.601 158.754C122.466 158.12 121.66 156.687 122.207 155.511C122.119 155.694 119.887 155.782 119.593 155.82C118.673 155.95 117.752 156.095 116.835 156.263C116.394 156.287 115.959 156.37 115.54 156.508C114.986 156.794 115.192 156.653 115.322 157.173C115.517 157.967 115.803 158.537 115.475 159.362Z" fill="#FBBEBE"/>
<path d="M120.13 163.083C119.306 163.093 118.484 163.001 117.681 162.812C116.871 162.623 116.157 162.146 115.672 161.471C115.389 161.043 115.206 160.504 114.755 160.263C114.017 159.881 113.177 160.527 112.589 161.119C112.053 161.703 111.432 162.203 110.747 162.602C109.929 163.033 108.974 163.186 108.202 163.694C107.6 164.15 107.082 164.709 106.674 165.345L101.26 172.719C99.0865 175.683 97.1953 178.866 95.2583 181.995C93.581 184.704 92.7023 187.822 91.4377 190.744C91.3375 190.923 91.2961 191.129 91.3193 191.333C91.3651 191.531 91.6058 191.692 91.7739 191.577C91.2046 192.143 91.7051 193.106 91.5714 193.9C91.4194 194.456 91.1023 194.953 90.6621 195.325C91.503 195.216 92.3568 195.256 93.1837 195.444C94.0383 195.686 94.8448 196.074 95.5678 196.59C96.03 196.517 95.988 195.696 96.3319 195.39C96.5382 195.211 96.8438 195.234 97.1151 195.18C98.1352 194.981 98.5402 193.755 99.3234 193.063C99.9767 192.487 100.901 192.299 101.593 191.757C102.716 190.874 102.957 189.304 103.545 188.001C104.046 186.897 104.833 185.934 105.272 184.803C105.559 184.07 105.696 183.275 106.105 182.599C106.758 181.506 107.989 180.925 109.161 180.402C109.903 180.07 110.69 179.726 111.488 179.779C111.446 181.556 111.221 183.306 111.607 185.04C111.74 185.651 111.928 186.247 112.088 186.855C112.818 189.591 112.99 192.441 113.024 195.26C114.779 194.859 116.572 194.644 118.373 194.618C119.79 194.576 121.204 194.76 122.621 194.733C124.302 194.703 125.964 194.378 127.645 194.263C129.327 194.149 131.084 194.263 132.57 195.027C132.45 192.606 132.517 190.179 132.773 187.768L133.178 183.97C133.269 182.867 133.439 181.772 133.686 180.692C133.907 179.821 134.228 178.981 134.473 178.113C135.333 175.057 135.176 171.794 135.012 168.612C134.928 166.976 134.297 165.368 133.556 163.912C133.288 163.371 132.981 162.851 132.639 162.353C131.743 161.119 130.55 160.132 129.169 159.484C127.789 158.836 126.267 158.548 124.746 158.647C124.551 158.653 124.36 158.695 124.18 158.77C123.858 158.976 123.606 159.276 123.458 159.629C122.668 161.05 121.521 162.24 120.13 163.083Z" fill="#3F3D56"/>
<path d="M112.58 154.127C112.752 153.745 113.214 153.604 113.497 153.298C114.039 152.718 113.795 151.789 113.879 151.006C114.017 149.86 114.968 148.901 116.057 148.492C117.167 148.136 118.349 148.061 119.495 148.274C120.047 148.315 120.58 148.492 121.046 148.79C121.245 148.935 121.428 149.122 121.616 149.256C121.957 149.462 122.365 149.527 122.754 149.437C123.142 149.346 123.479 149.107 123.694 148.771C122.341 147.143 120.844 145.424 118.788 144.924C118.083 144.78 117.365 144.712 116.645 144.721C115.694 144.702 114.712 144.687 113.833 145.05C112.637 145.543 111.797 146.677 111.365 147.9C110.988 149.139 110.786 150.425 110.765 151.72C110.687 152.585 110.687 153.454 110.765 154.318C110.913 155.499 111.351 156.624 112.041 157.593C112.135 157.743 112.267 157.866 112.423 157.948C114.166 158.712 112.439 154.445 112.58 154.127Z" fill="#3F3D56"/>
<path d="M123.497 147.827C123.287 146.028 122.003 144.542 120.639 143.346C119.54 142.309 118.23 141.521 116.799 141.034C115.359 140.61 113.701 140.702 112.467 141.562C111.473 142.253 110.843 143.353 110.358 144.461C109.72 145.769 109.405 147.21 109.437 148.664C109.533 150.108 110.236 151.572 111.489 152.301C111.94 151.637 112.723 151.293 113.475 151.022C116.756 149.777 120.101 148.711 123.497 147.827V147.827Z" fill="#FED253"/>
<path opacity="0.1" d="M111.908 147.079C112.03 147.079 112.11 147.205 112.171 147.308C112.482 147.792 112.749 148.304 112.97 148.836C112.523 148.932 111.755 149.039 111.533 148.645C111.415 148.446 111.556 147.059 111.908 147.079Z" fill="black"/>
<path opacity="0.1" d="M120.618 146.215C120.526 146.303 120.419 146.123 120.419 145.993V144.511C120.416 144.47 120.426 144.429 120.446 144.393C120.461 144.374 120.481 144.36 120.502 144.349C120.524 144.339 120.548 144.333 120.572 144.331C120.881 144.297 121.137 144.561 121.336 144.813C121.637 145.221 121.9 145.658 122.119 146.116L120.503 146.066" fill="black"/>
<path d="M140.788 170.762C141.14 170.429 141.515 170.121 141.911 169.842C142.97 169.135 144.249 168.856 145.438 168.405C146.626 167.954 147.833 167.225 148.296 166.04C148.527 165.3 148.602 164.519 148.517 163.748C148.528 163.425 148.471 163.103 148.349 162.804C148.204 162.54 147.997 162.314 147.745 162.147C146.133 160.955 143.971 160.859 141.969 160.982C137.555 161.255 133.228 162.335 129.204 164.168C128.991 164.238 128.805 164.372 128.669 164.55C128.591 164.716 128.555 164.898 128.566 165.081C128.495 166.208 128.641 167.338 128.998 168.409C129.525 169.769 130.61 170.866 131.065 172.253C131.271 172.875 131.34 173.536 131.519 174.163C131.666 174.81 132.049 175.379 132.593 175.76C134.102 176.661 135.527 175.45 136.574 174.51L140.788 170.762Z" fill="#3F3D56"/>
<path d="M121.022 176.054L119.085 171.828C118.801 171.243 118.556 170.639 118.352 170.021C118.13 169.284 118.023 168.52 117.817 167.779C117.137 165.31 115.421 163.255 114.584 160.837C114.532 160.618 114.424 160.417 114.271 160.252C114.149 160.166 114.009 160.107 113.862 160.081C113.715 160.054 113.564 160.061 113.419 160.099C112.25 160.302 111.337 161.192 110.267 161.696C109.77 161.925 109.236 162.078 108.739 162.342C108.491 162.459 108.271 162.629 108.094 162.84C107.917 163.05 107.788 163.296 107.715 163.561C107.596 164.145 107.887 164.707 108.131 165.276C109.171 167.622 109.407 170.243 109.453 172.81C109.488 174.537 109.4 176.39 108.38 177.777C106.42 180.452 107.673 184.379 108.406 187.615C108.494 187.997 108.597 188.41 108.659 188.815C108.723 189.322 108.753 189.832 108.746 190.343C108.746 192.059 108.651 193.827 107.933 195.382C108.642 195.76 109.423 195.981 110.225 196.032C112.444 196.315 114.671 196.513 116.907 196.628C117.608 196.694 118.315 196.658 119.005 196.521C119.825 196.299 120.547 195.811 121.059 195.133C121.57 194.455 121.841 193.626 121.828 192.777C121.951 193.835 122.176 194.985 122.944 195.719C123.712 196.452 124.831 196.563 125.874 196.62C128.818 196.776 131.77 196.693 134.7 196.372C134.887 196.364 135.071 196.321 135.243 196.246C135.808 195.963 135.839 195.184 135.793 194.557C135.709 193.384 135.621 192.211 135.479 191.046C135.36 190.303 135.298 189.552 135.296 188.8C135.354 188.025 135.482 187.258 135.678 186.507C136.19 184.123 136.595 181.689 136.423 179.248C136.355 178.653 136.331 178.054 136.351 177.456C136.45 176.107 137.161 174.824 137.027 173.483C136.645 169.54 136.335 165.494 135.235 161.689C135.036 161.008 134.784 160.279 134.192 159.889C133.428 159.377 132.354 159.645 131.479 159.32C131.069 159.129 130.678 158.897 130.314 158.628C129.522 158.133 128.615 157.854 127.682 157.818C126.979 157.792 126.195 157.948 125.771 158.514C125.575 158.832 125.445 159.187 125.389 159.557C124.835 161.887 124.186 164.191 123.536 166.495L122.913 168.703L121.244 174.633C121.08 175.263 121.19 175.458 121.022 176.054Z" fill="#D20608"/>
<path d="M130.791 152.92L167.748 191.757V195.05H151.269L123.497 158.804" fill="#F1C0C0"/>
<path opacity="0.1" d="M130.791 152.92L167.748 191.757V195.05H151.269L123.497 158.804" fill="black"/>
<path opacity="0.1" d="M124.086 158.292L124.204 158.334L151.506 191.757H167.748V195.05H151.269L123.497 158.804L124.086 158.292Z" fill="black"/>
<path d="M128.338 159.11C127.001 159.694 125.515 160.443 125.113 161.849C125.034 162.096 125.017 162.358 125.064 162.613C125.161 162.913 125.348 163.176 125.598 163.368C125.848 163.56 126.151 163.671 126.466 163.687C127.095 163.702 127.721 163.588 128.304 163.351L136.193 160.745C136.407 160.676 136.652 160.573 136.705 160.363C136.719 160.231 136.692 160.097 136.629 159.981C136.384 159.385 136.144 158.166 135.632 157.749C135.211 157.413 134.379 157.532 133.87 157.539C131.914 157.555 130.076 158.346 128.338 159.11Z" fill="#D20608"/>
<path d="M135.372 161.054C136.701 161.051 138.023 161.256 139.288 161.662C140.56 162.075 141.685 162.844 142.532 163.878C142.779 164.167 142.954 164.51 143.044 164.879C143.12 165.261 144.366 165.49 144.091 165.75C144.928 165.616 144.729 166.01 145.577 166.002C146.425 165.995 147.342 165.777 147.85 165.101C148.204 164.545 148.361 163.887 148.297 163.232C148.309 162.779 148.223 162.328 148.045 161.91C147.663 161.108 146.784 160.676 145.975 160.306L139.151 157.184C138.755 156.974 138.33 156.823 137.89 156.737C137.52 156.702 137.146 156.711 136.778 156.764L133.687 157.119C134.363 157.557 134.914 158.163 135.284 158.877C135.655 159.592 135.832 160.391 135.8 161.196" fill="#3F3D56"/>
</g>
<defs>
<clipPath id="clip0">
<rect width="450" height="276.792" fill="white"/>
</clipPath>
</defs>
</svg>
