<svg width="260" height="233" viewBox="0 0 260 233" fill="none" xmlns="http://www.w3.org/2000/svg">
<g clip-path="url(#clip0)">
<path d="M257.697 191.671C255.332 206.223 244.676 217.491 233.332 227.338C231.748 228.713 230.16 230.061 228.569 231.383C228.558 231.39 228.547 231.402 228.536 231.409C228.459 231.472 228.382 231.535 228.312 231.598C227.983 231.871 227.654 232.143 227.329 232.412L227.533 232.476L228.17 232.672C227.951 232.612 227.736 232.555 227.517 232.495C227.452 232.476 227.384 232.461 227.319 232.442C219.798 230.41 212.123 228.181 205.975 223.421C199.595 218.477 195.202 210.05 197.402 202.284C197.692 201.267 198.094 200.285 198.601 199.357C198.809 198.969 199.037 198.593 199.278 198.223C200.732 195.939 202.767 194.084 205.176 192.848C207.584 191.612 210.278 191.039 212.981 191.19C215.684 191.34 218.298 192.208 220.555 193.703C222.811 195.199 224.629 197.268 225.82 199.699C225.713 191.143 217.898 184.904 210.568 180.488C203.235 176.076 194.932 171.308 192.627 163.064C191.342 158.477 192.423 153.753 194.947 149.761C195.025 149.639 195.103 149.518 195.185 149.399C198.28 144.732 203.022 141.404 208.464 140.08C218.619 137.776 229.261 142.019 237.59 148.271C250.994 158.33 260.385 175.126 257.697 191.671Z" fill="#F2F2F2"/>
<path d="M236.16 175.596C238.502 178.429 240.418 181.589 241.849 184.975C243.078 188.008 243.848 191.207 244.132 194.467C244.749 201.165 243.478 207.934 240.945 214.132C238.974 218.837 236.416 223.274 233.332 227.338C231.748 228.713 230.16 230.062 228.569 231.383C228.558 231.39 228.547 231.402 228.536 231.409C228.459 231.472 228.383 231.535 228.312 231.598C227.983 231.871 227.655 232.143 227.329 232.412L227.533 232.476L228.17 232.672C227.951 232.612 227.736 232.555 227.517 232.495C227.452 232.476 227.384 232.461 227.319 232.442C227.329 227.093 226.057 221.82 223.609 217.064C221.161 212.309 217.609 208.209 213.25 205.109C208.889 202.064 203.869 200.093 198.602 199.357C198.809 198.969 199.038 198.593 199.278 198.223C201.316 198.539 203.323 199.035 205.274 199.704C212.246 202.078 218.269 206.633 222.45 212.696C226.211 218.206 228.321 224.675 228.534 231.342C228.797 231.04 229.059 230.731 229.313 230.426C234.154 224.689 238.295 218.274 240.763 211.148C242.921 205.105 243.56 198.624 242.624 192.276C241.522 185.363 237.983 179.263 233.304 174.145C228.293 168.667 222.276 164.011 215.979 160.108C209.529 156.102 202.612 152.9 195.384 150.574C195.221 150.52 195.084 150.406 195.003 150.255C194.922 150.103 194.902 149.927 194.947 149.761C194.976 149.614 195.061 149.484 195.185 149.399C195.249 149.362 195.322 149.339 195.396 149.334C195.47 149.328 195.545 149.339 195.614 149.366C196.507 149.654 197.394 149.948 198.277 150.26C205.628 152.856 212.629 156.356 219.117 160.678C225.383 164.841 231.4 169.735 236.16 175.596Z" fill="white"/>
<path d="M108.309 142.365C107.586 142.364 106.891 142.088 106.363 141.593C105.836 141.099 105.516 140.422 105.469 139.701L105.046 133.243C104.997 132.488 105.249 131.745 105.747 131.177C106.246 130.609 106.95 130.262 107.704 130.212L158.301 126.899C159.098 126.846 159.899 126.951 160.656 127.208C161.413 127.464 162.112 127.868 162.714 128.395C163.315 128.922 163.806 129.562 164.16 130.279C164.514 130.996 164.723 131.776 164.775 132.574C164.827 133.372 164.722 134.172 164.464 134.929C164.207 135.686 163.803 136.385 163.276 136.986C162.749 137.587 162.108 138.078 161.391 138.431C160.674 138.785 159.894 138.993 159.096 139.045L108.499 142.358C108.436 142.363 108.372 142.365 108.309 142.365Z" fill="#359D46"/>
<path d="M118.286 143.198C117.549 143.196 116.841 142.91 116.31 142.398C115.779 141.887 115.467 141.19 115.439 140.453L115.078 130.807C115.064 130.433 115.124 130.06 115.254 129.709C115.384 129.358 115.583 129.037 115.837 128.762C116.092 128.488 116.398 128.266 116.738 128.11C117.078 127.954 117.446 127.867 117.82 127.853L159.427 126.298C160.182 126.27 160.918 126.543 161.472 127.057C162.026 127.571 162.354 128.284 162.382 129.04L162.742 138.686C162.756 139.06 162.696 139.433 162.566 139.784C162.436 140.135 162.238 140.457 161.983 140.731C161.729 141.005 161.423 141.227 161.082 141.383C160.742 141.539 160.374 141.626 160 141.64L118.393 143.195C118.357 143.197 118.321 143.198 118.286 143.198Z" fill="#2F2E41"/>
<path d="M167.042 232.115H160.57C159.815 232.115 159.09 231.814 158.556 231.28C158.022 230.745 157.721 230.021 157.72 229.265V175.324C157.721 174.569 158.022 173.844 158.556 173.31C159.09 172.776 159.815 172.475 160.57 172.474H167.042C167.798 172.475 168.523 172.776 169.057 173.31C169.591 173.844 169.892 174.569 169.893 175.324V229.265C169.892 230.021 169.591 230.745 169.057 231.28C168.523 231.814 167.798 232.115 167.042 232.115Z" fill="#2F2E41"/>
<path d="M138.316 203.603L132.781 200.248C132.135 199.856 131.672 199.223 131.492 198.489C131.312 197.755 131.43 196.98 131.821 196.333L159.781 150.205C160.174 149.559 160.806 149.095 161.54 148.915C162.274 148.735 163.049 148.854 163.696 149.245L169.231 152.599C169.877 152.992 170.34 153.624 170.52 154.358C170.7 155.092 170.582 155.868 170.191 156.514L142.23 202.643C141.838 203.289 141.205 203.752 140.472 203.932C139.738 204.112 138.962 203.994 138.316 203.603V203.603Z" fill="#2F2E41"/>
<path d="M157.213 116.181C169.564 116.181 179.576 106.169 179.576 93.8178C179.576 81.4669 169.564 71.4546 157.213 71.4546C144.862 71.4546 134.85 81.4669 134.85 93.8178C134.85 106.169 144.862 116.181 157.213 116.181Z" fill="#359D46"/>
<path d="M145.108 101.453C144.389 101.217 143.728 100.829 143.171 100.316C142.802 99.9503 142.518 99.5078 142.337 99.0201C142.157 98.5324 142.086 98.0112 142.129 97.493C142.152 97.1238 142.261 96.7651 142.446 96.4447C142.631 96.1244 142.887 95.8512 143.195 95.6465C143.995 95.1335 145.065 95.132 146.154 95.6119L146.112 86.8816L146.989 86.8774L147.038 97.1408L146.362 96.7158C145.579 96.2237 144.46 95.8774 143.669 96.3847C143.474 96.5187 143.312 96.696 143.196 96.9028C143.08 97.1096 143.014 97.3403 143.002 97.5769C142.972 97.9629 143.026 98.3507 143.16 98.714C143.294 99.0773 143.504 99.4075 143.777 99.6821C144.745 100.607 146.158 100.896 147.769 101.155L147.63 102.021C146.774 101.907 145.93 101.717 145.108 101.453V101.453Z" fill="#2F2E41"/>
<path d="M137.072 86.4405L136.957 87.3098L141.64 87.9282L141.755 87.0589L137.072 86.4405Z" fill="#2F2E41"/>
<path d="M151.853 88.3919L151.738 89.2612L156.42 89.8796L156.535 89.0103L151.853 88.3919Z" fill="#2F2E41"/>
<path d="M175.886 189.797H138.176C137.188 189.796 136.24 189.403 135.541 188.704C134.843 188.005 134.45 187.058 134.448 186.07L142.343 125.529C142.349 124.545 142.745 123.604 143.443 122.911C144.141 122.218 145.085 121.829 146.069 121.83H159.451C164.797 121.836 169.922 123.962 173.701 127.742C177.481 131.522 179.607 136.647 179.613 141.992V186.07C179.612 187.058 179.219 188.005 178.52 188.704C177.822 189.403 176.874 189.796 175.886 189.797V189.797Z" fill="#2F2E41"/>
<path d="M166.39 186.569C166.161 187.07 165.792 187.493 165.328 187.788C164.863 188.084 164.324 188.239 163.773 188.234L157.302 188.178C156.927 188.175 156.557 188.098 156.213 187.952C155.868 187.806 155.556 187.593 155.294 187.326C155.031 187.059 154.824 186.743 154.684 186.396C154.544 186.049 154.473 185.678 154.476 185.303L154.916 134.6C154.923 133.801 155.087 133.011 155.4 132.275C155.712 131.54 156.166 130.873 156.736 130.312C157.306 129.752 157.981 129.31 158.722 129.01C159.463 128.711 160.255 128.56 161.055 128.567C161.854 128.574 162.644 128.738 163.38 129.051C164.115 129.363 164.782 129.817 165.343 130.387C165.903 130.957 166.345 131.632 166.645 132.373C166.944 133.114 167.095 133.907 167.088 134.706L166.648 185.409C166.645 185.81 166.557 186.205 166.39 186.569Z" fill="#359D46"/>
<path d="M169.249 173.034C169.02 173.534 168.651 173.957 168.187 174.253C167.722 174.548 167.183 174.703 166.632 174.699L155.578 174.603C154.823 174.595 154.101 174.289 153.571 173.75C153.042 173.211 152.747 172.484 152.753 171.728L153.114 130.094C153.117 129.719 153.194 129.349 153.34 129.005C153.487 128.66 153.699 128.348 153.966 128.085C154.233 127.823 154.549 127.616 154.896 127.476C155.243 127.335 155.615 127.265 155.989 127.268L167.043 127.364C167.417 127.367 167.787 127.444 168.132 127.59C168.476 127.737 168.789 127.949 169.051 128.216C169.313 128.483 169.52 128.799 169.661 129.146C169.801 129.493 169.871 129.865 169.868 130.239L169.507 171.873C169.504 172.274 169.416 172.67 169.249 173.034V173.034Z" fill="#2F2E41"/>
<path d="M157.631 80.5542C154.642 78.0803 150.645 80.4201 147.265 80.088C144.03 79.7703 141.427 76.9239 140.718 73.8608C139.89 70.2873 141.684 66.6572 144.386 64.3681C147.346 61.8608 151.32 61.0817 155.107 61.4632C159.447 61.9005 163.446 63.8438 167.046 66.2179C170.52 68.4365 173.725 71.0496 176.598 74.005C179.172 76.7417 181.372 80.0204 182.125 83.7546C182.81 87.1482 182.408 90.9308 180.45 93.8539C179.41 95.3528 178.002 96.5585 176.361 97.3548C174.651 98.2352 172.821 98.8762 171.167 99.8664C168.666 101.364 166.265 104.415 167.117 107.527C167.299 108.206 167.647 108.831 168.127 109.345C168.705 109.962 169.71 109.113 169.131 108.494C168.113 107.407 168.125 105.931 168.63 104.6C169.234 103.1 170.328 101.849 171.735 101.053C173.467 100.018 175.388 99.3639 177.165 98.4182C178.866 97.5528 180.334 96.289 181.442 94.7346C183.533 91.7095 184.101 87.8134 183.546 84.2298C182.945 80.3517 180.88 76.8566 178.32 73.9435C175.533 70.7731 172.134 68.1093 168.667 65.7241C164.948 63.1647 160.852 61.019 156.35 60.3003C152.448 59.6773 148.241 60.1864 144.881 62.3702C141.744 64.4087 139.375 67.8578 139.205 71.6647C139.151 73.3965 139.559 75.1113 140.388 76.6327C141.217 78.1542 142.436 79.4274 143.92 80.3212C145.442 81.1932 147.199 81.5653 148.944 81.385C150.81 81.2299 152.67 80.6223 154.553 80.7454C155.405 80.7809 156.222 81.0931 156.88 81.6347C157.533 82.1752 158.279 81.0903 157.631 80.5542V80.5542Z" fill="#2F2E41"/>
<path d="M131.335 197.113C131.343 197.063 131.352 197.014 131.363 196.965C131.441 196.598 131.591 196.251 131.804 195.943C132.017 195.635 132.289 195.373 132.604 195.171L138.043 191.663C138.679 191.254 139.45 191.114 140.189 191.273C140.928 191.432 141.573 191.878 141.983 192.513L158.76 218.524C159.17 219.159 159.311 219.931 159.151 220.67C158.992 221.409 158.545 222.054 157.91 222.464L152.471 225.972C151.836 226.381 151.064 226.521 150.326 226.362C149.587 226.202 148.942 225.757 148.531 225.122L131.754 199.111C131.371 198.52 131.221 197.808 131.335 197.113V197.113Z" fill="#2F2E41"/>
<path d="M110.966 25.6846C110.548 24.6924 109.849 23.8445 108.954 23.2459C108.059 22.6472 107.009 22.3241 105.932 22.3164H5.44708C4.00266 22.3172 2.61762 22.8913 1.59627 23.9127C0.574911 24.934 0.000776125 26.3191 0 27.7635V154.886C0.000776125 156.331 0.574911 157.716 1.59627 158.737C2.61762 159.758 4.00266 160.333 5.44708 160.333H105.936C107.38 160.331 108.764 159.757 109.785 158.736C110.806 157.715 111.381 156.33 111.383 154.886V27.7635C111.385 27.0499 111.245 26.3431 110.97 25.6846H110.966ZM110.169 154.886C110.168 156.01 109.721 157.087 108.927 157.881C108.132 158.675 107.055 159.122 105.932 159.124H5.44708C4.32343 159.123 3.24583 158.677 2.45122 157.883C1.65661 157.088 1.21002 156.011 1.20964 154.887V27.7642C1.21117 26.6408 1.65811 25.5639 2.45245 24.7696C3.24679 23.9752 4.32371 23.5283 5.44708 23.5268H105.936C106.782 23.53 107.608 23.7853 108.308 24.26C109.009 24.7348 109.552 25.4075 109.869 26.1924C109.93 26.3487 109.984 26.5083 110.028 26.6704C110.124 27.0271 110.173 27.3948 110.173 27.7642L110.169 154.886Z" fill="#3F3D56"/>
<path d="M89.9964 52.3297H59.7289C59.0867 52.3297 58.4707 52.0745 58.0166 51.6204C57.5625 51.1663 57.3074 50.5504 57.3074 49.9082C57.3074 49.266 57.5625 48.65 58.0166 48.1959C58.4707 47.7418 59.0867 47.4867 59.7289 47.4867H89.9964C90.6386 47.4867 91.2545 47.7418 91.7086 48.1959C92.1627 48.65 92.4179 49.266 92.4179 49.9082C92.4179 50.5504 92.1627 51.1663 91.7086 51.6204C91.2545 52.0745 90.6386 52.3297 89.9964 52.3297V52.3297Z" fill="#3F3D56"/>
<path d="M89.9964 65.0419H59.7289C59.4107 65.0424 59.0954 64.9801 58.8013 64.8585C58.5071 64.737 58.2398 64.5587 58.0146 64.3338C57.7894 64.109 57.6107 63.8419 57.4888 63.5479C57.3669 63.2539 57.3042 62.9387 57.3042 62.6205C57.3042 62.3022 57.3669 61.987 57.4888 61.693C57.6107 61.399 57.7894 61.132 58.0146 60.9071C58.2398 60.6822 58.5071 60.5039 58.8013 60.3824C59.0954 60.2609 59.4107 60.1986 59.7289 60.199H89.9964C90.3147 60.1986 90.6299 60.2609 90.9241 60.3824C91.2182 60.5039 91.4856 60.6822 91.7108 60.9071C91.936 61.132 92.1146 61.399 92.2365 61.693C92.3584 61.987 92.4211 62.3022 92.4211 62.6205C92.4211 62.9387 92.3584 63.2539 92.2365 63.5479C92.1146 63.8419 91.936 64.109 91.7108 64.3338C91.4856 64.5587 91.2182 64.737 90.9241 64.8585C90.6299 64.9801 90.3147 65.0424 89.9964 65.0419V65.0419Z" fill="#3F3D56"/>
<path d="M44.1988 72.2803H22.0795C21.3572 72.2795 20.6647 71.9923 20.154 71.4815C19.6433 70.9708 19.356 70.2783 19.3552 69.556V43.4535C19.356 42.7312 19.6433 42.0387 20.154 41.528C20.6647 41.0173 21.3572 40.73 22.0795 40.7292H44.1988C44.9211 40.73 45.6136 41.0173 46.1243 41.528C46.6351 42.0387 46.9223 42.7312 46.9231 43.4535V69.556C46.9223 70.2783 46.6351 70.9708 46.1243 71.4815C45.6136 71.9923 44.9211 72.2795 44.1988 72.2803V72.2803Z" fill="#359D46"/>
<path d="M89.7863 91.072H21.3819C20.7397 91.072 20.1238 90.8169 19.6697 90.3628C19.2156 89.9086 18.9604 89.2927 18.9604 88.6505C18.9604 88.0083 19.2156 87.3924 19.6697 86.9382C20.1238 86.4841 20.7397 86.229 21.3819 86.229H89.7863C90.4285 86.229 91.0444 86.4841 91.4985 86.9382C91.9527 87.3924 92.2078 88.0083 92.2078 88.6505C92.2078 89.2927 91.9527 89.9086 91.4985 90.3628C91.0444 90.8169 90.4285 91.072 89.7863 91.072V91.072Z" fill="#CCCCCC"/>
<path d="M89.7863 103.784H21.3819C20.7397 103.784 20.1238 103.529 19.6697 103.075C19.2156 102.621 18.9604 102.005 18.9604 101.363C18.9604 100.721 19.2156 100.105 19.6697 99.6506C20.1238 99.1965 20.7397 98.9414 21.3819 98.9414H89.7863C90.4285 98.9414 91.0444 99.1965 91.4985 99.6506C91.9527 100.105 92.2078 100.721 92.2078 101.363C92.2078 102.005 91.9527 102.621 91.4985 103.075C91.0444 103.529 90.4285 103.784 89.7863 103.784V103.784Z" fill="#CCCCCC"/>
<path d="M89.7862 116.497H21.3819C20.7402 116.496 20.1251 116.24 19.6717 115.786C19.2183 115.332 18.9636 114.717 18.9636 114.075C18.9636 113.433 19.2183 112.818 19.6717 112.364C20.1251 111.91 20.7402 111.654 21.3819 111.654H89.7862C90.1045 111.653 90.4197 111.715 90.7139 111.837C91.008 111.958 91.2754 112.137 91.5006 112.362C91.7258 112.587 91.9044 112.854 92.0263 113.148C92.1482 113.442 92.211 113.757 92.211 114.075C92.211 114.393 92.1482 114.708 92.0263 115.002C91.9044 115.296 91.7258 115.564 91.5006 115.788C91.2754 116.013 91.008 116.192 90.7139 116.313C90.4197 116.435 90.1045 116.497 89.7862 116.497V116.497Z" fill="#CCCCCC"/>
<path d="M89.7863 129.209H21.3819C20.7397 129.209 20.1238 128.954 19.6697 128.5C19.2156 128.045 18.9604 127.43 18.9604 126.787C18.9604 126.145 19.2156 125.529 19.6697 125.075C20.1238 124.621 20.7397 124.366 21.3819 124.366H89.7863C90.4285 124.366 91.0444 124.621 91.4985 125.075C91.9527 125.529 92.2078 126.145 92.2078 126.787C92.2078 127.43 91.9527 128.045 91.4985 128.5C91.0444 128.954 90.4285 129.209 89.7863 129.209V129.209Z" fill="#CCCCCC"/>
<path d="M89.7863 141.921H21.3819C20.7397 141.921 20.1238 141.666 19.6697 141.212C19.2156 140.758 18.9604 140.142 18.9604 139.5C18.9604 138.857 19.2156 138.241 19.6697 137.787C20.1238 137.333 20.7397 137.078 21.3819 137.078H89.7863C90.4285 137.078 91.0444 137.333 91.4985 137.787C91.9527 138.241 92.2078 138.857 92.2078 139.5C92.2078 140.142 91.9527 140.758 91.4985 141.212C91.0444 141.666 90.4285 141.921 89.7863 141.921V141.921Z" fill="#CCCCCC"/>
<path d="M111.717 46.7377C124.624 46.7377 135.086 36.2751 135.086 23.3689C135.086 10.4626 124.624 0 111.717 0C98.8112 0 88.3486 10.4626 88.3486 23.3689C88.3486 36.2751 98.8112 46.7377 111.717 46.7377Z" fill="#359D46"/>
<path d="M109.402 32.2834C108.876 32.2843 108.364 32.1142 107.944 31.7988L107.917 31.7793L102.425 27.5781C102.171 27.383 101.958 27.1399 101.797 26.8624C101.637 26.5849 101.533 26.2785 101.491 25.9608C101.449 25.643 101.47 25.3201 101.553 25.0105C101.635 24.7009 101.778 24.4106 101.973 24.1562C102.168 23.9019 102.412 23.6884 102.689 23.528C102.967 23.3677 103.273 23.2635 103.591 23.2216C103.908 23.1796 104.231 23.2006 104.541 23.2834C104.851 23.3663 105.141 23.5093 105.395 23.7043L108.953 26.4322L117.359 15.4655C117.553 15.2113 117.797 14.9979 118.074 14.8376C118.351 14.6773 118.658 14.5732 118.975 14.5313C119.293 14.4893 119.616 14.5103 119.925 14.5931C120.235 14.6759 120.525 14.8188 120.779 15.0138L120.78 15.0143L120.728 15.0867L120.781 15.0143C121.294 15.4085 121.63 15.9901 121.714 16.6315C121.799 17.2729 121.626 17.9216 121.232 18.4354L111.345 31.3287C111.116 31.6258 110.822 31.8662 110.486 32.0312C110.149 32.1963 109.779 32.2816 109.404 32.2805L109.402 32.2834Z" fill="white"/>
<path d="M259.568 232.869H100.578C100.463 232.869 100.353 232.823 100.272 232.742C100.191 232.661 100.146 232.552 100.146 232.437C100.146 232.322 100.191 232.212 100.272 232.131C100.353 232.05 100.463 232.005 100.578 232.005H259.568C259.683 232.005 259.793 232.05 259.874 232.131C259.955 232.212 260 232.322 260 232.437C260 232.552 259.955 232.661 259.874 232.742C259.793 232.823 259.683 232.869 259.568 232.869Z" fill="#3F3D56"/>
</g>
<defs>
<clipPath id="clip0">
<rect width="260" height="232.869" fill="white"/>
</clipPath>
</defs>
</svg>
