<svg width="260" height="266" viewBox="0 0 260 266" fill="none" xmlns="http://www.w3.org/2000/svg">
<g clip-path="url(#clip0)">
<path d="M56.9672 101.257C48.1979 89.5219 32.1481 86.6896 24.1726 92.6494C16.1971 98.6091 14.365 114.804 23.1343 126.539C31.2513 137.401 45.9574 140.364 54.0574 136.294C54.0313 136.421 54.0297 136.552 54.0527 136.68L54.5094 138.938C54.5442 139.11 54.6224 139.27 54.7366 139.403C54.8508 139.537 54.9973 139.639 55.162 139.7C55.3267 139.761 55.5042 139.778 55.6777 139.751C55.8512 139.724 56.0149 139.653 56.1532 139.545L60.0204 136.524C60.1587 136.416 60.2672 136.274 60.3354 136.112C60.4036 135.951 60.4294 135.774 60.4102 135.6C60.391 135.425 60.3275 135.258 60.2257 135.115C60.1239 134.972 59.9873 134.857 59.8287 134.782L57.7485 133.793C57.6753 133.76 57.5985 133.736 57.5196 133.721C63.7632 127.12 65.1019 112.143 56.9672 101.257Z" fill="#CCCCCC"/>
<path d="M37.7854 96.8265C42.075 97.5079 45.9393 99.8102 48.5807 103.258C51.222 106.706 52.4387 111.037 51.9797 115.356C51.8854 116.345 53.4312 116.339 53.5249 115.356C53.9671 110.7 52.6329 106.05 49.79 102.337C46.9471 98.6245 42.8057 96.1237 38.1962 95.3365C37.2235 95.1712 36.8055 96.66 37.7854 96.8265Z" fill="white"/>
<path d="M258.456 115.95C263.174 102.081 256.433 87.2429 247.007 84.0361C237.582 80.8292 223.19 88.4773 218.471 102.346C214.103 115.184 219.977 128.988 227.915 133.366C227.795 133.416 227.686 133.489 227.594 133.58L225.99 135.234C225.868 135.36 225.78 135.515 225.735 135.685C225.689 135.854 225.688 136.033 225.731 136.203C225.774 136.373 225.86 136.53 225.98 136.657C226.1 136.785 226.251 136.88 226.419 136.933L231.098 138.414C231.265 138.467 231.443 138.476 231.615 138.441C231.787 138.406 231.947 138.327 232.08 138.212C232.214 138.098 232.315 137.951 232.376 137.786C232.436 137.621 232.453 137.444 232.426 137.27L232.065 134.995C232.051 134.916 232.027 134.839 231.995 134.766C240.97 136.182 254.078 128.816 258.456 115.95Z" fill="#CCCCCC"/>
<path d="M251.261 97.6251C253.125 101.548 253.412 106.037 252.062 110.166C250.712 114.294 247.829 117.747 244.007 119.811C243.138 120.292 244.018 121.564 244.881 121.085C248.971 118.817 252.051 115.087 253.505 110.642C254.96 106.198 254.68 101.368 252.722 97.1212C252.308 96.2255 250.844 96.7228 251.261 97.6251Z" fill="white"/>
<path d="M147.6 25.5885C146.959 10.9526 135.289 -0.42359 125.342 0.0121076C115.396 0.447805 104.764 12.8009 105.406 27.4367C105.999 40.984 116.485 51.7114 125.471 52.9079C125.378 52.9982 125.303 53.1055 125.25 53.224L124.357 55.347C124.288 55.5088 124.263 55.6854 124.282 55.8599C124.301 56.0345 124.365 56.2012 124.467 56.3442C124.569 56.4872 124.705 56.6018 124.864 56.6772C125.023 56.7525 125.198 56.786 125.373 56.7746L130.27 56.4547C130.445 56.4433 130.615 56.3872 130.762 56.2919C130.91 56.1966 131.03 56.0651 131.113 55.9101C131.195 55.755 131.236 55.5815 131.233 55.4059C131.229 55.2303 131.181 55.0586 131.092 54.907L129.93 52.9182C129.888 52.8499 129.838 52.7867 129.781 52.73C138.657 50.7895 148.195 39.1652 147.6 25.5885Z" fill="#359D46"/>
<path d="M134.241 11.128C137.403 14.106 139.301 18.1843 139.543 22.521C139.785 26.8576 138.352 31.1217 135.541 34.4329C134.907 35.1975 136.188 36.0624 136.818 35.3028C139.805 31.7042 141.32 27.1097 141.061 22.4407C140.801 17.7717 138.786 13.3733 135.42 10.1277C134.709 9.44354 133.525 10.4387 134.241 11.128Z" fill="white"/>
<path d="M148.405 152.83C159.997 152.83 169.395 143.432 169.395 131.839C169.395 120.247 159.997 110.849 148.405 110.849C136.812 110.849 127.414 120.247 127.414 131.839C127.414 143.432 136.812 152.83 148.405 152.83Z" fill="#359D46"/>
<path d="M147.451 264.932H141.662C140.986 264.931 140.338 264.663 139.86 264.185C139.382 263.707 139.113 263.059 139.113 262.383V214.136C139.113 213.46 139.382 212.813 139.86 212.335C140.338 211.857 140.986 211.588 141.662 211.587H147.451C148.126 211.588 148.774 211.857 149.252 212.335C149.73 212.813 149.999 213.46 150 214.136V262.383C149.999 263.059 149.73 263.707 149.252 264.185C148.774 264.663 148.126 264.931 147.451 264.932V264.932Z" fill="#359D46"/>
<path d="M165.993 264.932H160.204C159.528 264.931 158.88 264.663 158.402 264.185C157.924 263.707 157.656 263.059 157.655 262.383V214.136C157.656 213.46 157.924 212.813 158.402 212.335C158.88 211.857 159.528 211.588 160.204 211.587H165.993C166.669 211.588 167.317 211.857 167.795 212.335C168.272 212.813 168.541 213.46 168.542 214.136V262.383C168.541 263.059 168.272 263.707 167.795 264.185C167.317 264.663 166.669 264.931 165.993 264.932V264.932Z" fill="#359D46"/>
<path d="M132.978 172.641L130.494 177.87C130.204 178.48 129.683 178.95 129.046 179.177C128.409 179.403 127.709 179.368 127.098 179.079L83.516 158.382C82.9058 158.092 82.4358 157.571 82.2091 156.934C81.9824 156.297 82.0176 155.597 82.3068 154.986L84.79 149.757C85.0806 149.147 85.6014 148.677 86.2382 148.45C86.8749 148.223 87.5756 148.258 88.1864 148.548L131.768 169.244C132.379 169.535 132.848 170.056 133.075 170.692C133.302 171.329 133.267 172.03 132.978 172.641Z" fill="#359D46"/>
<path d="M139.543 175.444C139.666 176.038 139.572 176.656 139.277 177.186L136.479 182.254C136.152 182.845 135.603 183.282 134.954 183.47C134.305 183.657 133.607 183.579 133.015 183.253L112.535 174.225C111.944 173.898 111.507 173.349 111.319 172.7C111.132 172.05 111.21 171.353 111.536 170.761L111.536 170.761L116.668 161.16C116.83 160.867 117.048 160.609 117.309 160.4C117.571 160.191 117.871 160.036 118.193 159.943C118.514 159.85 118.851 159.822 119.184 159.859C119.517 159.896 119.839 159.999 120.132 160.161L138.525 172.32C139.121 172.649 139.306 174.593 139.495 175.247C139.514 175.312 139.53 175.378 139.543 175.444Z" fill="#2F2E41"/>
<path d="M164.724 169.244L208.306 148.548C208.916 148.258 209.617 148.223 210.254 148.45C210.891 148.677 211.411 149.147 211.702 149.757L214.185 154.986C214.475 155.597 214.51 156.297 214.283 156.934C214.056 157.571 213.586 158.092 212.976 158.382L169.394 179.079C168.783 179.368 168.083 179.403 167.446 179.177C166.809 178.95 166.288 178.48 165.998 177.87L163.515 172.641C163.225 172.03 163.19 171.329 163.417 170.692C163.644 170.056 164.114 169.535 164.724 169.244Z" fill="#359D46"/>
<path d="M156.997 175.247C157.186 174.593 157.37 172.649 157.967 172.32L176.36 160.161C176.653 159.999 176.975 159.896 177.308 159.859C177.641 159.822 177.977 159.85 178.299 159.943C178.621 160.036 178.921 160.191 179.183 160.4C179.444 160.609 179.662 160.867 179.824 161.16L184.956 170.761L184.956 170.761C185.282 171.353 185.36 172.05 185.173 172.7C184.985 173.349 184.548 173.898 183.957 174.225L163.477 183.253C162.885 183.579 162.187 183.657 161.538 183.47C160.888 183.282 160.34 182.845 160.012 182.254L157.215 177.186C156.92 176.656 156.826 176.038 156.949 175.444C156.962 175.378 156.978 175.312 156.997 175.247Z" fill="#2F2E41"/>
<path d="M145.61 139.619L145.588 138.835C147.048 138.794 148.334 138.703 149.301 137.996C149.575 137.785 149.8 137.516 149.961 137.21C150.123 136.904 150.216 136.566 150.235 136.22C150.252 136.009 150.22 135.797 150.141 135.6C150.063 135.403 149.94 135.227 149.783 135.085C149.141 134.543 148.108 134.718 147.356 135.064L146.707 135.361L147.951 126.266L148.729 126.372L147.67 134.109C148.103 133.948 148.57 133.899 149.027 133.964C149.485 134.03 149.919 134.21 150.289 134.486C150.538 134.704 150.734 134.976 150.86 135.281C150.987 135.587 151.041 135.918 151.019 136.248C150.996 136.712 150.872 137.166 150.655 137.578C150.438 137.989 150.134 138.348 149.764 138.63C148.521 139.537 146.907 139.583 145.61 139.619Z" fill="#2F2E41"/>
<path d="M156.797 127.04H152.572V127.824H156.797V127.04Z" fill="#2F2E41"/>
<path d="M143.462 127.04H139.237V127.824H143.462V127.04Z" fill="#2F2E41"/>
<path d="M155.641 162.641H156.487C156.826 162.641 157.161 162.575 157.474 162.446C157.786 162.316 158.071 162.127 158.31 161.888C158.55 161.648 158.74 161.364 158.869 161.052C158.999 160.739 159.066 160.404 159.066 160.065C159.066 159.727 158.999 159.392 158.869 159.079C158.74 158.766 158.55 158.482 158.31 158.243C158.071 158.004 157.786 157.814 157.474 157.685C157.161 157.556 156.826 157.49 156.487 157.49H140.005C139.322 157.491 138.668 157.763 138.186 158.245C137.704 158.728 137.433 159.383 137.433 160.065C137.433 160.748 137.704 161.402 138.186 161.885C138.668 162.368 139.322 162.64 140.005 162.641H141.553C128.326 168.659 119.838 190.889 119.838 204.742C119.838 220.881 131.485 226.086 148.597 226.086C165.709 226.086 181.806 220.881 181.806 204.742C181.806 190.889 169.85 168.659 155.641 162.641Z" fill="#2F2E41"/>
<path d="M147.54 119.852C147.029 118.297 145.184 117.82 143.764 118.407C142.099 119.094 141.154 120.797 139.546 121.603C136.654 123.051 132.816 122.273 130.611 119.952C128.199 117.413 127.724 113.452 128.938 110.247C130.193 106.933 133.307 104.534 136.64 103.56C141.07 102.265 145.823 103.453 149.66 105.841C149.763 105.9 149.877 105.934 149.995 105.942C150.113 105.949 150.231 105.93 150.34 105.886C150.449 105.841 150.547 105.773 150.626 105.685C150.705 105.597 150.763 105.493 150.795 105.379C151.85 101.348 156.402 100.175 160.059 100.607C163.669 101.104 167.103 102.475 170.064 104.6C175.781 108.589 179.812 115.086 180.377 122.081C180.648 125.679 180.13 129.293 178.858 132.67C177.586 136.046 175.592 139.104 173.015 141.629C171.726 142.873 170.223 143.851 168.91 145.063C167.712 146.167 166.533 147.62 166.556 149.338C166.611 153.29 171.812 154.38 174.889 154.499C178.709 154.669 182.461 153.443 185.442 151.048C188.424 148.654 190.432 145.256 191.09 141.489C191.254 140.572 191.339 139.642 191.344 138.711C191.348 137.716 189.803 137.715 189.798 138.711C189.77 142.466 188.292 146.065 185.674 148.758C184.328 150.108 182.726 151.176 180.962 151.898C179.198 152.62 177.307 152.983 175.401 152.965C172.944 152.953 166.288 151.788 168.518 147.901C169.391 146.382 170.956 145.347 172.305 144.29C173.709 143.187 174.983 141.929 176.104 140.54C178.362 137.752 180.026 134.532 180.994 131.077C181.963 127.623 182.215 124.007 181.735 120.452C180.739 113.484 176.514 107.188 170.767 103.212C165.295 99.4268 155.181 96.0788 150.399 102.638C149.892 103.34 149.521 104.13 149.305 104.969L150.44 104.507C146.743 102.206 142.337 101.013 137.992 101.678C136.122 101.96 134.329 102.621 132.723 103.619C131.117 104.618 129.731 105.933 128.651 107.486C127.616 109.047 126.982 110.84 126.806 112.705C126.63 114.57 126.918 116.45 127.643 118.178C128.354 119.832 129.525 121.248 131.017 122.256C132.51 123.263 134.261 123.821 136.061 123.862C138.011 123.94 139.929 123.353 141.501 122.197C142.381 121.526 143.057 120.575 144.01 120.004C144.556 119.677 145.782 119.447 146.05 120.262C146.36 121.203 147.852 120.8 147.54 119.852V119.852Z" fill="#2F2E41"/>
<path d="M182.563 43.5716C186.397 43.8131 190.119 44.9598 193.424 46.9177C196.73 48.8756 199.524 51.5889 201.578 54.8352C202.154 55.7555 202.905 56.7668 202.507 57.8996C202.368 58.334 202.086 58.7083 201.707 58.9616C201.328 59.2149 200.874 59.332 200.419 59.2939C199.244 59.1508 198.486 58.0014 198.341 56.9C198.177 55.6507 199.059 54.6699 200.147 54.2057C202.806 53.0714 205.489 54.8244 207.655 56.2234C212.59 59.4112 218.019 62.2941 223.999 62.6574C229.533 62.9935 235.466 60.8239 238.544 56.0255C239.082 55.186 237.746 54.4103 237.21 55.2456C234.157 60.0045 227.987 61.7136 222.622 60.9781C219.424 60.4736 216.337 59.4254 213.494 57.879C212.019 57.1137 210.589 56.2654 209.187 55.3735C207.854 54.4431 206.441 53.6329 204.964 52.9523C202.501 51.9407 199.241 52.0197 197.52 54.3489C195.916 56.522 197.156 60.1397 199.84 60.7506C202.384 61.3296 204.613 58.937 204.089 56.4355C203.821 55.1558 202.858 53.9036 202.112 52.8576C199.871 49.7051 196.951 47.0955 193.568 45.221C190.185 43.3464 186.424 42.2548 182.563 42.0264C181.569 41.9773 181.571 43.5226 182.563 43.5716L182.563 43.5716Z" fill="#CCCCCC"/>
<path d="M56.1065 67.8407C52.2725 67.5991 48.5502 66.4524 45.2449 64.4945C41.9396 62.5367 39.1454 59.8234 37.0912 56.577C36.5155 55.6567 35.764 54.6454 36.1625 53.5126C36.3014 53.0783 36.5834 52.7039 36.9626 52.4507C37.3418 52.1974 37.7957 52.0803 38.2501 52.1184C39.4251 52.2614 40.1833 53.4108 40.3281 54.5122C40.4923 55.7616 39.6109 56.7423 38.5227 57.2065C35.8635 58.3408 33.1807 56.5879 31.0146 55.1888C26.0791 52.0011 20.6506 49.1181 14.6701 48.7548C9.13676 48.4187 3.20312 50.5883 0.125417 55.3868C-0.413039 56.2263 0.923885 57.002 1.45967 56.1666C4.51201 51.4078 10.6825 49.6986 16.0477 50.4342C19.245 50.9387 22.3323 51.9869 25.1758 53.5332C26.6505 54.2985 28.0807 55.1469 29.482 56.0387C30.8155 56.9692 32.2289 57.7794 33.7056 58.4599C36.1684 59.4716 39.4287 59.3926 41.149 57.0633C42.7539 54.8903 41.5136 51.2726 38.8293 50.6617C36.2854 50.0827 34.0568 52.4752 34.5803 54.9768C34.8481 56.2564 35.8117 57.5087 36.5576 58.5547C38.7986 61.7072 41.7182 64.3168 45.1015 66.1913C48.4848 68.0658 52.2455 69.1575 56.1066 69.3858C57.1006 69.435 57.098 67.8897 56.1066 67.8406L56.1065 67.8407Z" fill="#CCCCCC"/>
<path d="M259.321 265H0.678851C0.498809 265 0.326129 264.947 0.19882 264.854C0.0715107 264.76 0 264.633 0 264.5C0 264.367 0.0715107 264.24 0.19882 264.146C0.326129 264.053 0.498809 264 0.678851 264H259.321C259.501 264 259.674 264.053 259.801 264.146C259.929 264.24 260 264.367 260 264.5C260 264.633 259.929 264.76 259.801 264.854C259.674 264.947 259.501 265 259.321 265Z" fill="#3F3D56"/>
</g>
<defs>
<clipPath id="clip0">
<rect width="260" height="265.376" fill="white"/>
</clipPath>
</defs>
</svg>
