<svg width="20" height="20" viewBox="0 0 20 20" fill="none" xmlns="http://www.w3.org/2000/svg">
<g clip-path="url(#clip0)">
<path d="M18.7976 8.59619C18.7158 8.58291 18.633 8.57678 18.5501 8.57785H4.44053L4.74819 8.43476C5.04892 8.29242 5.32251 8.0987 5.5567 7.86236L9.51339 3.90567C10.0345 3.40823 10.122 2.60799 9.72088 2.00961C9.25398 1.37197 8.35858 1.23353 7.72089 1.70043C7.66938 1.73817 7.62041 1.77931 7.5744 1.82359L0.41945 8.97853C-0.139709 9.53706 -0.140201 10.4431 0.418332 11.0023C0.418689 11.0026 0.419092 11.003 0.41945 11.0034L7.5744 18.1583C8.134 18.7164 9.04004 18.7151 9.59813 18.1555C9.64204 18.1115 9.68305 18.0646 9.72088 18.0152C10.122 17.4169 10.0345 16.6166 9.51339 16.1192L5.56386 12.1553C5.3539 11.9452 5.11251 11.7689 4.84836 11.633L4.41906 11.4398H18.4714C19.2024 11.467 19.8437 10.9563 19.9811 10.2378C20.1076 9.45769 19.5778 8.72274 18.7976 8.59619Z" fill="#787878"/>
</g>
<defs>
<clipPath id="clip0">
<rect width="20" height="20" fill="white"/>
</clipPath>
</defs>
</svg>
