<svg width="24" height="24" viewBox="0 0 24 24" fill="none" xmlns="http://www.w3.org/2000/svg">
<g clip-path="url(#clip0)">
<path d="M22.5 20H5.5C5.333 20 5.177 19.916 5.084 19.777L0.084 12.277C-0.028 12.109 -0.028 11.89 0.084 11.722L5.084 4.222C5.177 4.084 5.333 4 5.5 4H22.5C23.327 4 24 4.673 24 5.5V18.5C24 19.327 23.327 20 22.5 20ZM5.768 19H22.5C22.776 19 23 18.775 23 18.5V5.5C23 5.225 22.776 5 22.5 5H5.768L1.101 12L5.768 19Z" fill="#787878"/>
<path d="M20.536 16.035C20.408 16.035 20.28 15.986 20.182 15.889L13.111 8.81899C12.916 8.62399 12.916 8.30699 13.111 8.11199C13.306 7.91699 13.623 7.91699 13.818 8.11199L20.889 15.182C21.084 15.377 21.084 15.694 20.889 15.889C20.792 15.986 20.664 16.035 20.536 16.035Z" fill="#787878"/>
<path d="M13.464 16.035C13.336 16.035 13.208 15.986 13.11 15.889C12.915 15.694 12.915 15.377 13.11 15.182L20.181 8.11199C20.376 7.91699 20.693 7.91699 20.888 8.11199C21.083 8.30699 21.083 8.62399 20.888 8.81899L13.817 15.889C13.72 15.986 13.592 16.035 13.464 16.035V16.035Z" fill="#787878"/>
</g>
<defs>
<clipPath id="clip0">
<rect width="24" height="24" fill="white"/>
</clipPath>
</defs>
</svg>
