<svg width="18" height="18" viewBox="0 0 18 18" fill="none" xmlns="http://www.w3.org/2000/svg">
<path d="M14.9266 1.94979H14.3844V1.35814C14.3844 0.608939 13.7932 0 13.0657 0C12.3378 0 11.7471 0.608939 11.7471 1.35814V1.9493H10.3939V1.35814C10.3939 0.608939 9.80274 0 9.07527 0C8.34781 0 7.75665 0.608939 7.75665 1.35814V1.9493H6.40345V1.35814C6.40345 0.608939 5.81229 0 5.08482 0C4.35735 0 3.76619 0.608939 3.76619 1.35814V1.9493H3.07379C1.91666 1.9493 0.974854 2.8911 0.974854 4.04823V15.9011C0.974854 17.0582 1.91666 18 3.07379 18H14.9266C16.0842 18 17.0256 17.0582 17.0256 15.9011V4.04823C17.0256 2.8916 16.0838 1.94979 14.9266 1.94979ZM12.4879 1.35814C12.4879 1.01786 12.7472 0.740802 13.0657 0.740802C13.3848 0.740802 13.6436 1.01786 13.6436 1.35814V3.77611C13.6436 4.11639 13.3848 4.39345 13.0657 4.39345C12.7472 4.39345 12.4879 4.11639 12.4879 3.77611V1.35814ZM8.49745 1.35814C8.49745 1.01786 8.75673 0.740802 9.07527 0.740802C9.39382 0.740802 9.6531 1.01786 9.6531 1.35814V3.77611C9.6531 4.11639 9.39382 4.39345 9.07527 4.39345C8.75673 4.39345 8.49745 4.11639 8.49745 3.77611V1.35814V1.35814ZM4.5065 1.35814C4.5065 1.01786 4.76578 0.740802 5.08433 0.740802C5.40287 0.740802 5.66215 1.01786 5.66215 1.35814V3.77611C5.66215 4.11639 5.40287 4.39345 5.08433 4.39345C4.76578 4.39345 4.5065 4.11639 4.5065 3.77611V1.35814ZM15.7909 15.9016C15.7909 16.3781 15.4032 16.7658 14.9266 16.7658H3.07379C2.59721 16.7658 2.20952 16.3781 2.20952 15.9016V5.03646H15.7909V15.9016Z" fill="#787878"/>
<path d="M5.59 7.22331H3.32068V9.24274H5.59V7.22331Z" fill="#787878"/>
<path d="M8.61942 7.22331H6.34961V9.24274H8.61942V7.22331Z" fill="#787878"/>
<path d="M11.6503 7.22331H9.38098V9.24274H11.6503V7.22331Z" fill="#787878"/>
<path d="M14.6796 7.22331H12.4098V9.24274H14.6796V7.22331Z" fill="#787878"/>
<path d="M5.59 9.91884H3.32068V11.9368H5.59V9.91884Z" fill="#787878"/>
<path d="M8.61942 9.91884H6.34961V11.9368H8.61942V9.91884Z" fill="#787878"/>
<path d="M11.6503 9.91884H9.38098V11.9368H11.6503V9.91884Z" fill="#787878"/>
<path d="M14.6796 9.91884H12.4098V11.9368H14.6796V9.91884Z" fill="#787878"/>
<path d="M5.59 12.6134H3.32068V14.6313H5.59V12.6134Z" fill="#787878"/>
<path d="M8.61942 12.6134H6.34961V14.6313H8.61942V12.6134Z" fill="#787878"/>
<path d="M11.6503 12.6134H9.38098V14.6313H11.6503V12.6134Z" fill="#787878"/>
<path d="M14.6796 12.6134H12.4098V14.6313H14.6796V12.6134Z" fill="#787878"/>
</svg>
