<svg width="20" height="18" viewBox="0 0 20 18" fill="none" xmlns="http://www.w3.org/2000/svg">
<g clip-path="url(#clip0)">
<path d="M6.48438 11.9298H17.0705C17.3326 11.9298 17.5626 11.7565 17.6335 11.5047L19.9774 3.30145C20.0278 3.1246 19.9933 2.93463 19.8824 2.78769C19.7713 2.6412 19.5985 2.55469 19.4142 2.55469H5.13168L4.71283 0.669922C4.65332 0.40152 4.41528 0.210938 4.14062 0.210938H0.585938C0.262146 0.210938 0 0.473084 0 0.796875C0 1.12082 0.262146 1.38281 0.585938 1.38281H3.67035L5.78629 10.9043C5.16373 11.175 4.72656 11.7946 4.72656 12.5158C4.72656 13.485 5.51514 14.2736 6.48438 14.2736H17.0705C17.3944 14.2736 17.6564 14.0116 17.6564 13.6877C17.6564 13.3639 17.3944 13.1017 17.0705 13.1017H6.48438C6.16165 13.1017 5.89844 12.8391 5.89844 12.5158C5.89844 12.1924 6.16165 11.9298 6.48438 11.9298Z" fill="#359D46"/>
<path d="M5.89844 16.0314C5.89844 17.0008 6.68701 17.7892 7.6564 17.7892C8.62564 17.7892 9.41422 17.0008 9.41422 16.0314C9.41422 15.0622 8.62564 14.2736 7.6564 14.2736C6.68701 14.2736 5.89844 15.0622 5.89844 16.0314Z" fill="#359D46"/>
<path d="M14.1407 16.0314C14.1407 17.0008 14.9293 17.7892 15.8986 17.7892C16.868 17.7892 17.6564 17.0008 17.6564 16.0314C17.6564 15.0622 16.868 14.2736 15.8986 14.2736C14.9293 14.2736 14.1407 15.0622 14.1407 16.0314Z" fill="#359D46"/>
</g>
<defs>
<clipPath id="clip0">
<rect width="20.0001" height="18" fill="white"/>
</clipPath>
</defs>
</svg>
