<svg width="20" height="20" viewBox="0 0 20 20" fill="none" xmlns="http://www.w3.org/2000/svg">
<path d="M12.8711 3.49786H3.57355C2.70113 3.49786 1.99255 4.20644 1.99255 5.07886V18.419C1.99255 19.2914 2.70113 20 3.57355 20H12.8711C13.7435 20 14.4521 19.2914 14.4521 18.419V5.07886C14.448 4.20644 13.7394 3.49786 12.8711 3.49786ZM13.3421 18.4149C13.3421 18.6771 13.1292 18.89 12.867 18.89H3.56945C3.30732 18.89 3.09434 18.6771 3.09434 18.4149V5.07886C3.09434 4.81673 3.30732 4.60374 3.56945 4.60374H12.867C13.1292 4.60374 13.3421 4.81673 13.3421 5.07886V18.4149Z" fill="#787878"/>
<path d="M16.4263 0H7.12873C6.25631 0 5.54773 0.708581 5.54773 1.581C5.54773 1.88818 5.79348 2.13393 6.10067 2.13393C6.40786 2.13393 6.65361 1.88818 6.65361 1.581C6.65361 1.31886 6.86659 1.10588 7.12873 1.10588H16.4263C16.6884 1.10588 16.9014 1.31886 16.9014 1.581V14.9212C16.9014 15.1833 16.6884 15.3963 16.4263 15.3963C16.1191 15.3963 15.8733 15.642 15.8733 15.9492C15.8733 16.2564 16.1191 16.5021 16.4263 16.5021C17.2987 16.5021 18.0073 15.7936 18.0073 14.9212V1.581C18.0073 0.708581 17.2987 0 16.4263 0Z" fill="#787878"/>
</svg>
