<svg width="20" height="20" viewBox="0 0 20 20" fill="none" xmlns="http://www.w3.org/2000/svg">
<g clip-path="url(#clip0)">
<path d="M17.2464 10.3446H0.537969C0.240859 10.3446 0 10.5855 0 10.8826V18.7357C0 19.2742 0.240781 19.6254 0.537812 19.6254H17.2465C17.5435 19.6254 17.7843 19.17 17.7843 18.7357V16.2875L18.1359 13.8648L17.7843 11.6304V10.8826C17.7843 10.5855 17.5435 10.3446 17.2464 10.3446V10.3446Z" fill="#95CB37"/>
<path d="M14.5205 11.7193H3.12204C3.01922 11.7193 2.93387 11.7968 2.92196 11.899C2.84161 12.5874 2.30958 13.2042 1.6352 13.298C1.53395 13.3121 1.45715 13.3961 1.45715 13.4983V16.846C1.45715 16.9482 1.53395 17.0321 1.6352 17.0462C2.30958 17.1401 2.84161 17.7569 2.92196 18.4453C2.93387 18.5474 3.01922 18.6249 3.12204 18.6249H14.5205C14.6225 18.6249 14.7065 18.5484 14.7206 18.4473C14.8168 17.7585 15.4562 17.1454 16.1485 17.053C16.2501 17.0394 16.3272 16.9552 16.3272 16.8527V13.4917C16.3272 13.3891 16.2501 13.3049 16.1485 13.2914C15.4561 13.1989 14.8168 12.5859 14.7206 11.897C14.7065 11.7959 14.6225 11.7193 14.5205 11.7193V11.7193Z" fill="#448703"/>
<path d="M6.68982 14.8091C6.68982 16.1072 7.78294 17.0307 8.89204 17.0307C10.0011 17.0307 11.0943 15.9827 11.0943 14.8091C10.9209 13.7485 10.0011 12.9389 8.89204 12.9389C7.78294 12.939 6.86322 13.7485 6.68982 14.8091Z" fill="#EEF3F9"/>
<path d="M8.51257 10.7559L8.58683 11.1848C8.84632 11.4054 9.23999 11.5704 9.81984 11.4609C10.9552 11.2464 12.2333 10.9416 12.5799 10.8578C12.6366 10.8441 12.6962 10.8557 12.7438 10.8896C13.1643 11.1887 15.3292 12.5907 17.4861 11.4327C17.621 11.3603 17.7843 11.6304 17.7843 11.6304L17.7844 16.2875C18.6072 15.9777 18.9917 14.346 18.9917 14.346L20 13.3317V7.32423C20 7.17314 19.8401 7.07568 19.7059 7.14501L18.1128 7.96829C17.3084 8.38404 16.3904 8.5263 15.4979 8.37353L14.4239 8.1897C13.8705 8.09497 13.3014 8.18521 12.8044 8.44642L8.69308 10.6074C8.62011 10.6458 8.56019 10.697 8.51257 10.7559V10.7559Z" fill="#F3D4BC"/>
<path d="M8.89207 16.6792C7.78296 16.6792 6.86324 15.8697 6.68984 14.8091C6.6705 14.9273 6.66003 15.0485 6.66003 15.1721C6.66003 16.4055 7.65933 17.4054 8.89207 17.4054C10.1248 17.4054 11.1241 16.4055 11.1241 15.1721C11.1241 15.0485 11.1136 14.9273 11.0943 14.8091C10.9209 15.8697 10.0012 16.6792 8.89207 16.6792V16.6792Z" fill="#DAE3ED"/>
<path d="M17.2465 19.2738H0.537812C0.240781 19.2738 0 19.0329 0 18.7357V19.4619C0 19.7591 0.240781 20 0.537812 20H17.2465C17.5435 20 17.7843 19.7591 17.7843 19.4619V18.7357C17.7843 19.0329 17.5435 19.2738 17.2465 19.2738Z" fill="#6DBB24"/>
<path d="M17.7843 11.6304V11.258C17.7843 11.1048 17.621 11.0087 17.4861 11.0811C15.3292 12.2391 13.1643 10.8371 12.7438 10.538C12.6962 10.5041 12.6366 10.4925 12.5799 10.5062C12.2332 10.59 10.9552 10.8948 9.81985 11.1093C9.23996 11.2188 8.84633 11.0539 8.58684 10.8332C8.55875 10.8094 8.53473 10.7831 8.51258 10.7559C8.32406 10.989 8.33801 11.3479 8.58684 11.5594C8.84633 11.78 9.24 11.945 9.81985 11.8355C11.1476 11.5846 12.6707 11.2103 12.6707 11.2103C12.6707 11.2103 15.2872 13.2568 17.7843 11.6304Z" fill="#EAC4A9"/>
<path d="M18.7299 14.0286C18.7299 14.0286 18.438 15.5947 17.7843 16.2875V17.2498C18.7366 16.4095 19.0936 14.6781 19.0936 14.6781L19.9121 14.1179C19.967 14.0804 19.9999 14.0181 19.9999 13.9515V13.3317L18.7299 14.0286Z" fill="#EAC4A9"/>
<path d="M6.66967 7.18829L7.56334 6.4881C7.62267 6.44161 7.70295 6.432 7.7713 6.46368C8.23794 6.67981 8.75884 6.79853 9.30802 6.79345C11.1458 6.77642 12.8379 5.24931 12.8379 3.21872C12.6547 1.4081 11.1245 -0.00440374 9.2654 1.03171e-05C7.28334 0.00477594 5.69189 1.64431 5.69189 3.62739V6.36028C5.69193 7.27067 6.27267 7.49935 6.66967 7.18829V7.18829Z" fill="#F0C419"/>
<path d="M12.838 3.21873C12.6562 5.00427 11.1459 6.42486 9.30814 6.44189C8.75896 6.44697 8.23807 6.32826 7.77143 6.11213C7.70307 6.08045 7.62275 6.09005 7.56342 6.13654L6.66975 6.83673C6.27276 7.14779 5.69202 6.86478 5.69202 6.36029V7.08646C5.69202 7.59095 6.27276 7.87396 6.66975 7.56291L7.66213 6.78541C8.15615 7.03494 8.71568 7.17353 9.30814 7.16806C11.2961 7.14966 12.9011 5.48888 12.8555 3.50037C12.8534 3.40552 12.8474 3.31162 12.838 3.21873V3.21873Z" fill="#EDD17A"/>
<path d="M8.29235 5.04716C8.42536 5.14645 8.61587 5.11997 8.71634 4.98481L10.3155 2.83352C10.4153 2.69919 10.3875 2.50927 10.2532 2.40934C10.1189 2.30942 9.92906 2.33735 9.82918 2.47169L8.23001 4.62294C8.13021 4.75731 8.1581 4.94723 8.29235 5.04716V5.04716Z" fill="#F4F4F4"/>
<path d="M8.34671 3.50297C8.51405 3.50297 8.64972 3.36723 8.64972 3.1998V2.78918C8.64972 2.62176 8.51405 2.48602 8.34671 2.48602C8.17937 2.48602 8.0437 2.62176 8.0437 2.78918V3.19977C8.0437 3.36723 8.17937 3.50297 8.34671 3.50297Z" fill="#F4F4F4"/>
<path d="M9.89563 4.2622V4.67279C9.89563 4.84021 10.0313 4.97595 10.1986 4.97595C10.366 4.97595 10.5016 4.84021 10.5016 4.67279V4.2622C10.5016 4.09478 10.366 3.95904 10.1986 3.95904C10.0313 3.95904 9.89563 4.09478 9.89563 4.2622V4.2622Z" fill="#F4F4F4"/>
</g>
<defs>
<clipPath id="clip0">
<rect width="20" height="20" fill="white"/>
</clipPath>
</defs>
</svg>
