<svg width="20" height="20" viewBox="0 0 20 20" fill="none" xmlns="http://www.w3.org/2000/svg">
<g clip-path="url(#clip0)">
<path d="M13.2576 10.1025L20.0001 14.365V5.66L13.2576 10.1025Z" fill="#787878"/>
<path d="M0 5.66V14.365L6.7425 10.1025L0 5.66Z" fill="#787878"/>
<path d="M18.7501 3.125H1.2501C0.626348 3.125 0.131348 3.59 0.0375977 4.18875L10.0001 10.7525L19.9626 4.18875C19.8688 3.59 19.3738 3.125 18.7501 3.125Z" fill="#787878"/>
<path d="M12.1124 10.8575L10.3437 12.0225C10.2387 12.0913 10.1199 12.125 9.99992 12.125C9.87992 12.125 9.76117 12.0913 9.65617 12.0225L7.88742 10.8563L0.039917 15.82C0.136167 16.4138 0.628667 16.875 1.24992 16.875H18.7499C19.3712 16.875 19.8637 16.4138 19.9599 15.82L12.1124 10.8575Z" fill="#787878"/>
</g>
<defs>
<clipPath id="clip0">
<rect width="20" height="20" fill="white"/>
</clipPath>
</defs>
</svg>
