<svg width="20" height="20" viewBox="0 0 20 20" fill="none" xmlns="http://www.w3.org/2000/svg">
<g clip-path="url(#clip0)">
<path d="M4.36203 11.6667H8.04276L7.28287 18.8509C7.27951 18.8725 7.27859 18.9366 7.27859 18.9583C7.27859 19.5325 7.74612 20 8.32031 20C8.647 20 8.95859 19.8433 9.16534 19.5659L16.4453 9.16672C16.5794 8.98743 16.6536 8.76587 16.6536 8.54172C16.6536 7.96753 16.1862 7.5 15.612 7.5H11.107L11.857 1.16409C11.8594 1.13998 11.8611 1.06583 11.8611 1.04172C11.862 0.467529 11.3945 0 10.8203 0C10.4936 0 10.182 0.156708 9.96872 0.442505L3.52859 10C3.39447 10.1791 3.32031 10.4008 3.32031 10.625C3.32031 11.1992 3.78784 11.6667 4.36203 11.6667V11.6667Z" fill="#787878"/>
</g>
<defs>
<clipPath id="clip0">
<rect width="20" height="20" fill="white"/>
</clipPath>
</defs>
</svg>
