<svg width="20" height="20" viewBox="0 0 20 20" fill="none" xmlns="http://www.w3.org/2000/svg">
<g clip-path="url(#clip0)">
<path d="M18.5773 19.7561C18.7398 19.9186 18.9532 20.0003 19.1665 20.0003C19.3798 20.0003 19.5931 19.9186 19.7556 19.7561C20.0815 19.4302 20.0815 18.9036 19.7556 18.5777L13.9407 12.7629L16.4582 9.16705C16.5924 8.98792 16.6665 8.76621 16.6665 8.54206C16.6665 7.96804 16.199 7.50052 15.6248 7.50052H11.1199L11.87 1.16473C11.8725 1.14063 11.8741 1.06647 11.8741 1.04221C11.8749 0.468184 11.4075 0.000663737 10.8334 0.000663737C10.5067 0.000663737 10.1949 0.157216 9.98163 0.44316L6.61592 5.43803L1.4227 0.2448C1.09678 -0.0809692 0.570209 -0.0809692 0.244441 0.2448C-0.0814802 0.570568 -0.0814802 1.09729 0.244441 1.42306L18.5773 19.7561Z" fill="#787878"/>
<path d="M3.5419 10.0005C3.40777 10.1796 3.33362 10.4013 3.33362 10.6254C3.33362 11.1996 3.80114 11.667 4.37516 11.667H8.05596L7.29594 18.8511C7.29258 18.8728 7.29182 18.9369 7.29182 18.9586C7.29182 19.5327 7.75934 20.0003 8.33351 20.0003C8.6602 20.0003 8.97178 19.8436 9.17838 19.566L12.2426 15.1887L4.95605 7.90211L3.5419 10.0005Z" fill="#787878"/>
</g>
<defs>
<clipPath id="clip0">
<rect width="20" height="20" fill="white"/>
</clipPath>
</defs>
</svg>
