<svg width="20" height="20" viewBox="0 0 20 20" fill="none" xmlns="http://www.w3.org/2000/svg">
<path d="M9.69373 13.407C9.1219 13.407 8.65894 13.8836 8.65894 14.4555C8.65894 15.0137 9.10827 15.5039 9.69373 15.5039C10.2792 15.5039 10.7422 15.0137 10.7422 14.4555C10.7422 13.8836 10.2656 13.407 9.69373 13.407Z" fill="#787878"/>
<path d="M9.8707 5.46881C8.03253 5.46881 7.18835 6.55807 7.18835 7.29334C7.18835 7.82439 7.63765 8.06947 8.00531 8.06947C8.74054 8.06947 8.44101 7.02103 9.82984 7.02103C10.5107 7.02103 11.0553 7.3206 11.0553 7.94693C11.0553 8.68224 10.2928 9.10431 9.84347 9.48556C9.44863 9.82595 8.93121 10.3842 8.93121 11.5552C8.93121 12.2632 9.12179 12.4675 9.68007 12.4675C10.3473 12.4675 10.4834 12.1679 10.4834 11.9092C10.4834 11.2012 10.4971 10.7927 11.2459 10.2072C11.6135 9.9213 12.7709 8.9954 12.7709 7.71549C12.7709 6.43557 11.6136 5.46881 9.8707 5.46881Z" fill="#787878"/>
<path d="M10 0C4.47328 0 0 4.47254 0 10V19.2188C0 19.6502 0.349766 20 0.78125 20H10C15.5267 20 20 15.5275 20 10C20 4.47328 15.5275 0 10 0ZM10 18.4375H1.5625V10C1.5625 5.33684 5.33621 1.5625 10 1.5625C14.6632 1.5625 18.4375 5.33621 18.4375 10C18.4375 14.6632 14.6638 18.4375 10 18.4375Z" fill="#787878"/>
</svg>
