<svg width="20" height="20" viewBox="0 0 20 20" fill="none" xmlns="http://www.w3.org/2000/svg">
<g clip-path="url(#clip0)">
<path d="M19.7495 9.76579C20.112 9.36706 20.077 8.75592 19.6713 8.40113L10.733 0.580104C10.3273 0.225314 9.67688 0.232747 9.27971 0.59686L0.311057 8.81812C-0.0861095 9.18223 -0.105603 9.79258 0.267898 10.1808L0.492755 10.415C0.8658 10.8032 1.46879 10.8495 1.8387 10.5181L2.50897 9.91782V18.7056C2.50897 19.2447 2.94584 19.6812 3.48461 19.6812H6.98061C7.51938 19.6812 7.95626 19.2447 7.95626 18.7056V12.5577H12.4154V18.7056C12.4077 19.2443 12.7932 19.6808 13.332 19.6808H17.0368C17.5756 19.6808 18.0125 19.2443 18.0125 18.7052V10.0416C18.0125 10.0416 18.1976 10.2038 18.426 10.4045C18.654 10.6048 19.1329 10.4442 19.4954 10.0451L19.7495 9.76579Z" fill="#787878"/>
</g>
<defs>
<clipPath id="clip0">
<rect width="20" height="20" fill="white"/>
</clipPath>
</defs>
</svg>
