<svg width="20" height="20" viewBox="0 0 20 20" fill="none" xmlns="http://www.w3.org/2000/svg">
<g clip-path="url(#clip0)">
<path d="M9.84778 6.83251L12.7108 9.6955L12.7244 9.54553C12.7244 8.04131 11.502 6.81888 9.99774 6.81888L9.84778 6.83251Z" fill="#787878"/>
<path d="M9.99769 5.00112C12.5062 5.00112 14.5421 7.03704 14.5421 9.54556C14.5421 10.1318 14.424 10.6908 14.2195 11.2043L16.878 13.8627C18.2504 12.7176 19.3319 11.2361 20 9.54556C18.4231 5.55557 14.5467 2.72893 9.99774 2.72893C8.72529 2.72893 7.50741 2.95613 6.37585 3.36513L8.33904 5.32376C8.8525 5.12382 9.41147 5.00112 9.99769 5.00112Z" fill="#787878"/>
<path d="M0.90887 2.5244L2.98113 4.59665L3.39468 5.01021C1.89502 6.18267 0.70893 7.74142 0 9.54553C1.57238 13.5355 5.45331 16.3622 9.99774 16.3622C11.4065 16.3622 12.7517 16.0895 13.9832 15.5941L14.3695 15.9804L17.0189 18.6344L18.1777 17.4801L2.0677 1.36557L0.90887 2.5244ZM5.93503 7.546L7.33926 8.95022C7.29836 9.14565 7.27109 9.34103 7.27109 9.54553C7.27109 11.0497 8.49352 12.2722 9.99774 12.2722C10.2022 12.2722 10.3977 12.2449 10.5885 12.204L11.9928 13.6082C11.3883 13.9082 10.7158 14.09 9.99774 14.09C7.48922 14.09 5.45331 12.0541 5.45331 9.54553C5.45331 8.82752 5.6351 8.15494 5.93503 7.546Z" fill="#787878"/>
</g>
<defs>
<clipPath id="clip0">
<rect width="20" height="20" fill="white"/>
</clipPath>
</defs>
</svg>
