<svg width="20" height="20" viewBox="0 0 20 20" fill="none" xmlns="http://www.w3.org/2000/svg">
<path d="M17.5 4.375H19.375V11.25H17.5V4.375Z" fill="#2A70AB"/>
<path d="M16.25 4.6875H17.5V10.3125H16.25V4.6875Z" fill="#4DB7E5"/>
<path d="M16.25 5.625H15L12.8125 4.6875H10.625V10.3125H14.0625L15 9.375H16.25V5.625Z" fill="#FF9F9B"/>
<path d="M9.06254 0.9375L2.18762 4.6041L7.81262 14.9166L14.6875 11.25L9.06254 0.9375Z" fill="#448703"/>
<path d="M7.91115 9.92039L5.72502 11.0875L4.54065 8.91875L6.7285 7.75223L7.91115 9.92039Z" fill="#F98500"/>
<path d="M9.0625 0.9375L4.375 3.4375L10 13.75L14.6875 11.25L9.0625 0.9375Z" fill="#95CB37"/>
<path d="M6.58124 2.2625C6.89113 2.84366 6.95894 3.5237 6.7699 4.15461C6.58086 4.78552 6.15028 5.31623 5.57188 5.63124L4.375 3.4375L6.58124 2.2625Z" fill="#6DBB24"/>
<path d="M9.06246 3.4375C8.60894 3.43836 8.16379 3.31542 7.775 3.08193C7.38621 2.84843 7.06853 2.51325 6.8562 2.1125L9.06246 0.9375L10.2593 3.13124C9.89251 3.33242 9.48084 3.43776 9.06246 3.4375V3.4375Z" fill="#6DBB24"/>
<path d="M12.2062 12.575L9.99998 13.75L8.8031 11.5562C9.093 11.3977 9.41148 11.2983 9.74008 11.2637C10.0687 11.2291 10.4009 11.2601 10.7174 11.3549C11.034 11.4496 11.3286 11.6063 11.5841 11.8157C11.8397 12.0252 12.0511 12.2832 12.2062 12.575V12.575Z" fill="#6DBB24"/>
<path d="M14.6875 11.25L12.4813 12.425C12.1714 11.8438 12.1036 11.1638 12.2926 10.5329C12.4816 9.90197 12.9122 9.37125 13.4906 9.05624L14.6875 11.25Z" fill="#6DBB24"/>
<path d="M12.5968 7.41875L7.91105 9.92039L6.72839 7.75223L11.4155 5.25313L12.5968 7.41875Z" fill="#FCA713"/>
<path d="M10.625 7.1875C10.4594 7.35329 10.3664 7.57806 10.3665 7.81241C10.3665 8.04675 10.4596 8.27147 10.6253 8.43718C10.791 8.60288 11.0158 8.696 11.2501 8.69606C11.4845 8.69612 11.7092 8.60312 11.875 8.4375L13.125 7.1875C13.4565 7.51902 13.9062 7.70526 14.375 7.70526C14.8439 7.70526 15.2935 7.51902 15.625 7.1875L16.25 6.5625V5.625H15L12.8125 4.6875H11.108L11.8167 5.99585L10.625 7.1875Z" fill="#FFDAD2"/>
<path d="M0.625 13.4375H1.875V19.0625H0.625V13.4375Z" fill="#2A70AB"/>
<path d="M1.875 14.0625H3.125V18.4375H1.875V14.0625Z" fill="#4DB7E5"/>
<path d="M6.875 15L7.1875 15.3125H9.0625C9.31114 15.3125 9.5496 15.4113 9.72541 15.5871C9.90123 15.7629 10 16.0014 10 16.25C10 16.4986 9.90123 16.7371 9.72541 16.9129C9.5496 17.0887 9.31114 17.1875 9.0625 17.1875H14.0625C14.3111 17.1875 14.5496 17.2863 14.7254 17.4621C14.9012 17.6379 15 17.8764 15 18.125C15 18.3736 14.9012 18.6121 14.7254 18.7879C14.5496 18.9637 14.3111 19.0625 14.0625 19.0625H7.25348C5.7841 19.0625 4.3476 18.6276 3.125 17.8125V15C3.37123 14.7538 3.66354 14.5584 3.98526 14.4252C4.30697 14.2919 4.65178 14.2233 5 14.2233C5.34822 14.2233 5.69303 14.2919 6.01474 14.4252C6.33646 14.5584 6.62877 14.7538 6.875 15Z" fill="#FFDAD2"/>
<path d="M6.25 17.5C6.25 17.5829 6.28293 17.6624 6.34153 17.721C6.40014 17.7796 6.47962 17.8125 6.5625 17.8125H9.0625C9.14538 17.8125 9.22487 17.7796 9.28347 17.721C9.34208 17.6624 9.375 17.5829 9.375 17.5C9.375 17.4171 9.34208 17.3376 9.28347 17.279C9.22487 17.2204 9.14538 17.1875 9.0625 17.1875H6.5625C6.47962 17.1875 6.40014 17.2204 6.34153 17.279C6.28293 17.3376 6.25 17.4171 6.25 17.5V17.5Z" fill="#FF9F9B"/>
</svg>
