<svg width="20" height="20" viewBox="0 0 20 20" fill="none" xmlns="http://www.w3.org/2000/svg">
<path d="M18.75 4.99968H1.25C0.56125 4.99968 0 5.56093 0 6.24968V17.4997C0 18.1897 0.56125 18.7497 1.25 18.7497H18.75C19.44 18.7497 20 18.1897 20 17.4997V6.24968C20 5.56093 19.44 4.99968 18.75 4.99968Z" fill="#CCCCCC"/>
<path d="M20 7.49969H0V11.2497H20V7.49969Z" fill="#787878"/>
<path d="M5.625 14.9997H3.125C2.78 14.9997 2.5 14.7197 2.5 14.3747C2.5 14.0297 2.78 13.7497 3.125 13.7497H5.625C5.97 13.7497 6.25 14.0297 6.25 14.3747C6.25 14.7197 5.97 14.9997 5.625 14.9997Z" fill="#FAFAFA"/>
<path d="M20 11.1822V6.24968C20 5.56093 19.44 4.99968 18.75 4.99968H8.75V6.24968C8.75 10.1647 10.24 12.5484 14.07 14.7534C14.3525 14.9147 14.675 14.9997 15 14.9997C15.325 14.9997 15.6475 14.9147 15.9337 14.7509C17.8287 13.6622 19.1488 12.5259 20 11.1822Z" fill="#FAFAFA"/>
<path d="M19.6212 3.17594L15.2462 1.30094C15.0875 1.23344 14.9113 1.23344 14.7525 1.30094L10.3775 3.17594C10.1488 3.27344 10 3.49969 10 3.74969V6.24969C10 9.68844 11.2713 11.6984 14.6888 13.6672C14.785 13.7222 14.8925 13.7497 15 13.7497C15.1075 13.7497 15.215 13.7222 15.3112 13.6672C18.7287 11.7034 20 9.69344 20 6.24969V3.74969C20 3.49969 19.8512 3.27344 19.6212 3.17594Z" fill="#9D9D9D"/>
<path d="M14.375 9.3747C14.3663 9.3747 14.3563 9.3747 14.3488 9.3747C14.15 9.36595 13.9663 9.26345 13.855 9.0972L12.605 7.22219C12.4138 6.93469 12.4913 6.54719 12.7788 6.35594C13.0638 6.16594 13.4525 6.24094 13.645 6.52969L14.4213 7.69345L16.3863 5.23594C16.6025 4.96719 16.9963 4.92469 17.265 5.13844C17.535 5.35469 17.5775 5.74719 17.3625 6.01719L14.8625 9.1422C14.7438 9.28845 14.5638 9.3747 14.375 9.3747Z" fill="#FAFAFA"/>
</svg>
