<svg width="20" height="20" viewBox="0 0 20 20" fill="none" xmlns="http://www.w3.org/2000/svg">
<path d="M6.43836 2.65113H9.0537C9.22348 2.65113 9.36108 2.51353 9.36108 2.34375C9.36108 2.17398 9.22348 2.03638 9.0537 2.03638H6.43836C6.26858 2.03638 6.13098 2.17398 6.13098 2.34375C6.13098 2.51353 6.26858 2.65113 6.43836 2.65113Z" fill="white"/>
<path d="M7.74612 16.1204C7.13196 16.1205 6.63392 16.6183 6.63416 17.2324C6.63416 17.8468 7.13196 18.3446 7.74624 18.3446C8.36039 18.3446 8.8582 17.8468 8.8582 17.2324C8.8576 16.6186 8.36015 16.1211 7.74612 16.1204ZM7.74612 17.7299C7.4714 17.7299 7.24867 17.5072 7.24891 17.2324C7.24891 16.9578 7.4714 16.7351 7.74624 16.7351C8.02095 16.7351 8.24344 16.9578 8.24344 17.2324C8.2432 17.5072 8.02071 17.7295 7.74612 17.7299V17.7299Z" fill="white"/>
<path d="M13.276 5.04627V2.47319C13.276 1.45621 12.4569 0.614761 11.44 0.614761H4.05207C3.03508 0.614761 2.21045 1.45621 2.21045 2.47319V17.5063C2.21045 18.5233 3.03508 19.3648 4.05207 19.3648H11.44C12.4569 19.3648 13.276 18.5233 13.276 17.5063V14.9332C15.6966 14.5944 17.5738 12.5069 17.5738 9.98976C17.5738 7.47263 15.6966 5.38511 13.276 5.04627V5.04627ZM15.2916 11.9578C15.4522 11.418 15.5438 10.86 15.5639 10.2971H16.9564C16.8983 11.1335 16.5999 11.9354 16.097 12.6063C15.852 12.3624 15.582 12.1451 15.2916 11.9578ZM10.6361 12.2417C11.1486 11.9872 11.7061 11.8362 12.277 11.7967V14.2223C11.547 13.7797 10.9865 13.0946 10.6361 12.2417V12.2417ZM12.277 11.1806C11.6392 11.2179 11.0149 11.3792 10.4387 11.6554C10.3186 11.2119 10.249 10.7563 10.2313 10.2971H12.277V11.1806ZM10.2313 9.68238C10.249 9.22324 10.3186 8.7677 10.4387 8.32428C11.0149 8.60056 11.6392 8.76193 12.277 8.79916V9.68238H10.2313ZM12.277 5.75744V8.1832C11.7061 8.14418 11.1484 7.99301 10.6359 7.73822C10.9865 6.88525 11.547 6.20014 12.277 5.75744ZM12.8918 8.80048C13.5318 8.76554 14.1588 8.60536 14.7371 8.32921C14.8583 8.77094 14.9293 9.2248 14.9488 9.68238H12.8918V8.80048ZM12.8918 8.18416V5.75744C13.6218 6.20086 14.1843 6.88777 14.5348 7.74267C14.0219 7.99721 13.4633 8.1473 12.8918 8.18416ZM10.1064 7.42316C9.88443 7.27019 9.67695 7.09682 9.48688 6.90566C9.95935 6.42971 10.5345 6.06842 11.1685 5.84966C10.7149 6.2998 10.3541 6.83434 10.1064 7.42316V7.42316ZM9.08381 7.37201C9.32935 7.61431 9.59951 7.83068 9.88983 8.01715C9.72834 8.55842 9.63637 9.11794 9.61596 9.68238H8.22351C8.28163 8.84538 8.58048 8.04296 9.08381 7.37177V7.37201ZM9.61596 10.2971C9.63637 10.8616 9.72834 11.4212 9.88983 11.9625C9.59951 12.1491 9.32935 12.3652 9.08381 12.6077C8.58048 11.9366 8.28163 11.1341 8.22351 10.2971H9.61596ZM10.1064 12.5566C10.3541 13.1453 10.7148 13.6797 11.1681 14.1299C10.5342 13.911 9.95911 13.5498 9.48688 13.0739C9.67695 12.8827 9.88443 12.7094 10.1064 12.5566V12.5566ZM12.8918 14.2223V11.7951C13.4633 11.8319 14.0219 11.9819 14.5348 12.2367C14.1843 13.0919 13.6218 13.7789 12.8918 14.2223ZM12.8918 11.1789V10.2971H14.9488C14.9293 10.7546 14.8583 11.2086 14.7371 11.6502C14.1589 11.3739 13.5318 11.2137 12.8918 11.1789ZM15.5639 9.68238C15.5438 9.1195 15.4522 8.56154 15.2914 8.02171C15.582 7.8344 15.852 7.61707 16.097 7.37321C16.5999 8.04416 16.8983 8.84598 16.9564 9.68238H15.5639ZM15.6942 6.90651C15.5047 7.0991 15.2974 7.27332 15.0753 7.42701C14.8273 6.83675 14.4662 6.30076 14.0117 5.84966C14.646 6.06854 15.2216 6.43019 15.6942 6.90651V6.90651ZM4.05207 1.22952H11.44C12.118 1.22952 12.6613 1.79516 12.6613 2.47319V3.65011H2.8252V2.47319C2.8252 1.79516 3.37416 1.22952 4.05207 1.22952V1.22952ZM11.44 18.75H4.05207C3.37416 18.75 2.8252 18.1844 2.8252 17.5063V15.7147H12.6613V17.5063C12.6613 18.1844 12.118 18.75 11.44 18.75ZM12.6613 15.0999H2.8252V4.26486H12.6613V4.99873C12.6613 4.99837 12.6125 4.99777 12.586 4.99777C9.83328 4.99777 7.59591 7.23718 7.59591 9.98976C7.59591 12.7425 9.83208 14.982 12.5849 14.982C12.6114 14.982 12.6613 14.9813 12.6613 14.9809V15.0999ZM14.0119 14.1299C14.4663 13.6788 14.8276 13.1428 15.0753 12.5525C15.2974 12.7062 15.5047 12.8804 15.6942 13.0729C15.2216 13.5492 14.6463 13.9107 14.0119 14.1299Z" fill="white"/>
</svg>
