<svg width="20" height="20" viewBox="0 0 20 20" fill="none" xmlns="http://www.w3.org/2000/svg">
<g clip-path="url(#clip0)">
<path d="M17.4455 4.07789L13.5393 0.171641C13.4294 0.0617578 13.2804 0 13.125 0H4.53125C3.3466 0 2.38281 0.963789 2.38281 2.14844V17.8516C2.38281 19.0362 3.3466 20 4.53125 20H15.4688C16.6534 20 17.6172 19.0362 17.6172 17.8516V4.49219C17.6172 4.3368 17.5554 4.18777 17.4455 4.07789ZM13.7109 2.00051L15.6167 3.90625H13.7109V2.00051ZM15.4688 18.8281H4.53125C3.99277 18.8281 3.55469 18.39 3.55469 17.8516V2.14844C3.55469 1.60996 3.99277 1.17188 4.53125 1.17188H12.5391V4.49219C12.5391 4.81578 12.8014 5.07812 13.125 5.07812H16.4453V17.8516C16.4453 18.39 16.0072 18.8281 15.4688 18.8281Z" fill="#787878"/>
<path d="M13.9062 7.89062C13.1658 7.89062 12.5002 7.47922 12.1691 6.81703L12.0866 6.65207C11.9873 6.45352 11.7845 6.32812 11.5625 6.32812H8.4375C8.21555 6.32812 8.01266 6.45352 7.9134 6.65203L7.83094 6.81695C7.49984 7.47922 6.83418 7.89062 6.09375 7.89062C5.77016 7.89062 5.50781 8.15297 5.50781 8.47656V11.8202C5.50781 13.1348 5.92262 14.3872 6.70734 15.4419C7.49207 16.4966 8.57246 17.2538 9.83164 17.6315C9.88656 17.648 9.94328 17.6562 10 17.6562C10.0567 17.6562 10.1134 17.648 10.1684 17.6315C11.4275 17.2538 12.5079 16.4966 13.2927 15.4419C14.0774 14.3872 14.4922 13.1348 14.4922 11.8202V8.47656C14.4922 8.15297 14.2298 7.89062 13.9062 7.89062ZM13.3203 11.8202C13.3203 13.9396 11.9933 15.7805 10 16.4554C8.00668 15.7805 6.67969 13.9396 6.67969 11.8202V9.00789C7.56645 8.84051 8.33738 8.29695 8.79395 7.49996H11.2061C11.6626 8.29691 12.4336 8.84051 13.3203 9.00789V11.8202Z" fill="#787878"/>
<path d="M11.243 10.473L9.44764 12.2684L8.75709 11.5779C8.5283 11.349 8.15729 11.349 7.92846 11.5779C7.69963 11.8067 7.69963 12.1777 7.92846 12.4065L9.0333 13.5113C9.14772 13.6258 9.29768 13.683 9.4476 13.683C9.59752 13.683 9.74752 13.6258 9.86189 13.5113L12.0716 11.3016C12.3004 11.0728 12.3004 10.7018 12.0716 10.473C11.8428 10.2442 11.4718 10.2442 11.243 10.473Z" fill="#787878"/>
</g>
<defs>
<clipPath id="clip0">
<rect width="20" height="20" fill="white"/>
</clipPath>
</defs>
</svg>
