<svg width="20" height="20" viewBox="0 0 20 20" fill="none" xmlns="http://www.w3.org/2000/svg">
<path d="M17.9558 3.23853L10.2996 0.0597369C10.1078 -0.0198724 9.89219 -0.0199115 9.70043 0.0597369L2.04418 3.23853C1.75258 3.35962 1.5625 3.64431 1.5625 3.96005V7.82431C1.5625 13.1451 4.77848 17.9313 9.70477 19.9421C9.89398 20.0193 10.106 20.0193 10.2952 19.9421C15.2214 17.9314 18.4375 13.1452 18.4375 7.82431V3.96005C18.4375 3.64431 18.2475 3.35962 17.9558 3.23853ZM16.875 7.82431C16.875 12.3476 14.2188 16.5115 10 18.3702C5.89398 16.5611 3.125 12.4701 3.125 7.82431V4.48161L10 1.62716L16.875 4.48161V7.82431ZM9.13648 10.4577L12.4945 7.09974C12.7995 6.79466 13.2942 6.79462 13.5993 7.09974C13.9044 7.40486 13.9044 7.8995 13.5993 8.20458L9.68891 12.1149C9.38375 12.4201 8.8891 12.42 8.58406 12.1149L6.4007 9.93157C6.09559 9.62646 6.09559 9.13181 6.4007 8.82673C6.70582 8.52165 7.20047 8.52161 7.50555 8.82673L9.13648 10.4577Z" fill="#787878"/>
</svg>
