<svg width="20" height="20" viewBox="0 0 20 20" fill="none" xmlns="http://www.w3.org/2000/svg">
<g clip-path="url(#clip0)">
<path d="M17.7083 15H2.29167C1.0275 15 0 13.9725 0 12.7083V2.29167C0 1.0275 1.0275 0 2.29167 0H17.7083C18.9725 0 20 1.0275 20 2.29167V12.7083C20 13.9725 18.9725 15 17.7083 15Z" fill="#4A4A56"/>
<path d="M6.04167 10.8333H0V4.16667H6.04167C7.3075 4.16667 8.33333 5.1925 8.33333 6.45833V8.54166C8.33333 9.80749 7.3075 10.8333 6.04167 10.8333Z" fill="#90A4AE"/>
<path d="M3.33325 7.5C3.33325 8.42 4.07992 9.16667 4.99992 9.16667C5.91991 9.16667 6.66658 8.42 6.66658 7.5C6.66658 6.58 5.91991 5.83333 4.99992 5.83333C4.07992 5.83333 3.33325 6.58 3.33325 7.5Z" fill="#F4A422"/>
<path d="M20 7.5H8.33333V8.54167C8.33333 9.8075 7.3075 10.8333 6.04167 10.8333H0V7.5V12.7083C0 13.9725 1.0275 15 2.29167 15H17.7083C18.9725 15 20 13.9725 20 12.7083V7.5Z" fill="#676B7F"/>
<path d="M8.33333 7.5H6.66667C6.66667 8.42 5.92 9.16666 5 9.16666C4.08 9.16666 3.33333 8.42 3.33333 7.5H0V10.8333H6.04167C7.3075 10.8333 8.33333 9.8075 8.33333 8.54166V7.5Z" fill="#7D8F97"/>
<path d="M6.66658 7.5H3.33325C3.33325 8.42 4.07992 9.16666 4.99992 9.16666C5.91991 9.16666 6.66658 8.42 6.66658 7.5Z" fill="#E8821C"/>
<path d="M16.4584 20H14.375C13.8 20 13.3334 19.5325 13.3334 18.9583V15.4167H11.4584C11.2084 15.4167 10.9825 15.2675 10.8842 15.0383C10.7859 14.8092 10.8334 14.5425 11.005 14.3608L14.9634 10.1942C15.1992 9.94583 15.6342 9.94583 15.87 10.1942L19.8283 14.3608C20 14.5417 20.0483 14.8083 19.95 15.0383C19.8517 15.2683 19.625 15.4167 19.375 15.4167H17.5V18.9583C17.5 19.5325 17.0325 20 16.4584 20Z" fill="#5DA364"/>
<path d="M15.4166 10C15.2491 10 15.0816 10.0617 14.9633 10.1858L11.0049 14.3525C10.8332 14.5333 10.7849 14.8 10.8832 15.03C10.9816 15.2592 11.2082 15.4083 11.4574 15.4083H13.3333V18.95C13.3333 19.5242 13.8008 19.9917 14.3749 19.9917H15.4166V10Z" fill="#538457"/>
</g>
<defs>
<clipPath id="clip0">
<rect width="20" height="20" fill="white"/>
</clipPath>
</defs>
</svg>
