<svg width="24" height="24" viewBox="0 0 24 24" fill="none" xmlns="http://www.w3.org/2000/svg">
<path d="M22.7587 3.31035C22.7587 4.45292 21.8323 5.37931 20.6897 5.37931C19.5471 5.37931 18.6207 4.45292 18.6207 3.31035C18.6207 2.16777 19.5471 1.24138 20.6897 1.24138C21.8323 1.24138 22.7587 2.16777 22.7587 3.31035Z" fill="#F4A422"/>
<path d="M20.2759 3.31035C20.2759 4.45292 19.3495 5.37931 18.2069 5.37931C17.0643 5.37931 16.1379 4.45292 16.1379 3.31035C16.1379 2.16777 17.0643 1.24138 18.2069 1.24138C19.3495 1.24138 20.2759 2.16777 20.2759 3.31035Z" fill="#E8821C"/>
<path d="M23.1724 7.86207H15.3104C14.8552 7.86207 14.4828 8.23444 14.4828 8.68965V21.5172C14.4828 21.9725 14.8552 22.3448 15.3104 22.3448H23.1724C23.6277 22.3448 24 21.9725 24 21.5172V8.68965C24 8.23444 23.6277 7.86207 23.1724 7.86207Z" fill="#676B7F"/>
<path d="M14.4828 8.68965V10.7586H24V8.68965C24 8.23444 23.6277 7.86207 23.1724 7.86207H15.3104C14.8552 7.86207 14.4828 8.23444 14.4828 8.68965Z" fill="#4A4A56"/>
<path d="M19.0346 13.2414C19.0346 13.6984 18.664 14.069 18.207 14.069C17.7499 14.069 17.3794 13.6984 17.3794 13.2414C17.3794 12.7844 17.7499 12.4138 18.207 12.4138C18.664 12.4138 19.0346 12.7844 19.0346 13.2414Z" fill="#4A4A56"/>
<path d="M22.3449 13.2414C22.3449 13.6984 21.9743 14.069 21.5173 14.069C21.0603 14.069 20.6897 13.6984 20.6897 13.2414C20.6897 12.7844 21.0603 12.4138 21.5173 12.4138C21.9743 12.4138 22.3449 12.7844 22.3449 13.2414Z" fill="#4A4A56"/>
<path d="M19.0346 16.5517C19.0346 17.0088 18.664 17.3793 18.207 17.3793C17.7499 17.3793 17.3794 17.0088 17.3794 16.5517C17.3794 16.0947 17.7499 15.7241 18.207 15.7241C18.664 15.7241 19.0346 16.0947 19.0346 16.5517Z" fill="#4A4A56"/>
<path d="M22.3449 16.5517C22.3449 17.0088 21.9743 17.3793 21.5173 17.3793C21.0603 17.3793 20.6897 17.0088 20.6897 16.5517C20.6897 16.0947 21.0603 15.7241 21.5173 15.7241C21.9743 15.7241 22.3449 16.0947 22.3449 16.5517Z" fill="#4A4A56"/>
<path d="M19.0346 19.8621C19.0346 20.3191 18.664 20.6897 18.207 20.6897C17.7499 20.6897 17.3794 20.3191 17.3794 19.8621C17.3794 19.405 17.7499 19.0345 18.207 19.0345C18.664 19.0345 19.0346 19.405 19.0346 19.8621Z" fill="#4A4A56"/>
<path d="M22.3449 19.8621C22.3449 20.3191 21.9743 20.6897 21.5173 20.6897C21.0603 20.6897 20.6897 20.3191 20.6897 19.8621C20.6897 19.405 21.0603 19.0345 21.5173 19.0345C21.9743 19.0345 22.3449 19.405 22.3449 19.8621Z" fill="#4A4A56"/>
<path d="M0 15.7241H15.7241V24H0V15.7241Z" fill="#5DA364"/>
<path d="M2.48274 17.3793C2.48274 17.8345 2.11036 18.2069 1.65515 18.2069V21.5172C2.11036 21.5172 2.48274 21.8896 2.48274 22.3448H13.2414C13.2414 21.8896 13.6137 21.5172 14.0689 21.5172V18.2069C13.6137 18.2069 13.2414 17.8345 13.2414 17.3793H2.48274Z" fill="#538457"/>
<path d="M9.93103 19.4483H12.4138V20.2759H9.93103V19.4483Z" fill="#EDC17C"/>
<path d="M3.3103 19.4483H5.79306V20.2759H3.3103V19.4483Z" fill="#EDC17C"/>
<path d="M8.6896 19.8621C8.6896 20.3191 8.31904 20.6897 7.86201 20.6897C7.40498 20.6897 7.03442 20.3191 7.03442 19.8621C7.03442 19.405 7.40498 19.0345 7.86201 19.0345C8.31904 19.0345 8.6896 19.405 8.6896 19.8621Z" fill="#EDC17C"/>
<path d="M18.2069 4.13794C18.2069 5.28052 17.2805 6.2069 16.1379 6.2069C14.9954 6.2069 14.069 5.28052 14.069 4.13794C14.069 2.99536 14.9954 2.06897 16.1379 2.06897C17.2805 2.06897 18.2069 2.99536 18.2069 4.13794Z" fill="#F4A422"/>
<path d="M0 9.51724H15.7241V15.7241H0V9.51724Z" fill="#5DA364"/>
<path d="M0 14.8966H15.7241V15.7241H0V14.8966Z" fill="#538457"/>
<path d="M0 12.8276H15.7241V13.6552H0V12.8276Z" fill="#538457"/>
<path d="M0 10.7586H15.7241V11.5862H0V10.7586Z" fill="#538457"/>
</svg>
