<svg width="20" height="16" viewBox="0 0 20 16" fill="none" xmlns="http://www.w3.org/2000/svg">
<path d="M18.5422 2.30487H13.2482L12.1792 0.508953C12.0746 0.333364 11.8854 0.225784 11.681 0.225784H8.31882C8.11446 0.225784 7.92521 0.333364 7.82069 0.508953L6.75166 2.30487H5.01445V1.90905C5.01445 1.58891 4.7549 1.32937 4.43477 1.32937H2.28989C1.96969 1.32937 1.71021 1.58891 1.71021 1.90905V2.30487H1.45769C0.65257 2.30487 0 2.95751 0 3.7625V14.3165C0 15.1215 0.65257 15.7742 1.45763 15.7742H18.5422C19.3473 15.7742 19.9999 15.1215 19.9999 14.3165V3.7625C20 2.95751 19.3473 2.30487 18.5422 2.30487ZM9.99993 13.1886C7.70842 13.1886 5.85081 11.331 5.85081 9.03942C5.85081 6.74797 7.70842 4.89029 9.99993 4.89029C12.2914 4.89029 14.1491 6.74797 14.1491 9.03942C14.1491 11.331 12.2914 13.1886 9.99993 13.1886ZM17.6328 5.31006H15.8164C15.4962 5.31006 15.2367 5.05052 15.2367 4.73032C15.2367 4.41012 15.4962 4.15058 15.8164 4.15058H17.6328C17.9531 4.15058 18.2125 4.41012 18.2125 4.73032C18.2125 5.05052 17.953 5.31006 17.6328 5.31006Z" fill="#787878"/>
<path d="M9.9999 11.938C11.6007 11.938 12.8985 10.6403 12.8985 9.03941C12.8985 7.43856 11.6007 6.14082 9.9999 6.14082C8.39906 6.14082 7.10132 7.43856 7.10132 9.03941C7.10132 10.6403 8.39906 11.938 9.9999 11.938Z" fill="#787878"/>
</svg>
