<svg width="20" height="20" viewBox="0 0 20 20" fill="none" xmlns="http://www.w3.org/2000/svg">
<g clip-path="url(#clip0)">
<path d="M16.1678 18.5588C16.1468 19.36 15.493 20 14.6915 20H2.11699C1.31543 20 0.662073 19.36 0.641096 18.5588C0.473127 12.175 1.87028 7.29872 2.52766 5.37899C2.7102 4.84598 3.21129 4.4886 3.77422 4.4886H13.0343C13.5976 4.4886 14.0987 4.84595 14.2813 5.37899C14.6503 6.45716 15.2528 8.4677 15.6804 11.1538C16.014 13.2512 16.2413 15.76 16.1678 18.5588Z" fill="#6DBB24"/>
<path d="M16.1679 18.5588C16.1469 19.36 15.4931 20 14.6916 20H7.7251C7.26112 20 6.83873 19.7347 6.63725 19.3171C6.07998 18.1627 5.08299 15.6276 5.13186 12.3471C5.14155 11.6861 5.67862 11.1538 6.33963 11.1538H15.6805C16.014 13.2512 16.2414 15.76 16.1679 18.5588V18.5588Z" fill="#359D46"/>
<path d="M5.05266 4.4886C4.64481 4.4886 4.28219 4.84595 4.15016 5.37899C3.67407 7.29868 2.66294 12.175 2.7845 18.5588C2.79942 19.36 3.2727 20 3.85297 20H2.117C1.31544 20 0.662076 19.36 0.6411 18.5588C0.473131 12.175 1.86989 7.29872 2.52727 5.37899C2.70981 4.84598 3.2109 4.4886 3.77422 4.4886H5.05266Z" fill="#359D46"/>
<path d="M11.5715 8.25937C11.2111 8.25937 10.919 7.96723 10.919 7.60684V3.81961C10.919 2.43309 9.79096 1.30508 8.40444 1.30508C7.01792 1.30508 5.88991 2.43309 5.88991 3.81961V7.6068C5.88991 7.96719 5.59777 8.25933 5.23738 8.25933C4.87699 8.25933 4.58484 7.96719 4.58484 7.6068V3.81961C4.58484 1.71348 6.29827 0 8.40444 0C10.5106 0 12.224 1.71348 12.224 3.81961V7.6068C12.224 7.96719 11.9319 8.25937 11.5715 8.25937V8.25937Z" fill="#407093"/>
<path d="M11.585 7.60679V3.8196C11.585 2.43308 10.4569 1.30507 9.07043 1.30507C8.9575 1.30507 8.84649 1.31331 8.73743 1.3278C9.96699 1.49132 10.9189 2.54605 10.9189 3.8196V7.60679C10.9189 7.96718 11.2111 8.25933 11.5715 8.25933C11.6933 8.25933 11.8069 8.22534 11.9045 8.16722C11.7134 8.05343 11.585 7.84538 11.585 7.60679V7.60679Z" fill="#365E7D"/>
<path d="M5.25082 7.6068V3.81961C5.25082 1.82566 6.78668 0.183984 8.73742 0.0146484C8.62765 0.00515625 8.51664 0 8.40445 0C6.29832 0 4.58484 1.71348 4.58484 3.81961V7.6068C4.58484 7.96719 4.87699 8.25934 5.23738 8.25934C5.35921 8.25934 5.47281 8.22535 5.57039 8.16723C5.37929 8.05344 5.25082 7.84539 5.25082 7.6068Z" fill="#365E7D"/>
<path d="M7.83869 19.3171C7.2817 18.1627 6.28478 15.6275 6.33338 12.347C6.34318 11.6859 6.8801 11.154 7.54135 11.154H12.8523H18.1633C18.8246 11.154 19.3615 11.6859 19.3713 12.347C19.4199 15.6275 18.4229 18.1627 17.866 19.3171C17.6644 19.7348 17.2418 20 16.778 20H8.92658C8.46279 20 8.04025 19.7348 7.83869 19.3171Z" fill="#95CB37"/>
<path d="M10.1496 19.9999H8.92649C8.46294 19.9999 8.04012 19.7346 7.83864 19.3171C7.2818 18.1626 6.28481 15.6275 6.33325 12.347C6.34293 11.686 6.88 11.1537 7.54145 11.1537H9.19626C8.74118 11.1537 8.3713 11.686 8.36481 12.347C8.3313 15.6275 9.01735 18.1626 9.40099 19.3171C9.53946 19.7346 9.83063 19.9999 10.1496 19.9999V19.9999Z" fill="#6DBB24"/>
<path d="M13.0543 16.965C11.5797 16.965 10.38 15.7653 10.38 14.2907V12.9386C10.38 12.6491 10.6147 12.4144 10.9041 12.4144C11.1936 12.4144 11.4283 12.6491 11.4283 12.9386V14.2907C11.4283 15.1873 12.1577 15.9167 13.0543 15.9167C13.9508 15.9167 14.6802 15.1873 14.6802 14.2907V12.9386C14.6802 12.6491 14.9149 12.4144 15.2044 12.4144C15.4938 12.4144 15.7285 12.6491 15.7285 12.9386V14.2907C15.7285 15.7653 14.5288 16.965 13.0543 16.965Z" fill="#407093"/>
<path d="M13.5446 15.9167C14.4412 15.9167 15.1706 15.1873 15.1706 14.2907V12.9386C15.1706 12.7377 15.2837 12.5634 15.4496 12.4754C15.3764 12.4366 15.293 12.4145 15.2044 12.4145C14.915 12.4145 14.6803 12.6491 14.6803 12.9386V14.2907C14.6803 15.104 14.0801 15.7797 13.2994 15.8982C13.3794 15.9104 13.4613 15.9167 13.5446 15.9167Z" fill="#365E7D"/>
<path d="M10.8702 14.2907V12.9386C10.8702 12.7377 10.9834 12.5634 11.1493 12.4754C11.0761 12.4366 10.9927 12.4145 10.9041 12.4145C10.6147 12.4145 10.38 12.6491 10.38 12.9386V14.2907C10.38 15.7654 11.5797 16.965 13.0543 16.965C13.137 16.965 13.2186 16.9607 13.2994 16.9533C11.9393 16.829 10.8702 15.6826 10.8702 14.2907Z" fill="#365E7D"/>
</g>
<defs>
<clipPath id="clip0">
<rect width="20" height="20" fill="white"/>
</clipPath>
</defs>
</svg>
