<svg width="20" height="20" viewBox="0 0 20 20" fill="none" xmlns="http://www.w3.org/2000/svg">
<path d="M9.91737 17.4449H0.663969C0.297259 17.4449 0 17.7421 0 18.1088V18.7728C0 19.1395 0.297259 19.4368 0.663969 19.4368H9.91737C10.284 19.4368 10.5813 19.1395 10.5813 18.7728V18.1088C10.5813 17.7421 10.2841 17.4449 9.91737 17.4449Z" fill="#787878"/>
<path d="M0.663969 15.2538H8.6705C9.03715 15.2538 9.33447 14.9565 9.33447 14.5898V13.9258C9.33447 13.5591 9.03715 13.2618 8.6705 13.2618H0.663969C0.297259 13.2618 0 13.5591 0 13.9258V14.5898C0 14.9565 0.297259 15.2538 0.663969 15.2538Z" fill="#787878"/>
<path d="M0.663969 11.0707H7.42351C7.79015 11.0707 8.08748 10.7735 8.08748 10.4068V9.74281C8.08748 9.3761 7.79015 9.07884 7.42351 9.07884H0.663969C0.297259 9.07884 0 9.3761 0 9.74281V10.4068C0 10.7735 0.297259 11.0707 0.663969 11.0707Z" fill="#787878"/>
<path d="M0.663969 6.42296H6.17657C6.54321 6.42296 6.84054 6.1257 6.84054 5.75899V5.09503C6.84054 4.72832 6.54321 4.43106 6.17657 4.43106H0.663969C0.297259 4.43106 0 4.72832 0 5.09503V5.75899C0 6.1257 0.297259 6.42296 0.663969 6.42296Z" fill="#787878"/>
<path d="M0.663968 2.23997H4.92956C5.29621 2.23997 5.59353 1.94271 5.59353 1.576V0.912031C5.59353 0.545321 5.29621 0.248062 4.92956 0.248062H0.663968C0.297258 0.248062 0 0.545321 0 0.912031V1.576C0 1.94271 0.297258 2.23997 0.663968 2.23997Z" fill="#787878"/>
<path d="M19.8055 14.4L19.3361 13.9305C19.2116 13.806 19.0426 13.736 18.8666 13.736C18.6905 13.736 18.5216 13.806 18.3971 13.9305L16.1134 16.2141V1.24402C16.1134 0.877306 15.8162 0.580048 15.4494 0.580048H14.7855C14.4188 0.580048 14.1215 0.877306 14.1215 1.24402V16.214L11.8379 13.9304C11.7133 13.8058 11.5444 13.7359 11.3684 13.7359C11.1923 13.7359 11.0234 13.8059 10.8989 13.9304L10.4294 14.3999C10.1702 14.6592 10.1702 15.0796 10.4294 15.3389L14.648 19.5575C14.7725 19.682 14.9414 19.7519 15.1175 19.7519C15.2935 19.7519 15.4624 19.682 15.587 19.5575L19.8055 15.3389C20.0648 15.0796 20.0648 14.6592 19.8055 14.4Z" fill="#787878"/>
</svg>
