<svg width="20" height="20" viewBox="0 0 20 20" fill="none" xmlns="http://www.w3.org/2000/svg">
<path d="M19.9965 6.66666H0V7.49999C0 7.94202 0.175595 8.36594 0.488155 8.6785C0.800716 8.99106 1.22464 9.16666 1.66667 9.16666H4.16667C4.60869 9.16666 5.03262 8.99106 5.34518 8.6785C5.65774 8.36594 5.83333 7.94202 5.83333 7.49999C5.83333 7.94202 6.00893 8.36594 6.32149 8.6785C6.63405 8.99106 7.05797 9.16666 7.5 9.16666H12.5C12.942 9.16666 13.3659 8.99106 13.6785 8.6785C13.9911 8.36594 14.1667 7.94202 14.1667 7.49999C14.1667 7.94202 14.3423 8.36594 14.6548 8.6785C14.9674 8.99106 15.3913 9.16666 15.8333 9.16666H18.3333C18.7754 9.16666 19.1993 8.99106 19.5118 8.6785C19.8244 8.36594 20 7.94202 20 7.49999V6.66666H19.9965Z" fill="#787878"/>
<path d="M19.7952 5.83333L18.3012 0.604167C18.2514 0.430089 18.1463 0.276964 18.0017 0.167956C17.8572 0.0589485 17.681 -1.00969e-05 17.5 1.29698e-09L13.6831 1.29698e-09L14.8498 5.83333H19.7952Z" fill="#787878"/>
<path d="M6.31692 1.29698e-09H2.50004C2.31898 -1.00969e-05 2.14285 0.0589485 1.99828 0.167956C1.85371 0.276964 1.74858 0.430089 1.69879 0.604167L0.204834 5.83333H5.15025L6.31692 1.29698e-09Z" fill="#787878"/>
<path d="M11.9835 0H8.0164L6.84973 5.83333H13.1501L11.9835 0Z" fill="#787878"/>
<path d="M15.8333 10C15.2179 10.0005 14.6242 9.77319 14.1666 9.36188C13.7089 9.77319 13.1152 10.0005 12.4999 10H7.49992C6.8846 10.0005 6.29089 9.77319 5.83325 9.36188C5.37561 9.77319 4.7819 10.0005 4.16658 10H1.66659C1.38251 9.9994 1.10065 9.95008 0.833252 9.85417V19.1667C0.833252 19.3877 0.921049 19.5996 1.07733 19.7559C1.23361 19.9122 1.44557 20 1.66659 20H3.33325V12.5C3.33325 12.279 3.42105 12.067 3.57733 11.9107C3.73361 11.7545 3.94557 11.6667 4.16658 11.6667H8.33325C8.55427 11.6667 8.76623 11.7545 8.92251 11.9107C9.07879 12.067 9.16658 12.279 9.16658 12.5V20H18.3333C18.5543 20 18.7662 19.9122 18.9225 19.7559C19.0788 19.5996 19.1666 19.3877 19.1666 19.1667V9.85417C18.8992 9.95008 18.6173 9.9994 18.3333 10H15.8333ZM16.6666 15C16.6666 15.221 16.5788 15.433 16.4225 15.5893C16.2662 15.7455 16.0543 15.8333 15.8333 15.8333H11.6666C11.4456 15.8333 11.2336 15.7455 11.0773 15.5893C10.921 15.433 10.8333 15.221 10.8333 15V12.5C10.8333 12.279 10.921 12.067 11.0773 11.9107C11.2336 11.7545 11.4456 11.6667 11.6666 11.6667H15.8333C16.0543 11.6667 16.2662 11.7545 16.4225 11.9107C16.5788 12.067 16.6666 12.279 16.6666 12.5V15Z" fill="#787878"/>
</svg>
