<svg width="20" height="20" viewBox="0 0 20 20" fill="none" xmlns="http://www.w3.org/2000/svg">
<g clip-path="url(#clip0)">
<path d="M6.92499 3.853H3.42798C3.10434 3.853 2.84204 4.1153 2.84204 4.43893C2.84204 4.76257 3.10434 5.02487 3.42798 5.02487H6.92499C7.24847 5.02487 7.51093 4.76257 7.51093 4.43893C7.51093 4.1153 7.24847 3.853 6.92499 3.853Z" fill="#787878"/>
<path d="M6.92499 6.1969H3.42798C3.10434 6.1969 2.84204 6.4592 2.84204 6.78284C2.84204 7.10648 3.10434 7.36877 3.42798 7.36877H6.92499C7.24847 7.36877 7.51093 7.10648 7.51093 6.78284C7.51093 6.4592 7.24847 6.1969 6.92499 6.1969Z" fill="#787878"/>
<path d="M6.92499 8.5408H3.42798C3.10434 8.5408 2.84204 8.8031 2.84204 9.12674C2.84204 9.45038 3.10434 9.71268 3.42798 9.71268H6.92499C7.24847 9.71268 7.51093 9.45038 7.51093 9.12674C7.51093 8.8031 7.24847 8.5408 6.92499 8.5408Z" fill="#787878"/>
<path d="M6.92499 10.8847H3.42798C3.10434 10.8847 2.84204 11.147 2.84204 11.4706C2.84204 11.7943 3.10434 12.0566 3.42798 12.0566H6.92499C7.24847 12.0566 7.51093 11.7943 7.51093 11.4706C7.51093 11.147 7.24847 10.8847 6.92499 10.8847Z" fill="#787878"/>
<path d="M6.92499 13.2678H3.42798C3.10434 13.2678 2.84204 13.5303 2.84204 13.8538C2.84204 14.1774 3.10434 14.4397 3.42798 14.4397H6.92499C7.24847 14.4397 7.51093 14.1774 7.51093 13.8538C7.51093 13.5303 7.24847 13.2678 6.92499 13.2678Z" fill="#787878"/>
<path d="M8.89282 5.02487H12.3898C12.7135 5.02487 12.9758 4.76257 12.9758 4.43893C12.9758 4.1153 12.7135 3.853 12.3898 3.853H8.89282C8.56934 3.853 8.30688 4.1153 8.30688 4.43893C8.30688 4.76257 8.56934 5.02487 8.89282 5.02487Z" fill="#787878"/>
<path d="M8.89282 7.36877H12.3898C12.7135 7.36877 12.9758 7.10648 12.9758 6.78284C12.9758 6.4592 12.7135 6.1969 12.3898 6.1969H8.89282C8.56934 6.1969 8.30688 6.4592 8.30688 6.78284C8.30688 7.10648 8.56934 7.36877 8.89282 7.36877Z" fill="#787878"/>
<path d="M11.163 9.12674C11.163 8.8031 10.9007 8.5408 10.5771 8.5408H8.89282C8.56934 8.5408 8.30688 8.8031 8.30688 9.12674C8.30688 9.45038 8.56934 9.71268 8.89282 9.71268H10.5771C10.9007 9.71268 11.163 9.45038 11.163 9.12674Z" fill="#787878"/>
<path d="M16.7138 13.5152C16.4614 13.3127 16.0927 13.3531 15.8901 13.6055L14.381 15.4869L13.4467 14.81C13.1847 14.6201 12.8182 14.6786 12.6284 14.9406C12.4386 15.2028 12.4972 15.5692 12.7592 15.759L14.1451 16.7632C14.2489 16.8382 14.3691 16.8747 14.4886 16.8747C14.6606 16.8747 14.8305 16.7992 14.9459 16.6553L16.8043 14.3388C17.0067 14.0865 16.9663 13.7177 16.7138 13.5152Z" fill="#787878"/>
<path d="M18.1947 11.7165C17.4315 10.9398 16.4508 10.4503 15.3882 10.3061V2.35977C15.3882 1.05865 14.3295 0 13.0284 0H2.78961C1.48834 0 0.429688 1.05865 0.429688 2.35977V15.9329C0.429688 17.2342 1.48834 18.2928 2.78946 18.2928H11.0245C11.9511 19.3814 13.2835 20 14.725 20C17.4083 20 19.5912 17.8156 19.5912 15.1305C19.5912 13.8451 19.0953 12.6326 18.1947 11.7165V11.7165ZM1.60156 15.9329V2.35977C1.60156 1.70486 2.13455 1.17188 2.78961 1.17188H13.0284C13.6835 1.17188 14.2163 1.70486 14.2163 2.35977V10.2875C11.7712 10.5428 9.85886 12.6172 9.85886 15.1305C9.85886 15.827 10.0041 16.5005 10.2827 17.1208H2.78961C2.13455 17.1208 1.60156 16.588 1.60156 15.9329ZM14.725 18.8281C13.5548 18.8281 12.4791 18.2909 11.7734 17.3543C11.2875 16.7093 11.0306 15.9404 11.0306 15.1305C11.0306 13.0916 12.688 11.4328 14.725 11.4328C14.7443 11.4328 14.7636 11.4331 14.7829 11.4334L14.7919 11.4336C15.7643 11.4508 16.676 11.843 17.359 12.5378C18.0428 13.2335 18.4193 14.1544 18.4193 15.1305C18.4193 17.1693 16.7621 18.8281 14.725 18.8281V18.8281Z" fill="#787878"/>
</g>
<defs>
<clipPath id="clip0">
<rect width="20" height="20" fill="white"/>
</clipPath>
</defs>
</svg>
