<svg width="20" height="20" viewBox="0 0 20 20" fill="none" xmlns="http://www.w3.org/2000/svg">
<path d="M3.33329 4.16667C3.33329 4.38769 3.42109 4.59965 3.57737 4.75593C3.73365 4.91221 3.94561 5.00001 4.16663 5.00001H17.5C17.721 5.00001 17.9329 5.0878 18.0892 5.24408C18.2455 5.40036 18.3333 5.61232 18.3333 5.83334V17.5C18.3333 17.721 18.2455 17.933 18.0892 18.0893C17.9329 18.2455 17.721 18.3333 17.5 18.3333H13.3333C13.1123 18.3333 12.9003 18.2455 12.744 18.0893C12.5878 17.933 12.5 17.721 12.5 17.5C12.5 17.279 12.5878 17.067 12.744 16.9107C12.9003 16.7545 13.1123 16.6667 13.3333 16.6667H16.6666V6.66667H4.16663C3.88209 6.66391 3.60017 6.61204 3.33329 6.51334V15.8333C3.33329 16.0544 3.42109 16.2663 3.57737 16.4226C3.73365 16.5789 3.94561 16.6667 4.16663 16.6667H8.33329C8.55431 16.6667 8.76627 16.5789 8.92255 16.4226C9.07883 16.2663 9.16663 16.0544 9.16663 15.8333V12.0117L8.08913 13.0892C7.93196 13.241 7.72146 13.325 7.50296 13.3231C7.28446 13.3212 7.07545 13.2335 6.92094 13.079C6.76644 12.9245 6.6788 12.7155 6.6769 12.497C6.675 12.2785 6.75899 12.068 6.91079 11.9108L9.41079 9.41084C9.4884 9.33307 9.58077 9.27159 9.68246 9.23001C9.88632 9.14574 10.1153 9.14574 10.3191 9.23001C10.4208 9.27159 10.5132 9.33307 10.5908 9.41084L13.0908 11.9108C13.2426 12.068 13.3266 12.2785 13.3247 12.497C13.3228 12.7155 13.2351 12.9245 13.0806 13.079C12.9261 13.2335 12.7171 13.3212 12.4986 13.3231C12.2801 13.325 12.0696 13.241 11.9125 13.0892L10.8333 12.0117V15.8333C10.8333 16.4964 10.5699 17.1323 10.1011 17.6011C9.63222 18.0699 8.99633 18.3333 8.33329 18.3333H4.16663C3.50358 18.3333 2.8677 18.0699 2.39886 17.6011C1.93002 17.1323 1.66663 16.4964 1.66663 15.8333V4.16667C1.66663 3.50363 1.93002 2.86775 2.39886 2.3989C2.8677 1.93006 3.50358 1.66667 4.16663 1.66667H17.5C17.721 1.66667 17.9329 1.75447 18.0892 1.91075C18.2455 2.06703 18.3333 2.27899 18.3333 2.50001C18.3333 2.72102 18.2455 2.93298 18.0892 3.08926C17.9329 3.24554 17.721 3.33334 17.5 3.33334H4.16663C3.94561 3.33334 3.73365 3.42114 3.57737 3.57742C3.42109 3.7337 3.33329 3.94566 3.33329 4.16667V4.16667Z" fill="#787878"/>
</svg>
