<svg width="20" height="20" viewBox="0 0 20 20" fill="none" xmlns="http://www.w3.org/2000/svg">
<g clip-path="url(#clip0)">
<path fill-rule="evenodd" clip-rule="evenodd" d="M12.4138 5.86206V17.5862C12.4138 18.2264 12.1595 18.8403 11.7068 19.293C11.2541 19.7457 10.6402 20 10 20H2.41379C1.77362 20 1.15966 19.7457 0.706984 19.293C0.25431 18.8403 0 18.2264 0 17.5862V5.86206C0 4.52896 1.08069 3.44827 2.41379 3.44827C2.98512 3.44827 3.44828 2.98511 3.44828 2.41379V0.689648H8.96552V2.41379C8.96552 2.98511 9.42867 3.44827 10 3.44827C11.3331 3.44827 12.4138 4.52896 12.4138 5.86206Z" fill="#5DA364"/>
<path fill-rule="evenodd" clip-rule="evenodd" d="M10.3447 0.689655C10.3457 0.872617 10.2723 1.04812 10.1413 1.17586C10.0135 1.30685 9.83803 1.38028 9.65506 1.37931H2.75851C2.3781 1.37817 2.06999 1.07007 2.06886 0.689655C2.06788 0.506693 2.14132 0.331194 2.27231 0.203448C2.40005 0.0724625 2.57555 -0.000973453 2.75851 1.96848e-08H9.65506C10.0355 0.00113616 10.3436 0.309241 10.3447 0.689655Z" fill="#538457"/>
<path d="M17.2413 8.96551C18.384 8.96551 19.3103 8.0392 19.3103 6.89654C19.3103 5.75389 18.384 4.82758 17.2413 4.82758C16.0987 4.82758 15.1724 5.75389 15.1724 6.89654C15.1724 8.0392 16.0987 8.96551 17.2413 8.96551Z" fill="#F3D55B"/>
<path d="M6.2069 6.89654C7.34956 6.89654 8.27587 5.97024 8.27587 4.82758C8.27587 3.68492 7.34956 2.75861 6.2069 2.75861C5.06425 2.75861 4.13794 3.68492 4.13794 4.82758C4.13794 5.97024 5.06425 6.89654 6.2069 6.89654Z" fill="#F3D55B"/>
<path d="M8.96545 11.7241C10.1081 11.7241 11.0344 10.7978 11.0344 9.65516C11.0344 8.5125 10.1081 7.58619 8.96545 7.58619C7.82279 7.58619 6.89648 8.5125 6.89648 9.65516C6.89648 10.7978 7.82279 11.7241 8.96545 11.7241Z" fill="#F3D55B"/>
<path d="M18.6207 18.6207H14.4827C14.1019 18.6207 13.7931 18.9295 13.7931 19.3103C13.7931 19.6912 14.1019 20 14.4827 20H18.6207C19.0015 20 19.3103 19.6912 19.3103 19.3103C19.3103 18.9295 19.0015 18.6207 18.6207 18.6207Z" fill="#F3D55B"/>
<path d="M4.48272 20H8.62065C9.00153 20 9.3103 19.6912 9.3103 19.3103C9.3103 18.9294 9.00153 18.6207 8.62065 18.6207H4.48272C4.10183 18.6207 3.79306 18.9294 3.79306 19.3103C3.79306 19.6912 4.10183 20 4.48272 20Z" fill="#F0C419"/>
<path d="M3.10357 18.6207H7.2415C7.62238 18.6207 7.93115 18.3119 7.93115 17.931C7.93115 17.5501 7.62238 17.2414 7.2415 17.2414H3.10357C2.72268 17.2414 2.41391 17.5501 2.41391 17.931C2.41391 18.3119 2.72268 18.6207 3.10357 18.6207Z" fill="#F3D55B"/>
<path d="M4.48272 17.2414H8.62065C9.00153 17.2414 9.3103 16.9326 9.3103 16.5517C9.3103 16.1708 9.00153 15.8621 8.62065 15.8621H4.48272C4.10183 15.8621 3.79306 16.1708 3.79306 16.5517C3.79306 16.9326 4.10183 17.2414 4.48272 17.2414Z" fill="#F0C419"/>
<path d="M3.10357 15.8621H7.2415C7.62238 15.8621 7.93115 15.5533 7.93115 15.1724C7.93115 14.7915 7.62238 14.4827 7.2415 14.4827H3.10357C2.72268 14.4827 2.41391 14.7915 2.41391 15.1724C2.41391 15.5533 2.72268 15.8621 3.10357 15.8621Z" fill="#F3D55B"/>
<path d="M5.17241 14.4828H9.31034C9.69123 14.4828 10 14.174 10 13.7931C10 13.4122 9.69123 13.1034 9.31034 13.1034H5.17241C4.79153 13.1034 4.48276 13.4122 4.48276 13.7931C4.48276 14.174 4.79153 14.4828 5.17241 14.4828Z" fill="#F0C419"/>
<path d="M19.3104 17.2414H15.1724C14.7916 17.2414 14.4828 17.5502 14.4828 17.931C14.4828 18.3119 14.7916 18.6207 15.1724 18.6207H19.3104C19.6912 18.6207 20 18.3119 20 17.931C20 17.5502 19.6912 17.2414 19.3104 17.2414Z" fill="#F0C419"/>
<path d="M18.6207 15.8621H14.4827C14.1019 15.8621 13.7931 16.1708 13.7931 16.5517C13.7931 16.9326 14.1019 17.2414 14.4827 17.2414H18.6207C19.0015 17.2414 19.3103 16.9326 19.3103 16.5517C19.3103 16.1708 19.0015 15.8621 18.6207 15.8621Z" fill="#F3D55B"/>
<path d="M19.3104 14.4828H15.1724C14.7916 14.4828 14.4828 14.7915 14.4828 15.1724C14.4828 15.5533 14.7916 15.8621 15.1724 15.8621H19.3104C19.6912 15.8621 20 15.5533 20 15.1724C20 14.7915 19.6912 14.4828 19.3104 14.4828Z" fill="#F0C419"/>
<path d="M18.6207 13.1034H14.4827C14.1019 13.1034 13.7931 13.4122 13.7931 13.7931C13.7931 14.174 14.1019 14.4828 14.4827 14.4828H18.6207C19.0015 14.4828 19.3103 14.174 19.3103 13.7931C19.3103 13.4122 19.0015 13.1034 18.6207 13.1034Z" fill="#F3D55B"/>
<path d="M19.3104 11.7241H15.1724C14.7916 11.7241 14.4828 12.0329 14.4828 12.4138C14.4828 12.7947 14.7916 13.1035 15.1724 13.1035H19.3104C19.6912 13.1035 20 12.7947 20 12.4138C20 12.0329 19.6912 11.7241 19.3104 11.7241Z" fill="#F0C419"/>
<path d="M18.6207 10.3448H14.4827C14.1019 10.3448 13.7931 10.6536 13.7931 11.0345C13.7931 11.4154 14.1019 11.7241 14.4827 11.7241H18.6207C19.0015 11.7241 19.3103 11.4154 19.3103 11.0345C19.3103 10.6536 19.0015 10.3448 18.6207 10.3448Z" fill="#F3D55B"/>
<path d="M19.3104 8.96552H15.1724C14.7916 8.96552 14.4828 9.27429 14.4828 9.65518C14.4828 10.0361 14.7916 10.3448 15.1724 10.3448H19.3104C19.6912 10.3448 20 10.0361 20 9.65518C20 9.27429 19.6912 8.96552 19.3104 8.96552Z" fill="#F0C419"/>
</g>
<defs>
<clipPath id="clip0">
<rect width="20" height="20" fill="white"/>
</clipPath>
</defs>
</svg>
