<svg width="20" height="20" viewBox="0 0 20 20" fill="none" xmlns="http://www.w3.org/2000/svg">
<g clip-path="url(#clip0)">
<path d="M19.375 12.5C19.03 12.5 18.75 12.22 18.75 11.875C18.75 9.46252 16.7875 7.50001 14.375 7.50001H8.33333V10.2083C8.33333 10.7584 7.67167 11.0367 7.27667 10.66L2.69333 6.28501C2.57 6.16751 2.5 6.00418 2.5 5.83334C2.5 5.66251 2.57 5.49918 2.69333 5.38168L7.27667 1.00667C7.67333 0.628336 8.33333 0.910003 8.33333 1.45834V4.16667H13.5417C17.1025 4.16667 20 7.06418 20 10.625V11.875C20 12.22 19.72 12.5 19.375 12.5Z" fill="#787878"/>
<path d="M11.6667 18.5417V15.8333H6.45833C2.8975 15.8333 0 12.9358 0 9.375V8.125C0 7.78 0.28 7.5 0.625 7.5C0.97 7.5 1.25 7.78 1.25 8.125C1.25 10.5375 3.2125 12.5 5.625 12.5H11.6667V9.79167C11.6667 9.24417 12.3258 8.96 12.7233 9.34L17.3067 13.715C17.43 13.8325 17.5 13.9958 17.5 14.1667C17.5 14.3375 17.43 14.5008 17.3067 14.6183L12.7233 18.9933C12.3258 19.3717 11.6667 19.09 11.6667 18.5417Z" fill="#787878"/>
</g>
<defs>
<clipPath id="clip0">
<rect width="20" height="20" fill="white"/>
</clipPath>
</defs>
</svg>
