<svg width="20" height="20" viewBox="0 0 20 20" fill="none" xmlns="http://www.w3.org/2000/svg">
<path d="M16.25 10.8203C15.9264 10.8203 15.6641 11.0827 15.6641 11.4062V14.7266H13.9062C13.5827 14.7266 13.3203 14.9889 13.3203 15.3125C13.3203 15.6361 13.5827 15.8984 13.9062 15.8984H16.25C16.5736 15.8984 16.8359 15.6361 16.8359 15.3125V11.4062C16.8359 11.0827 16.5736 10.8203 16.25 10.8203Z" fill="#359D46"/>
<path d="M3.75 9.17969C4.07359 9.17969 4.33594 8.91734 4.33594 8.59375V5.27344H6.09375C6.41734 5.27344 6.67969 5.01109 6.67969 4.6875C6.67969 4.36391 6.41734 4.10156 6.09375 4.10156H3.75C3.42641 4.10156 3.16406 4.36391 3.16406 4.6875V8.59375C3.16406 8.91734 3.42641 9.17969 3.75 9.17969Z" fill="#359D46"/>
<path d="M11.5234 14.1406H9.57031C8.92309 14.1406 8.39844 14.6653 8.39844 15.3125C8.39844 15.9597 8.92309 16.4844 9.57031 16.4844H11.5234C11.847 16.4844 12.1094 16.222 12.1094 15.8984V14.7266C12.1094 14.403 11.847 14.1406 11.5234 14.1406Z" fill="#359D46"/>
<path d="M7.22656 15.3125C7.22656 14.0202 8.27797 12.9688 9.57031 12.9688H11.3281V12.3828C11.3281 11.4136 10.5396 10.625 9.57031 10.625H1.75781C0.788555 10.625 0 11.4136 0 12.3828V18.2422C0 19.2114 0.788555 20 1.75781 20H9.57031C10.5396 20 11.3281 19.2114 11.3281 18.2422V17.6562H9.57031C8.27797 17.6562 7.22656 16.6048 7.22656 15.3125Z" fill="#359D46"/>
<path d="M19.4141 3.51562H17.4609C16.8137 3.51562 16.2891 4.04027 16.2891 4.6875C16.2891 5.33473 16.8137 5.85938 17.4609 5.85938H19.4141C19.7377 5.85938 20 5.59703 20 5.27344V4.10156C20 3.77797 19.7377 3.51562 19.4141 3.51562Z" fill="#359D46"/>
<path d="M15.1172 4.6875C15.1172 3.39516 16.1686 2.34375 17.4609 2.34375H19.2188V1.75781C19.2188 0.788555 18.4302 0 17.4609 0H9.64844C8.67918 0 7.89062 0.788555 7.89062 1.75781V7.61719C7.89062 8.58645 8.67918 9.375 9.64844 9.375H17.4609C18.4302 9.375 19.2188 8.58645 19.2188 7.61719V7.03125H17.4609C16.1686 7.03125 15.1172 5.97984 15.1172 4.6875Z" fill="#359D46"/>
</svg>
