<svg width="20" height="20" viewBox="0 0 20 20" fill="none" xmlns="http://www.w3.org/2000/svg">
<g clip-path="url(#clip0)">
<path d="M9.99997 7.27277C8.49542 7.27277 7.27271 8.49548 7.27271 10C7.27271 11.5046 8.49542 12.7273 9.99997 12.7273C11.5045 12.7273 12.7272 11.5046 12.7272 10C12.7272 8.49548 11.5045 7.27277 9.99997 7.27277Z" fill="#787878"/>
<path d="M10 3.18184C5.45455 3.18184 1.57274 6.00909 0 10C1.57274 13.9909 5.45455 16.8182 10 16.8182C14.55 16.8182 18.4273 13.9909 20 10C18.4273 6.00909 14.55 3.18184 10 3.18184ZM10 14.5455C7.49093 14.5455 5.45455 12.5091 5.45455 9.99998C5.45455 7.49089 7.49093 5.45455 10 5.45455C12.5091 5.45455 14.5455 7.49093 14.5455 10C14.5455 12.5091 12.5091 14.5455 10 14.5455Z" fill="#787878"/>
</g>
<defs>
<clipPath id="clip0">
<rect width="20" height="20" fill="white"/>
</clipPath>
</defs>
</svg>
