<svg width="20" height="20" viewBox="0 0 20 20" fill="none" xmlns="http://www.w3.org/2000/svg">
<path d="M12.0202 18.1439C11.8553 18.185 11.6871 18.2215 11.5202 18.2522C11.0839 18.3334 10.7955 18.753 10.8762 19.1896C10.9161 19.4045 11.0381 19.5834 11.2037 19.7002C11.3744 19.8204 11.5917 19.8746 11.8131 19.8335C12.0119 19.7966 12.2122 19.7532 12.4088 19.7041C12.8396 19.5969 13.102 19.1604 12.9946 18.7298C12.8873 18.2988 12.4513 18.0366 12.0202 18.1439Z" fill="#359D46"/>
<path d="M17.9659 7.36714C18.0222 7.53687 18.1297 7.67544 18.2655 7.77118C18.4669 7.91301 18.7304 7.96073 18.9819 7.87759C19.4035 7.7376 19.6319 7.283 19.4924 6.86163C19.4289 6.66954 19.3584 6.47685 19.2833 6.28923C19.1183 5.87694 18.6507 5.67621 18.2382 5.84113C17.8261 6.00596 17.6253 6.47376 17.7903 6.88618C17.8534 7.04388 17.9125 7.20574 17.9659 7.36714Z" fill="#359D46"/>
<path d="M14.6329 16.996C14.491 17.0896 14.3446 17.1802 14.1972 17.2651C13.8124 17.4871 13.6807 17.9789 13.9025 18.3634C13.9627 18.468 14.043 18.5535 14.1354 18.6189C14.3834 18.7934 14.7202 18.8195 15.0007 18.658C15.176 18.5568 15.3503 18.4493 15.5192 18.3376C15.8896 18.0929 15.9915 17.5941 15.7467 17.2236C15.502 16.8529 15.0033 16.7511 14.6329 16.996Z" fill="#359D46"/>
<path d="M19.9924 9.61271C19.9749 9.16894 19.6011 8.82354 19.1572 8.84086C18.7139 8.85836 18.3682 9.23227 18.3856 9.67586C18.3923 9.84547 18.394 10.0176 18.3901 10.187C18.3839 10.4653 18.52 10.7134 18.7315 10.8625C18.8575 10.9512 19.0104 11.0049 19.1763 11.0087C19.62 11.0186 19.9878 10.6666 19.9976 10.2226C20.0021 10.0201 20.0004 9.81503 19.9924 9.61271Z" fill="#359D46"/>
<path d="M17.8347 14.8809C17.4789 14.6139 16.9754 14.6864 16.7089 15.0416C16.6069 15.1776 16.4994 15.3119 16.3893 15.4413C16.1017 15.7792 16.1423 16.2868 16.4803 16.5746C16.4995 16.591 16.519 16.606 16.5392 16.6201C16.8751 16.8569 17.342 16.8025 17.6137 16.4837C17.7451 16.3294 17.8732 16.1689 17.9952 16.0064C18.2617 15.6512 18.1896 15.1475 17.8347 14.8809Z" fill="#359D46"/>
<path d="M19.0165 11.9744C18.5928 11.8416 18.1416 12.0775 18.0089 12.5011C17.9581 12.663 17.9017 12.8256 17.8409 12.9849C17.7074 13.3356 17.8354 13.7214 18.1286 13.9281C18.1823 13.9659 18.2416 13.998 18.3059 14.0223C18.7208 14.1806 19.1853 13.9725 19.3434 13.5575C19.4156 13.3681 19.4826 13.1746 19.5432 12.9821C19.6758 12.5584 19.4401 12.1073 19.0165 11.9744Z" fill="#359D46"/>
<path d="M8.51242 18.2595C7.79359 18.1304 7.10403 17.9106 6.45016 17.6041C6.44242 17.6 6.4355 17.5954 6.42738 17.5917C6.27329 17.5192 6.11947 17.4415 5.97037 17.3604C5.96985 17.3598 5.96891 17.3594 5.96809 17.359C5.69453 17.2084 5.42755 17.0417 5.16818 16.8591C1.38606 14.1949 0.476682 8.95033 3.14109 5.16825C3.72045 4.34615 4.42157 3.66029 5.20321 3.1167C5.21284 3.10999 5.22247 3.10333 5.23202 3.09658C7.98641 1.19873 11.7264 1.07082 14.6512 3.02104L14.023 3.92865C13.8484 4.18128 13.9558 4.36537 14.2615 4.33785L16.9901 4.09357C17.2962 4.06606 17.4793 3.80127 17.397 3.50565L16.6642 0.865665C16.5822 0.569706 16.3722 0.53428 16.1974 0.78686L15.5678 1.69662C13.4214 0.255819 10.8471 -0.29358 8.29191 0.149499C8.03456 0.194039 7.78082 0.248553 7.53056 0.31201C7.52863 0.312354 7.52708 0.312569 7.52553 0.312913C7.51586 0.315277 7.50605 0.318416 7.49664 0.321038C5.29328 0.88686 3.37088 2.17194 1.99913 4.00548C1.98756 4.01919 1.97565 4.03261 1.96473 4.04753C1.91912 4.10896 1.87385 4.17182 1.82952 4.23467C1.75704 4.33768 1.68558 4.44327 1.61723 4.54886C1.60867 4.56159 1.60214 4.57453 1.59465 4.58738C0.462667 6.34151 -0.0833354 8.36946 0.0103019 10.434C0.0105168 10.4408 0.0101299 10.4477 0.0103019 10.4546C0.0193732 10.6563 0.0353664 10.8608 0.0570775 11.0621C0.0582383 11.0751 0.0611188 11.0873 0.0633114 11.1003C0.0857534 11.3027 0.113913 11.5056 0.14921 11.7085C0.507938 13.778 1.48421 15.6403 2.94711 17.0894C2.9505 17.0928 2.95403 17.0965 2.95747 17.1C2.95867 17.1013 2.96 17.102 2.96117 17.1033C3.3542 17.4909 3.78172 17.8495 4.24203 18.1737C5.44668 19.0225 6.78808 19.5836 8.22867 19.8421C8.66577 19.9207 9.08331 19.6297 9.16173 19.1928C9.24011 18.7556 8.94939 18.3377 8.51242 18.2595Z" fill="#359D46"/>
<path d="M9.50661 3.50432C9.14706 3.50432 8.85583 3.79581 8.85583 4.15484V10.6358L14.7832 13.6999C14.8786 13.7493 14.9807 13.7726 15.0813 13.7726C15.3167 13.7726 15.5441 13.6444 15.6597 13.4207C15.8245 13.1014 15.6998 12.7092 15.3805 12.5443L10.1567 9.84362V4.15484C10.1566 3.79581 9.86572 3.50432 9.50661 3.50432Z" fill="#359D46"/>
</svg>
