<svg width="20" height="20" viewBox="0 0 20 20" fill="none" xmlns="http://www.w3.org/2000/svg">
<g clip-path="url(#clip0)">
<path d="M16.25 15C14.1825 15 12.5 13.3175 12.5 11.25C12.5 9.18254 14.1825 7.50004 16.25 7.50004H18.3333V5.83337C18.3333 4.91421 17.5858 4.16671 16.6667 4.16671H15.8333V2.50004C15.8333 1.58087 15.0858 0.833374 14.1667 0.833374H2.5C1.26417 0.833374 0.2425 1.73671 0.0425 2.91587C0.0241667 2.98421 0 3.05087 0 3.12504V15.8334C0 17.2117 1.12167 18.3334 2.5 18.3334H16.6667C17.5858 18.3334 18.3333 17.5859 18.3333 16.6667V15H16.25ZM1.66667 3.33337C1.66667 2.87421 2.04 2.50004 2.5 2.50004H14.1667V4.16671H2.5C2.04 4.16671 1.66667 3.79254 1.66667 3.33337Z" fill="#EB4537"/>
<path d="M19.375 8.75H16.25C14.8717 8.75 13.75 9.87167 13.75 11.25C13.75 12.6283 14.8717 13.75 16.25 13.75H19.375C19.72 13.75 20 13.47 20 13.125V9.375C20 9.03 19.72 8.75 19.375 8.75ZM16.25 12.0833C15.79 12.0833 15.4167 11.71 15.4167 11.25C15.4167 10.79 15.79 10.4167 16.25 10.4167C16.71 10.4167 17.0833 10.79 17.0833 11.25C17.0833 11.71 16.71 12.0833 16.25 12.0833Z" fill="#EB4537"/>
</g>
<defs>
<clipPath id="clip0">
<rect width="20" height="20" fill="white"/>
</clipPath>
</defs>
</svg>
