<svg width="20" height="20" viewBox="0 0 20 20" fill="none" xmlns="http://www.w3.org/2000/svg">
<path d="M19.375 0.000640869H0.625C0.28 0.000640869 0 0.28064 0 0.62564V9.37563C0 9.72063 0.28 10.0006 0.625 10.0006H2.9225C3.42 9.12938 3.75375 8.28688 3.95875 7.50063H3.75C3.06 7.50063 2.5 6.94063 2.5 6.25063V3.75064C2.5 3.06064 3.06 2.50064 3.75 2.50064H16.25C16.94 2.50064 17.5 3.06064 17.5 3.75064V6.25063C17.5 6.82563 17.1037 7.28813 16.5762 7.43438C16.43 8.24563 16.1888 9.10688 15.8325 10.0006H19.375C19.72 10.0006 20 9.72063 20 9.37563V0.62564C20 0.28064 19.72 0.000640869 19.375 0.000640869Z" fill="#787878"/>
<path d="M15.4437 3.75063H5.43373C5.65498 5.37563 5.60123 8.03813 3.84248 10.9244C0.638734 16.1794 2.50373 19.5444 2.58373 19.6856C2.69498 19.8794 2.90248 19.9994 3.12623 19.9994H11.8762C12.0975 19.9994 12.3012 19.8794 12.4137 19.6894C12.5262 19.4994 12.5287 19.2606 12.4212 19.0669C12.3562 18.9506 10.8687 16.1569 13.66 11.5756C15.5612 8.45688 15.6725 5.59813 15.4437 3.75063ZM7.49998 5.62563C7.49998 5.28063 7.77998 5.00063 8.12498 5.00063C8.46998 5.00063 8.74998 5.28063 8.74998 5.62563V6.87563C8.74998 7.22063 8.46998 7.50063 8.12498 7.50063C7.77998 7.50063 7.49998 7.22063 7.49998 6.87563V5.62563ZM9.99998 16.8756C9.99998 17.2206 9.71998 17.5006 9.37498 17.5006C9.02998 17.5006 8.74998 17.2206 8.74998 16.8756V15.6256C8.74998 15.2806 9.02998 15.0006 9.37498 15.0006C9.71998 15.0006 9.99998 15.2806 9.99998 15.6256V16.8756ZM8.74998 13.4381C7.71623 13.4381 6.87498 12.4569 6.87498 11.2506C6.87498 10.0444 7.71623 9.06313 8.74998 9.06313C9.78373 9.06313 10.625 10.0444 10.625 11.2506C10.625 12.4569 9.78373 13.4381 8.74998 13.4381Z" fill="#787878"/>
</svg>
